%TF.GenerationSoftware,KiCad,Pcbnew,10.0.1*%
%TF.CreationDate,2026-05-14T21:07:55+02:00*%
%TF.ProjectId,DualAmpOP,4475616c-416d-4704-9f50-2e6b69636164,2.0*%
%TF.SameCoordinates,Original*%
%TF.FileFunction,Copper,L2,Bot*%
%TF.FilePolarity,Positive*%
%FSLAX46Y46*%
G04 Gerber Fmt 4.6, Leading zero omitted, Abs format (unit mm)*
G04 Created by KiCad (PCBNEW 10.0.1) date 2026-05-14 21:07:55*
%MOMM*%
%LPD*%
G01*
G04 APERTURE LIST*
%TA.AperFunction,ComponentPad*%
%ADD10R,1.700000X1.700000*%
%TD*%
%TA.AperFunction,ComponentPad*%
%ADD11C,1.700000*%
%TD*%
%TA.AperFunction,ViaPad*%
%ADD12C,0.600000*%
%TD*%
%TA.AperFunction,ViaPad*%
%ADD13C,3.500000*%
%TD*%
%TA.AperFunction,Conductor*%
%ADD14C,0.200000*%
%TD*%
G04 APERTURE END LIST*
D10*
%TO.P,J1,1,Pin_1_1*%
%TO.N,Net-(J1-Pin_1)*%
X101600000Y-58420000D03*
D11*
%TO.P,J1,2,Pin_2_2*%
%TO.N,Net-(J1-Pin_2)*%
X101600000Y-60960000D03*
%TO.P,J1,3,Pin_3_3*%
%TO.N,Net-(J1-Pin_3)*%
X101600000Y-63500000D03*
%TO.P,J1,4,Pin_4_4*%
%TO.N,Net-(J1-Pin_4)*%
X101600000Y-66040000D03*
%TO.P,J1,5,Pin_5_5*%
%TO.N,GND*%
X101600000Y-68580000D03*
%TO.P,J1,6,Pin_6_6*%
%TO.N,Net-(J1-Pin_6)*%
X101600000Y-71120000D03*
%TD*%
D10*
%TO.P,J2,1,Pin_1_1*%
%TO.N,Net-(J2-Pin_1)*%
X147320000Y-60960000D03*
D11*
%TO.P,J2,2,Pin_2_2*%
%TO.N,Net-(J2-Pin_2)*%
X147320000Y-63500000D03*
%TO.P,J2,3,Pin_3_3*%
%TO.N,Net-(J2-Pin_3)*%
X147320000Y-66040000D03*
%TO.P,J2,4,Pin_4_4*%
%TO.N,GND*%
X147320000Y-68580000D03*
%TD*%
D12*
%TO.N,Net-(U1A-+)*%
X118872000Y-61630000D03*
X118872000Y-72136000D03*
%TO.N,GND*%
X109220000Y-57150000D03*
D13*
%TO.N,*%
X102870000Y-54610000D03*
X145542000Y-74930000D03*
X145542000Y-54610000D03*
X102870000Y-74930000D03*
D12*
%TO.N,Net-(J1-Pin_1)*%
X134112000Y-54102000D03*
X134112000Y-72136000D03*
%TO.N,GND*%
X130302000Y-57150000D03*
X131318000Y-67310000D03*
%TD*%
%TO.N,Net-(U1A-+)*%
D14*
X118872000Y-61630000D02*
X118872000Y-72136000D01*
%TO.N,Net-(J1-Pin_1)*%
X134112000Y-54102000D02*
X134112000Y-72136000D01*
%TO.N,GND*%
X109220000Y-57150000D02*
X109220000Y-67310000D01*
X107950000Y-68580000D02*
X101600000Y-68580000D01*
X109220000Y-67310000D02*
X107950000Y-68580000D01*
%TD*%
%TA.AperFunction,Conductor*%
%TO.N,GND*%
G36*
X101532823Y-52590185D02*
G01*
X101578578Y-52642989D01*
X101588522Y-52712147D01*
X101559497Y-52775703D01*
X101541271Y-52792876D01*
X101382952Y-52914358D01*
X101174358Y-53122952D01*
X101174352Y-53122959D01*
X100994761Y-53357006D01*
X100847258Y-53612489D01*
X100847254Y-53612499D01*
X100734364Y-53885038D01*
X100734361Y-53885048D01*
X100658008Y-54170004D01*
X100658006Y-54170015D01*
X100619500Y-54462486D01*
X100619500Y-54757513D01*
X100651571Y-55001113D01*
X100658007Y-55049993D01*
X100658008Y-55049995D01*
X100734361Y-55334951D01*
X100734364Y-55334961D01*
X100847254Y-55607500D01*
X100847258Y-55607510D01*
X100994761Y-55862993D01*
X101174352Y-56097040D01*
X101174358Y-56097047D01*
X101382952Y-56305641D01*
X101382959Y-56305647D01*
X101617006Y-56485238D01*
X101872489Y-56632741D01*
X101872490Y-56632741D01*
X101872493Y-56632743D01*
X102145048Y-56745639D01*
X102430007Y-56821993D01*
X102722494Y-56860500D01*
X102722501Y-56860500D01*
X103017499Y-56860500D01*
X103017506Y-56860500D01*
X103309993Y-56821993D01*
X103594952Y-56745639D01*
X103867507Y-56632743D01*
X104122994Y-56485238D01*
X104357042Y-56305646D01*
X104565646Y-56097042D01*
X104745238Y-55862994D01*
X104892743Y-55607507D01*
X105005639Y-55334952D01*
X105081993Y-55049993D01*
X105120500Y-54757506D01*
X105120500Y-54462494D01*
X105081993Y-54170007D01*
X105042644Y-54023153D01*
X133311500Y-54023153D01*
X133311500Y-54180846D01*
X133342261Y-54335489D01*
X133342264Y-54335501D01*
X133402602Y-54481172D01*
X133402609Y-54481185D01*
X133490602Y-54612874D01*
X133511480Y-54679551D01*
X133511500Y-54681765D01*
X133511500Y-71556234D01*
X133491815Y-71623273D01*
X133490602Y-71625125D01*
X133402609Y-71756814D01*
X133402602Y-71756827D01*
X133342264Y-71902498D01*
X133342261Y-71902510D01*
X133311500Y-72057153D01*
X133311500Y-72214846D01*
X133342261Y-72369489D01*
X133342264Y-72369501D01*
X133402602Y-72515172D01*
X133402609Y-72515185D01*
X133490210Y-72646288D01*
X133490213Y-72646292D01*
X133601707Y-72757786D01*
X133601711Y-72757789D01*
X133732814Y-72845390D01*
X133732827Y-72845397D01*
X133878498Y-72905735D01*
X133878503Y-72905737D01*
X134033153Y-72936499D01*
X134033156Y-72936500D01*
X134033158Y-72936500D01*
X134190844Y-72936500D01*
X134190845Y-72936499D01*
X134345497Y-72905737D01*
X134491179Y-72845394D01*
X134622289Y-72757789D01*
X134733789Y-72646289D01*
X134821394Y-72515179D01*
X134881737Y-72369497D01*
X134912500Y-72214842D01*
X134912500Y-72057158D01*
X134912500Y-72057155D01*
X134912499Y-72057153D01*
X134881738Y-71902510D01*
X134881737Y-71902503D01*
X134850801Y-71827816D01*
X134821397Y-71756827D01*
X134821390Y-71756814D01*
X134733398Y-71625125D01*
X134712520Y-71558447D01*
X134712500Y-71556234D01*
X134712500Y-60062135D01*
X145969500Y-60062135D01*
X145969501Y-61857870D01*
X145975908Y-61917483D01*
X146026202Y-62052328D01*
X146026206Y-62052335D01*
X146112452Y-62167544D01*
X146112455Y-62167547D01*
X146227664Y-62253793D01*
X146227671Y-62253797D01*
X146359082Y-62302810D01*
X146415016Y-62344681D01*
X146439433Y-62410145D01*
X146424582Y-62478418D01*
X146403431Y-62506673D01*
X146289889Y-62620215D01*
X146164951Y-62792179D01*
X146068444Y-62981585D01*
X146002753Y-63183760D01*
X145969500Y-63393713D01*
X145969500Y-63606286D01*
X146002753Y-63816239D01*
X146068444Y-64018414D01*
X146164951Y-64207820D01*
X146289890Y-64379786D01*
X146440213Y-64530109D01*
X146612182Y-64655050D01*
X146620946Y-64659516D01*
X146671742Y-64707491D01*
X146688536Y-64775312D01*
X146665998Y-64841447D01*
X146620946Y-64880484D01*
X146612182Y-64884949D01*
X146440213Y-65009890D01*
X146289890Y-65160213D01*
X146164951Y-65332179D01*
X146068444Y-65521585D01*
X146002753Y-65723760D01*
X145969500Y-65933713D01*
X145969500Y-66146286D01*
X146002753Y-66356239D01*
X146068444Y-66558414D01*
X146164951Y-66747820D01*
X146289890Y-66919786D01*
X146440213Y-67070109D01*
X146612179Y-67195048D01*
X146612181Y-67195049D01*
X146612184Y-67195051D01*
X146621493Y-67199794D01*
X146672290Y-67247766D01*
X146689087Y-67315587D01*
X146666552Y-67381722D01*
X146621505Y-67420760D01*
X146612446Y-67425376D01*
X146612440Y-67425380D01*
X146558282Y-67464727D01*
X146558282Y-67464728D01*
X147190591Y-68097037D01*
X147127007Y-68114075D01*
X147012993Y-68179901D01*
X146919901Y-68272993D01*
X146854075Y-68387007D01*
X146837037Y-68450591D01*
X146204728Y-67818282D01*
X146204727Y-67818282D01*
X146165380Y-67872439D01*
X146068904Y-68061782D01*
X146003242Y-68263869D01*
X146003242Y-68263872D01*
X145970000Y-68473753D01*
X145970000Y-68686246D01*
X146003242Y-68896127D01*
X146003242Y-68896130D01*
X146068904Y-69098217D01*
X146165375Y-69287550D01*
X146204728Y-69341716D01*
X146837037Y-68709408D01*
X146854075Y-68772993D01*
X146919901Y-68887007D01*
X147012993Y-68980099D01*
X147127007Y-69045925D01*
X147190590Y-69062962D01*
X146558282Y-69695269D01*
X146558282Y-69695270D01*
X146612449Y-69734624D01*
X146801782Y-69831095D01*
X147003870Y-69896757D01*
X147213754Y-69930000D01*
X147426246Y-69930000D01*
X147636127Y-69896757D01*
X147636130Y-69896757D01*
X147838217Y-69831095D01*
X148027554Y-69734622D01*
X148081716Y-69695270D01*
X148081717Y-69695270D01*
X147449408Y-69062962D01*
X147512993Y-69045925D01*
X147627007Y-68980099D01*
X147720099Y-68887007D01*
X147785925Y-68772993D01*
X147802962Y-68709408D01*
X148435270Y-69341717D01*
X148435270Y-69341716D01*
X148474622Y-69287554D01*
X148571095Y-69098217D01*
X148636757Y-68896130D01*
X148636757Y-68896127D01*
X148670000Y-68686246D01*
X148670000Y-68473753D01*
X148636757Y-68263872D01*
X148636757Y-68263869D01*
X148571095Y-68061782D01*
X148474624Y-67872449D01*
X148435270Y-67818282D01*
X148435269Y-67818282D01*
X147802962Y-68450590D01*
X147785925Y-68387007D01*
X147720099Y-68272993D01*
X147627007Y-68179901D01*
X147512993Y-68114075D01*
X147449409Y-68097037D01*
X148081716Y-67464728D01*
X148027547Y-67425373D01*
X148027547Y-67425372D01*
X148018500Y-67420763D01*
X147967706Y-67372788D01*
X147950912Y-67304966D01*
X147973451Y-67238832D01*
X148018508Y-67199793D01*
X148027816Y-67195051D01*
X148107007Y-67137515D01*
X148199786Y-67070109D01*
X148199788Y-67070106D01*
X148199792Y-67070104D01*
X148350104Y-66919792D01*
X148350106Y-66919788D01*
X148350109Y-66919786D01*
X148475048Y-66747820D01*
X148475047Y-66747820D01*
X148475051Y-66747816D01*
X148571557Y-66558412D01*
X148637246Y-66356243D01*
X148670500Y-66146287D01*
X148670500Y-65933713D01*
X148637246Y-65723757D01*
X148571557Y-65521588D01*
X148475051Y-65332184D01*
X148475049Y-65332181D01*
X148475048Y-65332179D01*
X148350109Y-65160213D01*
X148199786Y-65009890D01*
X148027820Y-64884951D01*
X148027115Y-64884591D01*
X148019054Y-64880485D01*
X147968259Y-64832512D01*
X147951463Y-64764692D01*
X147973999Y-64698556D01*
X148019054Y-64659515D01*
X148027816Y-64655051D01*
X148049789Y-64639086D01*
X148199786Y-64530109D01*
X148199788Y-64530106D01*
X148199792Y-64530104D01*
X148350104Y-64379792D01*
X148350106Y-64379788D01*
X148350109Y-64379786D01*
X148475048Y-64207820D01*
X148475047Y-64207820D01*
X148475051Y-64207816D01*
X148571557Y-64018412D01*
X148637246Y-63816243D01*
X148670500Y-63606287D01*
X148670500Y-63393713D01*
X148637246Y-63183757D01*
X148571557Y-62981588D01*
X148475051Y-62792184D01*
X148475049Y-62792181D01*
X148475048Y-62792179D01*
X148350109Y-62620213D01*
X148236569Y-62506673D01*
X148203084Y-62445350D01*
X148208068Y-62375658D01*
X148249940Y-62319725D01*
X148280915Y-62302810D01*
X148412331Y-62253796D01*
X148527546Y-62167546D01*
X148613796Y-62052331D01*
X148664091Y-61917483D01*
X148670500Y-61857873D01*
X148670499Y-60062128D01*
X148664091Y-60002517D01*
X148614719Y-59870145D01*
X148613797Y-59867671D01*
X148613793Y-59867664D01*
X148527547Y-59752455D01*
X148527544Y-59752452D01*
X148412335Y-59666206D01*
X148412328Y-59666202D01*
X148277482Y-59615908D01*
X148277483Y-59615908D01*
X148217883Y-59609501D01*
X148217881Y-59609500D01*
X148217873Y-59609500D01*
X148217864Y-59609500D01*
X146422129Y-59609500D01*
X146422123Y-59609501D01*
X146362516Y-59615908D01*
X146227671Y-59666202D01*
X146227664Y-59666206D01*
X146112455Y-59752452D01*
X146112452Y-59752455D01*
X146026206Y-59867664D01*
X146026202Y-59867671D01*
X145975908Y-60002517D01*
X145969501Y-60062116D01*
X145969501Y-60062123D01*
X145969500Y-60062135D01*
X134712500Y-60062135D01*
X134712500Y-54681765D01*
X134732185Y-54614726D01*
X134733398Y-54612874D01*
X134821390Y-54481185D01*
X134821390Y-54481184D01*
X134821394Y-54481179D01*
X134881737Y-54335497D01*
X134912500Y-54180842D01*
X134912500Y-54023158D01*
X134912500Y-54023155D01*
X134912499Y-54023153D01*
X134881738Y-53868510D01*
X134881737Y-53868503D01*
X134865579Y-53829494D01*
X134821397Y-53722827D01*
X134821390Y-53722814D01*
X134733789Y-53591711D01*
X134733786Y-53591707D01*
X134622292Y-53480213D01*
X134622288Y-53480210D01*
X134491185Y-53392609D01*
X134491172Y-53392602D01*
X134345501Y-53332264D01*
X134345489Y-53332261D01*
X134190845Y-53301500D01*
X134190842Y-53301500D01*
X134033158Y-53301500D01*
X134033155Y-53301500D01*
X133878510Y-53332261D01*
X133878498Y-53332264D01*
X133732827Y-53392602D01*
X133732814Y-53392609D01*
X133601711Y-53480210D01*
X133601707Y-53480213D01*
X133490213Y-53591707D01*
X133490210Y-53591711D01*
X133402609Y-53722814D01*
X133402602Y-53722827D01*
X133342264Y-53868498D01*
X133342261Y-53868510D01*
X133311500Y-54023153D01*
X105042644Y-54023153D01*
X105005639Y-53885048D01*
X104892743Y-53612493D01*
X104880742Y-53591707D01*
X104745238Y-53357006D01*
X104565647Y-53122959D01*
X104565641Y-53122952D01*
X104357047Y-52914358D01*
X104357042Y-52914354D01*
X104198728Y-52792875D01*
X104157527Y-52736448D01*
X104153372Y-52666702D01*
X104187584Y-52605781D01*
X104249302Y-52573029D01*
X104274216Y-52570500D01*
X144137784Y-52570500D01*
X144204823Y-52590185D01*
X144250578Y-52642989D01*
X144260522Y-52712147D01*
X144231497Y-52775703D01*
X144213271Y-52792876D01*
X144054952Y-52914358D01*
X143846358Y-53122952D01*
X143846352Y-53122959D01*
X143666761Y-53357006D01*
X143519258Y-53612489D01*
X143519254Y-53612499D01*
X143406364Y-53885038D01*
X143406361Y-53885048D01*
X143330008Y-54170004D01*
X143330006Y-54170015D01*
X143291500Y-54462486D01*
X143291500Y-54757513D01*
X143323571Y-55001113D01*
X143330007Y-55049993D01*
X143330008Y-55049995D01*
X143406361Y-55334951D01*
X143406364Y-55334961D01*
X143519254Y-55607500D01*
X143519258Y-55607510D01*
X143666761Y-55862993D01*
X143846352Y-56097040D01*
X143846358Y-56097047D01*
X144054952Y-56305641D01*
X144054959Y-56305647D01*
X144289006Y-56485238D01*
X144544489Y-56632741D01*
X144544490Y-56632741D01*
X144544493Y-56632743D01*
X144817048Y-56745639D01*
X145102007Y-56821993D01*
X145380415Y-56858646D01*
X145394478Y-56860498D01*
X145394494Y-56860500D01*
X145394501Y-56860500D01*
X145689499Y-56860500D01*
X145689506Y-56860500D01*
X145981993Y-56821993D01*
X146266952Y-56745639D01*
X146539507Y-56632743D01*
X146794994Y-56485238D01*
X147029042Y-56305646D01*
X147237646Y-56097042D01*
X147417238Y-55862994D01*
X147564743Y-55607507D01*
X147677639Y-55334952D01*
X147753993Y-55049993D01*
X147792500Y-54757506D01*
X147792500Y-54462494D01*
X147753993Y-54170007D01*
X147677639Y-53885048D01*
X147564743Y-53612493D01*
X147552742Y-53591707D01*
X147417238Y-53357006D01*
X147237647Y-53122959D01*
X147237641Y-53122952D01*
X147029047Y-52914358D01*
X147029042Y-52914354D01*
X146870728Y-52792875D01*
X146829527Y-52736448D01*
X146825372Y-52666702D01*
X146859584Y-52605781D01*
X146921302Y-52573029D01*
X146946216Y-52570500D01*
X147889108Y-52570500D01*
X147950125Y-52570500D01*
X147959853Y-52570881D01*
X148164988Y-52587026D01*
X148184197Y-52590069D01*
X148379531Y-52636964D01*
X148398019Y-52642971D01*
X148583617Y-52719849D01*
X148600949Y-52728680D01*
X148772226Y-52833639D01*
X148787964Y-52845073D01*
X148940710Y-52975531D01*
X148954468Y-52989289D01*
X149068627Y-53122952D01*
X149084926Y-53142035D01*
X149096364Y-53157778D01*
X149201318Y-53329049D01*
X149210151Y-53346384D01*
X149245015Y-53430552D01*
X149265584Y-53480210D01*
X149287024Y-53531968D01*
X149293037Y-53550475D01*
X149339929Y-53745797D01*
X149342973Y-53765015D01*
X149359118Y-53970146D01*
X149359500Y-53979875D01*
X149359500Y-75560124D01*
X149359118Y-75569853D01*
X149342973Y-75774984D01*
X149339929Y-75794202D01*
X149293037Y-75989524D01*
X149287024Y-76008031D01*
X149210151Y-76193615D01*
X149201318Y-76210950D01*
X149096364Y-76382221D01*
X149084926Y-76397964D01*
X148954468Y-76550710D01*
X148940710Y-76564468D01*
X148787964Y-76694926D01*
X148772221Y-76706364D01*
X148600950Y-76811318D01*
X148583615Y-76820151D01*
X148398031Y-76897024D01*
X148379524Y-76903037D01*
X148184202Y-76949929D01*
X148164984Y-76952973D01*
X147959854Y-76969118D01*
X147950125Y-76969500D01*
X146946216Y-76969500D01*
X146879177Y-76949815D01*
X146833422Y-76897011D01*
X146823478Y-76827853D01*
X146852503Y-76764297D01*
X146870729Y-76747124D01*
X147029042Y-76625646D01*
X147237646Y-76417042D01*
X147417238Y-76182994D01*
X147564743Y-75927507D01*
X147677639Y-75654952D01*
X147753993Y-75369993D01*
X147792500Y-75077506D01*
X147792500Y-74782494D01*
X147753993Y-74490007D01*
X147677639Y-74205048D01*
X147564743Y-73932493D01*
X147417238Y-73677006D01*
X147237646Y-73442958D01*
X147237641Y-73442952D01*
X147029047Y-73234358D01*
X147029040Y-73234352D01*
X146794993Y-73054761D01*
X146539510Y-72907258D01*
X146539500Y-72907254D01*
X146266961Y-72794364D01*
X146266954Y-72794362D01*
X146266952Y-72794361D01*
X145981993Y-72718007D01*
X145933113Y-72711571D01*
X145689513Y-72679500D01*
X145689506Y-72679500D01*
X145394494Y-72679500D01*
X145394486Y-72679500D01*
X145116085Y-72716153D01*
X145102007Y-72718007D01*
X144953549Y-72757786D01*
X144817048Y-72794361D01*
X144817038Y-72794364D01*
X144544499Y-72907254D01*
X144544489Y-72907258D01*
X144289006Y-73054761D01*
X144054959Y-73234352D01*
X144054952Y-73234358D01*
X143846358Y-73442952D01*
X143846352Y-73442959D01*
X143666761Y-73677006D01*
X143519258Y-73932489D01*
X143519254Y-73932499D01*
X143406364Y-74205038D01*
X143406361Y-74205048D01*
X143330008Y-74490004D01*
X143330006Y-74490015D01*
X143291500Y-74782486D01*
X143291500Y-75077513D01*
X143323571Y-75321113D01*
X143330007Y-75369993D01*
X143330008Y-75369995D01*
X143406361Y-75654951D01*
X143406364Y-75654961D01*
X143519254Y-75927500D01*
X143519258Y-75927510D01*
X143666761Y-76182993D01*
X143846352Y-76417040D01*
X143846358Y-76417047D01*
X144054952Y-76625641D01*
X144054956Y-76625644D01*
X144054958Y-76625646D01*
X144213271Y-76747124D01*
X144254473Y-76803552D01*
X144258628Y-76873298D01*
X144224416Y-76934219D01*
X144162698Y-76966971D01*
X144137784Y-76969500D01*
X104274216Y-76969500D01*
X104207177Y-76949815D01*
X104161422Y-76897011D01*
X104151478Y-76827853D01*
X104180503Y-76764297D01*
X104198729Y-76747124D01*
X104357042Y-76625646D01*
X104565646Y-76417042D01*
X104745238Y-76182994D01*
X104892743Y-75927507D01*
X105005639Y-75654952D01*
X105081993Y-75369993D01*
X105120500Y-75077506D01*
X105120500Y-74782494D01*
X105081993Y-74490007D01*
X105005639Y-74205048D01*
X104892743Y-73932493D01*
X104745238Y-73677006D01*
X104565646Y-73442958D01*
X104565641Y-73442952D01*
X104357047Y-73234358D01*
X104357040Y-73234352D01*
X104122993Y-73054761D01*
X103867510Y-72907258D01*
X103867500Y-72907254D01*
X103594961Y-72794364D01*
X103594954Y-72794362D01*
X103594952Y-72794361D01*
X103309993Y-72718007D01*
X103261113Y-72711571D01*
X103017513Y-72679500D01*
X103017506Y-72679500D01*
X102722494Y-72679500D01*
X102722486Y-72679500D01*
X102444085Y-72716153D01*
X102430007Y-72718007D01*
X102281549Y-72757786D01*
X102145048Y-72794361D01*
X102145038Y-72794364D01*
X101872499Y-72907254D01*
X101872489Y-72907258D01*
X101617006Y-73054761D01*
X101382959Y-73234352D01*
X101382952Y-73234358D01*
X101174358Y-73442952D01*
X101174352Y-73442959D01*
X100994761Y-73677006D01*
X100847258Y-73932489D01*
X100847254Y-73932499D01*
X100734364Y-74205038D01*
X100734361Y-74205048D01*
X100658008Y-74490004D01*
X100658006Y-74490015D01*
X100619500Y-74782486D01*
X100619500Y-75077513D01*
X100651571Y-75321113D01*
X100658007Y-75369993D01*
X100658008Y-75369995D01*
X100734361Y-75654951D01*
X100734364Y-75654961D01*
X100847254Y-75927500D01*
X100847258Y-75927510D01*
X100994761Y-76182993D01*
X101174352Y-76417040D01*
X101174358Y-76417047D01*
X101382952Y-76625641D01*
X101382956Y-76625644D01*
X101382958Y-76625646D01*
X101541271Y-76747124D01*
X101582473Y-76803552D01*
X101586628Y-76873298D01*
X101552416Y-76934219D01*
X101490698Y-76966971D01*
X101465784Y-76969500D01*
X100969875Y-76969500D01*
X100960146Y-76969118D01*
X100755015Y-76952973D01*
X100735797Y-76949929D01*
X100540475Y-76903037D01*
X100521972Y-76897025D01*
X100420552Y-76855015D01*
X100336384Y-76820151D01*
X100319049Y-76811318D01*
X100147778Y-76706364D01*
X100132035Y-76694926D01*
X99979289Y-76564468D01*
X99965531Y-76550710D01*
X99922571Y-76500410D01*
X99835071Y-76397961D01*
X99823639Y-76382226D01*
X99718680Y-76210949D01*
X99709848Y-76193615D01*
X99705448Y-76182993D01*
X99632971Y-76008019D01*
X99626964Y-75989531D01*
X99580069Y-75794197D01*
X99577026Y-75774984D01*
X99560882Y-75569853D01*
X99560500Y-75560124D01*
X99560500Y-57522135D01*
X100249500Y-57522135D01*
X100249500Y-59317870D01*
X100249501Y-59317876D01*
X100255908Y-59377483D01*
X100306202Y-59512328D01*
X100306206Y-59512335D01*
X100392452Y-59627544D01*
X100392455Y-59627547D01*
X100507664Y-59713793D01*
X100507671Y-59713797D01*
X100639082Y-59762810D01*
X100695016Y-59804681D01*
X100719433Y-59870145D01*
X100704582Y-59938418D01*
X100683431Y-59966673D01*
X100569889Y-60080215D01*
X100444951Y-60252179D01*
X100348444Y-60441585D01*
X100282753Y-60643760D01*
X100249500Y-60853713D01*
X100249500Y-61066286D01*
X100278727Y-61250821D01*
X100282754Y-61276243D01*
X100321831Y-61396510D01*
X100348444Y-61478414D01*
X100444951Y-61667820D01*
X100569890Y-61839786D01*
X100720213Y-61990109D01*
X100892182Y-62115050D01*
X100900946Y-62119516D01*
X100951742Y-62167491D01*
X100968536Y-62235312D01*
X100945998Y-62301447D01*
X100900946Y-62340484D01*
X100892182Y-62344949D01*
X100720213Y-62469890D01*
X100569890Y-62620213D01*
X100444951Y-62792179D01*
X100348444Y-62981585D01*
X100282753Y-63183760D01*
X100249500Y-63393713D01*
X100249500Y-63606286D01*
X100282753Y-63816239D01*
X100348444Y-64018414D01*
X100444951Y-64207820D01*
X100569890Y-64379786D01*
X100720213Y-64530109D01*
X100892182Y-64655050D01*
X100900946Y-64659516D01*
X100951742Y-64707491D01*
X100968536Y-64775312D01*
X100945998Y-64841447D01*
X100900946Y-64880484D01*
X100892182Y-64884949D01*
X100720213Y-65009890D01*
X100569890Y-65160213D01*
X100444951Y-65332179D01*
X100348444Y-65521585D01*
X100282753Y-65723760D01*
X100249500Y-65933713D01*
X100249500Y-66146286D01*
X100282753Y-66356239D01*
X100348444Y-66558414D01*
X100444951Y-66747820D01*
X100569890Y-66919786D01*
X100720213Y-67070109D01*
X100892179Y-67195048D01*
X100892181Y-67195049D01*
X100892184Y-67195051D01*
X100901493Y-67199794D01*
X100952290Y-67247766D01*
X100969087Y-67315587D01*
X100946552Y-67381722D01*
X100901505Y-67420760D01*
X100892446Y-67425376D01*
X100892440Y-67425380D01*
X100838282Y-67464727D01*
X100838282Y-67464728D01*
X101470591Y-68097037D01*
X101407007Y-68114075D01*
X101292993Y-68179901D01*
X101199901Y-68272993D01*
X101134075Y-68387007D01*
X101117037Y-68450591D01*
X100484728Y-67818282D01*
X100484727Y-67818282D01*
X100445380Y-67872439D01*
X100348904Y-68061782D01*
X100283242Y-68263869D01*
X100283242Y-68263872D01*
X100250000Y-68473753D01*
X100250000Y-68686246D01*
X100283242Y-68896127D01*
X100283242Y-68896130D01*
X100348904Y-69098217D01*
X100445375Y-69287550D01*
X100484728Y-69341716D01*
X101117037Y-68709408D01*
X101134075Y-68772993D01*
X101199901Y-68887007D01*
X101292993Y-68980099D01*
X101407007Y-69045925D01*
X101470590Y-69062962D01*
X100838282Y-69695269D01*
X100838282Y-69695270D01*
X100892452Y-69734626D01*
X100892451Y-69734626D01*
X100901495Y-69739234D01*
X100952292Y-69787208D01*
X100969087Y-69855029D01*
X100946550Y-69921164D01*
X100901499Y-69960202D01*
X100892182Y-69964949D01*
X100720213Y-70089890D01*
X100569890Y-70240213D01*
X100444951Y-70412179D01*
X100348444Y-70601585D01*
X100282753Y-70803760D01*
X100249500Y-71013713D01*
X100249500Y-71226287D01*
X100282754Y-71436243D01*
X100344316Y-71625711D01*
X100348444Y-71638414D01*
X100444951Y-71827820D01*
X100569890Y-71999786D01*
X100720213Y-72150109D01*
X100892179Y-72275048D01*
X100892181Y-72275049D01*
X100892184Y-72275051D01*
X101081588Y-72371557D01*
X101283757Y-72437246D01*
X101493713Y-72470500D01*
X101493714Y-72470500D01*
X101706286Y-72470500D01*
X101706287Y-72470500D01*
X101916243Y-72437246D01*
X102118412Y-72371557D01*
X102307816Y-72275051D01*
X102390682Y-72214846D01*
X102479786Y-72150109D01*
X102479788Y-72150106D01*
X102479792Y-72150104D01*
X102630104Y-71999792D01*
X102630106Y-71999788D01*
X102630109Y-71999786D01*
X102755048Y-71827820D01*
X102755047Y-71827820D01*
X102755051Y-71827816D01*
X102851557Y-71638412D01*
X102917246Y-71436243D01*
X102950500Y-71226287D01*
X102950500Y-71013713D01*
X102917246Y-70803757D01*
X102851557Y-70601588D01*
X102755051Y-70412184D01*
X102755049Y-70412181D01*
X102755048Y-70412179D01*
X102630109Y-70240213D01*
X102479786Y-70089890D01*
X102307817Y-69964949D01*
X102298504Y-69960204D01*
X102247707Y-69912230D01*
X102230912Y-69844409D01*
X102253449Y-69778274D01*
X102298507Y-69739232D01*
X102307555Y-69734622D01*
X102361716Y-69695270D01*
X102361717Y-69695270D01*
X101729408Y-69062962D01*
X101792993Y-69045925D01*
X101907007Y-68980099D01*
X102000099Y-68887007D01*
X102065925Y-68772993D01*
X102082962Y-68709408D01*
X102715270Y-69341717D01*
X102715270Y-69341716D01*
X102754622Y-69287554D01*
X102851095Y-69098217D01*
X102916757Y-68896130D01*
X102916757Y-68896127D01*
X102950000Y-68686246D01*
X102950000Y-68473753D01*
X102916757Y-68263872D01*
X102916757Y-68263869D01*
X102851095Y-68061782D01*
X102754624Y-67872449D01*
X102715270Y-67818282D01*
X102715269Y-67818282D01*
X102082962Y-68450590D01*
X102065925Y-68387007D01*
X102000099Y-68272993D01*
X101907007Y-68179901D01*
X101792993Y-68114075D01*
X101729409Y-68097037D01*
X102361716Y-67464728D01*
X102307547Y-67425373D01*
X102307547Y-67425372D01*
X102298500Y-67420763D01*
X102247706Y-67372788D01*
X102230912Y-67304966D01*
X102253451Y-67238832D01*
X102298508Y-67199793D01*
X102307816Y-67195051D01*
X102387007Y-67137515D01*
X102479786Y-67070109D01*
X102479788Y-67070106D01*
X102479792Y-67070104D01*
X102630104Y-66919792D01*
X102630106Y-66919788D01*
X102630109Y-66919786D01*
X102755048Y-66747820D01*
X102755047Y-66747820D01*
X102755051Y-66747816D01*
X102851557Y-66558412D01*
X102917246Y-66356243D01*
X102950500Y-66146287D01*
X102950500Y-65933713D01*
X102917246Y-65723757D01*
X102851557Y-65521588D01*
X102755051Y-65332184D01*
X102755049Y-65332181D01*
X102755048Y-65332179D01*
X102630109Y-65160213D01*
X102479786Y-65009890D01*
X102307820Y-64884951D01*
X102307115Y-64884591D01*
X102299054Y-64880485D01*
X102248259Y-64832512D01*
X102231463Y-64764692D01*
X102253999Y-64698556D01*
X102299054Y-64659515D01*
X102307816Y-64655051D01*
X102329789Y-64639086D01*
X102479786Y-64530109D01*
X102479788Y-64530106D01*
X102479792Y-64530104D01*
X102630104Y-64379792D01*
X102630106Y-64379788D01*
X102630109Y-64379786D01*
X102755048Y-64207820D01*
X102755047Y-64207820D01*
X102755051Y-64207816D01*
X102851557Y-64018412D01*
X102917246Y-63816243D01*
X102950500Y-63606287D01*
X102950500Y-63393713D01*
X102917246Y-63183757D01*
X102851557Y-62981588D01*
X102755051Y-62792184D01*
X102755049Y-62792181D01*
X102755048Y-62792179D01*
X102630109Y-62620213D01*
X102479786Y-62469890D01*
X102307820Y-62344951D01*
X102307115Y-62344591D01*
X102299054Y-62340485D01*
X102248259Y-62292512D01*
X102231463Y-62224692D01*
X102253999Y-62158556D01*
X102299054Y-62119515D01*
X102307816Y-62115051D01*
X102394138Y-62052335D01*
X102479786Y-61990109D01*
X102479788Y-61990106D01*
X102479792Y-61990104D01*
X102630104Y-61839792D01*
X102630106Y-61839788D01*
X102630109Y-61839786D01*
X102755048Y-61667820D01*
X102755047Y-61667820D01*
X102755051Y-61667816D01*
X102814494Y-61551153D01*
X118071500Y-61551153D01*
X118071500Y-61708846D01*
X118102261Y-61863489D01*
X118102264Y-61863501D01*
X118162602Y-62009172D01*
X118162609Y-62009185D01*
X118250602Y-62140874D01*
X118271480Y-62207551D01*
X118271500Y-62209765D01*
X118271500Y-71556234D01*
X118251815Y-71623273D01*
X118250602Y-71625125D01*
X118162609Y-71756814D01*
X118162602Y-71756827D01*
X118102264Y-71902498D01*
X118102261Y-71902510D01*
X118071500Y-72057153D01*
X118071500Y-72214846D01*
X118102261Y-72369489D01*
X118102264Y-72369501D01*
X118162602Y-72515172D01*
X118162609Y-72515185D01*
X118250210Y-72646288D01*
X118250213Y-72646292D01*
X118361707Y-72757786D01*
X118361711Y-72757789D01*
X118492814Y-72845390D01*
X118492827Y-72845397D01*
X118638498Y-72905735D01*
X118638503Y-72905737D01*
X118793153Y-72936499D01*
X118793156Y-72936500D01*
X118793158Y-72936500D01*
X118950844Y-72936500D01*
X118950845Y-72936499D01*
X119105497Y-72905737D01*
X119251179Y-72845394D01*
X119382289Y-72757789D01*
X119493789Y-72646289D01*
X119581394Y-72515179D01*
X119641737Y-72369497D01*
X119672500Y-72214842D01*
X119672500Y-72057158D01*
X119672500Y-72057155D01*
X119672499Y-72057153D01*
X119641738Y-71902510D01*
X119641737Y-71902503D01*
X119610801Y-71827816D01*
X119581397Y-71756827D01*
X119581390Y-71756814D01*
X119493398Y-71625125D01*
X119472520Y-71558447D01*
X119472500Y-71556234D01*
X119472500Y-62209765D01*
X119492185Y-62142726D01*
X119493398Y-62140874D01*
X119510653Y-62115051D01*
X119581394Y-62009179D01*
X119641737Y-61863497D01*
X119672500Y-61708842D01*
X119672500Y-61551158D01*
X119672500Y-61551155D01*
X119672499Y-61551153D01*
X119641738Y-61396510D01*
X119641737Y-61396503D01*
X119591924Y-61276243D01*
X119581397Y-61250827D01*
X119581390Y-61250814D01*
X119493789Y-61119711D01*
X119493786Y-61119707D01*
X119382292Y-61008213D01*
X119382288Y-61008210D01*
X119251185Y-60920609D01*
X119251172Y-60920602D01*
X119105501Y-60860264D01*
X119105489Y-60860261D01*
X118950845Y-60829500D01*
X118950842Y-60829500D01*
X118793158Y-60829500D01*
X118793155Y-60829500D01*
X118638510Y-60860261D01*
X118638498Y-60860264D01*
X118492827Y-60920602D01*
X118492814Y-60920609D01*
X118361711Y-61008210D01*
X118361707Y-61008213D01*
X118250213Y-61119707D01*
X118250210Y-61119711D01*
X118162609Y-61250814D01*
X118162602Y-61250827D01*
X118102264Y-61396498D01*
X118102261Y-61396510D01*
X118071500Y-61551153D01*
X102814494Y-61551153D01*
X102851557Y-61478412D01*
X102917246Y-61276243D01*
X102950500Y-61066287D01*
X102950500Y-60853713D01*
X102917246Y-60643757D01*
X102851557Y-60441588D01*
X102755051Y-60252184D01*
X102755049Y-60252181D01*
X102755048Y-60252179D01*
X102630109Y-60080213D01*
X102516569Y-59966673D01*
X102483084Y-59905350D01*
X102488068Y-59835658D01*
X102529940Y-59779725D01*
X102560915Y-59762810D01*
X102692331Y-59713796D01*
X102807546Y-59627546D01*
X102893796Y-59512331D01*
X102944091Y-59377483D01*
X102950500Y-59317873D01*
X102950499Y-57522128D01*
X102944091Y-57462517D01*
X102893796Y-57327669D01*
X102893795Y-57327668D01*
X102893793Y-57327664D01*
X102807547Y-57212455D01*
X102807544Y-57212452D01*
X102692335Y-57126206D01*
X102692328Y-57126202D01*
X102611380Y-57096011D01*
X102611378Y-57096010D01*
X102557483Y-57075909D01*
X102497873Y-57069500D01*
X102410009Y-57069500D01*
X100702129Y-57069500D01*
X100702123Y-57069501D01*
X100642516Y-57075908D01*
X100507671Y-57126202D01*
X100507664Y-57126206D01*
X100392455Y-57212452D01*
X100392452Y-57212455D01*
X100306206Y-57327664D01*
X100306202Y-57327671D01*
X100255908Y-57462517D01*
X100249501Y-57522116D01*
X100249501Y-57522123D01*
X100249500Y-57522135D01*
X99560500Y-57522135D01*
X99560500Y-53979875D01*
X99560882Y-53970146D01*
X99568881Y-53868510D01*
X99577026Y-53765009D01*
X99580068Y-53745803D01*
X99626965Y-53550464D01*
X99632969Y-53531983D01*
X99709851Y-53346377D01*
X99718677Y-53329055D01*
X99823643Y-53157766D01*
X99835066Y-53142043D01*
X99965535Y-52989284D01*
X99979284Y-52975535D01*
X100132043Y-52845066D01*
X100147766Y-52833643D01*
X100319055Y-52728677D01*
X100336377Y-52719851D01*
X100521983Y-52642969D01*
X100540464Y-52636965D01*
X100735803Y-52590068D01*
X100755009Y-52587026D01*
X100960146Y-52570881D01*
X100969875Y-52570500D01*
X101030892Y-52570500D01*
X101465784Y-52570500D01*
X101532823Y-52590185D01*
G37*
%TD.AperFunction*%
%TD*%
M02*
