%TF.GenerationSoftware,KiCad,Pcbnew,10.0.1*%
%TF.CreationDate,2026-05-14T21:07:55+02:00*%
%TF.ProjectId,DualAmpOP,4475616c-416d-4704-9f50-2e6b69636164,2.0*%
%TF.SameCoordinates,Original*%
%TF.FileFunction,Copper,L1,Top*%
%TF.FilePolarity,Positive*%
%FSLAX46Y46*%
G04 Gerber Fmt 4.6, Leading zero omitted, Abs format (unit mm)*
G04 Created by KiCad (PCBNEW 10.0.1) date 2026-05-14 21:07:55*
%MOMM*%
%LPD*%
G01*
G04 APERTURE LIST*
G04 Aperture macros list*
%AMRoundRect*
0 Rectangle with rounded corners*
0 $1 Rounding radius*
0 $2 $3 $4 $5 $6 $7 $8 $9 X,Y pos of 4 corners*
0 Add a 4 corners polygon primitive as box body*
4,1,4,$2,$3,$4,$5,$6,$7,$8,$9,$2,$3,0*
0 Add four circle primitives for the rounded corners*
1,1,$1+$1,$2,$3*
1,1,$1+$1,$4,$5*
1,1,$1+$1,$6,$7*
1,1,$1+$1,$8,$9*
0 Add four rect primitives between the rounded corners*
20,1,$1+$1,$2,$3,$4,$5,0*
20,1,$1+$1,$4,$5,$6,$7,0*
20,1,$1+$1,$6,$7,$8,$9,0*
20,1,$1+$1,$8,$9,$2,$3,0*%
G04 Aperture macros list end*
%TA.AperFunction,ComponentPad*%
%ADD10R,1.700000X1.700000*%
%TD*%
%TA.AperFunction,ComponentPad*%
%ADD11C,1.700000*%
%TD*%
%TA.AperFunction,SMDPad,CuDef*%
%ADD12RoundRect,0.250000X-0.350000X-0.450000X0.350000X-0.450000X0.350000X0.450000X-0.350000X0.450000X0*%
%TD*%
%TA.AperFunction,SMDPad,CuDef*%
%ADD13RoundRect,0.250000X0.337500X0.475000X-0.337500X0.475000X-0.337500X-0.475000X0.337500X-0.475000X0*%
%TD*%
%TA.AperFunction,SMDPad,CuDef*%
%ADD14RoundRect,0.250000X0.450000X-0.350000X0.450000X0.350000X-0.450000X0.350000X-0.450000X-0.350000X0*%
%TD*%
%TA.AperFunction,SMDPad,CuDef*%
%ADD15RoundRect,0.250000X-0.337500X-0.475000X0.337500X-0.475000X0.337500X0.475000X-0.337500X0.475000X0*%
%TD*%
%TA.AperFunction,SMDPad,CuDef*%
%ADD16RoundRect,0.150000X-0.700000X-0.150000X0.700000X-0.150000X0.700000X0.150000X-0.700000X0.150000X0*%
%TD*%
%TA.AperFunction,ViaPad*%
%ADD17C,0.600000*%
%TD*%
%TA.AperFunction,ViaPad*%
%ADD18C,3.500000*%
%TD*%
%TA.AperFunction,Conductor*%
%ADD19C,0.200000*%
%TD*%
G04 APERTURE END LIST*
D10*
%TO.P,J1,1,Pin_1_1*%
%TO.N,Net-(J1-Pin_1)*%
X101600000Y-58420000D03*
D11*
%TO.P,J1,2,Pin_2_2*%
%TO.N,Net-(J1-Pin_2)*%
X101600000Y-60960000D03*
%TO.P,J1,3,Pin_3_3*%
%TO.N,Net-(J1-Pin_3)*%
X101600000Y-63500000D03*
%TO.P,J1,4,Pin_4_4*%
%TO.N,Net-(J1-Pin_4)*%
X101600000Y-66040000D03*
%TO.P,J1,5,Pin_5_5*%
%TO.N,GND*%
X101600000Y-68580000D03*
%TO.P,J1,6,Pin_6_6*%
%TO.N,Net-(J1-Pin_6)*%
X101600000Y-71120000D03*
%TD*%
D12*
%TO.P,R5,1*%
%TO.N,GND*%
X114205000Y-57150000D03*
%TO.P,R5,2*%
%TO.N,Net-(U1A-+)*%
X116205000Y-57150000D03*
%TD*%
%TO.P,R4,1*%
%TO.N,Net-(U1A-+)*%
X120666000Y-57150000D03*
%TO.P,R4,2*%
%TO.N,Net-(J1-Pin_4)*%
X122666000Y-57150000D03*
%TD*%
%TO.P,R11,1*%
%TO.N,Net-(R11-Pad1)*%
X133874000Y-63500000D03*
%TO.P,R11,2*%
%TO.N,Net-(J2-Pin_2)*%
X135874000Y-63500000D03*
%TD*%
%TO.P,R17,1*%
%TO.N,GND*%
X133874000Y-67818000D03*
%TO.P,R17,2*%
%TO.N,Net-(J2-Pin_2)*%
X135874000Y-67818000D03*
%TD*%
%TO.P,R12,1*%
%TO.N,Net-(R11-Pad1)*%
X133874000Y-60960000D03*
%TO.P,R12,2*%
%TO.N,Net-(J2-Pin_1)*%
X135874000Y-60960000D03*
%TD*%
%TO.P,R2,1*%
%TO.N,Net-(R2-Pad1)*%
X112665000Y-60960000D03*
%TO.P,R2,2*%
%TO.N,Net-(U1A-+)*%
X114665000Y-60960000D03*
%TD*%
D13*
%TO.P,C2,1*%
%TO.N,Net-(J1-Pin_6)*%
X123973500Y-73914000D03*
%TO.P,C2,2*%
%TO.N,GND*%
X121898500Y-73914000D03*
%TD*%
D14*
%TO.P,R10,1*%
%TO.N,Net-(J1-Pin_6)*%
X106680000Y-70770000D03*
%TO.P,R10,2*%
%TO.N,GND*%
X106680000Y-68770000D03*
%TD*%
D10*
%TO.P,J2,1,Pin_1_1*%
%TO.N,Net-(J2-Pin_1)*%
X147320000Y-60960000D03*
D11*
%TO.P,J2,2,Pin_2_2*%
%TO.N,Net-(J2-Pin_2)*%
X147320000Y-63500000D03*
%TO.P,J2,3,Pin_3_3*%
%TO.N,Net-(J2-Pin_3)*%
X147320000Y-66040000D03*
%TO.P,J2,4,Pin_4_4*%
%TO.N,GND*%
X147320000Y-68580000D03*
%TD*%
D12*
%TO.P,R6,1*%
%TO.N,Net-(R2-Pad1)*%
X114189000Y-54610000D03*
%TO.P,R6,2*%
%TO.N,Net-(J1-Pin_4)*%
X116189000Y-54610000D03*
%TD*%
%TO.P,R3,1*%
%TO.N,Net-(U1A--)*%
X120666000Y-67818000D03*
%TO.P,R3,2*%
%TO.N,Net-(J1-Pin_4)*%
X122666000Y-67818000D03*
%TD*%
%TO.P,R14,1*%
%TO.N,Net-(J2-Pin_1)*%
X139716000Y-57150000D03*
%TO.P,R14,2*%
%TO.N,Net-(J2-Pin_3)*%
X141716000Y-57150000D03*
%TD*%
%TO.P,R9,1*%
%TO.N,Net-(J1-Pin_4)*%
X127016000Y-62230000D03*
%TO.P,R9,2*%
%TO.N,Net-(R11-Pad1)*%
X129016000Y-62230000D03*
%TD*%
D15*
%TO.P,C1,1*%
%TO.N,Net-(J1-Pin_1)*%
X134344500Y-70358000D03*
%TO.P,C1,2*%
%TO.N,GND*%
X136419500Y-70358000D03*
%TD*%
D12*
%TO.P,R13,1*%
%TO.N,Net-(J2-Pin_2)*%
X139970000Y-67818000D03*
%TO.P,R13,2*%
%TO.N,Net-(J2-Pin_3)*%
X141970000Y-67818000D03*
%TD*%
%TO.P,R1,1*%
%TO.N,Net-(J1-Pin_3)*%
X112665000Y-63500000D03*
%TO.P,R1,2*%
%TO.N,Net-(U1A--)*%
X114665000Y-63500000D03*
%TD*%
%TO.P,R7,1*%
%TO.N,GND*%
X114316000Y-67818000D03*
%TO.P,R7,2*%
%TO.N,Net-(U1A--)*%
X116316000Y-67818000D03*
%TD*%
%TO.P,R15,1*%
%TO.N,GND*%
X133874000Y-57150000D03*
%TO.P,R15,2*%
%TO.N,Net-(J2-Pin_1)*%
X135874000Y-57150000D03*
%TD*%
D16*
%TO.P,U1,1*%
%TO.N,Net-(J1-Pin_4)*%
X126403500Y-70231000D03*
%TO.P,U1,2,-_2*%
%TO.N,Net-(U1A--)*%
X126403500Y-71501000D03*
%TO.P,U1,3,+_3*%
%TO.N,Net-(U1A-+)*%
X126403500Y-72771000D03*
%TO.P,U1,4,V-_4*%
%TO.N,Net-(J1-Pin_6)*%
X126403500Y-74041000D03*
%TO.P,U1,5,+_5*%
%TO.N,Net-(J2-Pin_1)*%
X131703500Y-74041000D03*
%TO.P,U1,6,-_6*%
%TO.N,Net-(J2-Pin_2)*%
X131703500Y-72771000D03*
%TO.P,U1,7*%
%TO.N,Net-(J2-Pin_3)*%
X131703500Y-71501000D03*
%TO.P,U1,8,V+_8*%
%TO.N,Net-(J1-Pin_1)*%
X131703500Y-70231000D03*
%TD*%
D12*
%TO.P,R8,1*%
%TO.N,Net-(J1-Pin_2)*%
X106823000Y-60960000D03*
%TO.P,R8,2*%
%TO.N,Net-(R2-Pad1)*%
X108823000Y-60960000D03*
%TD*%
D17*
%TO.N,Net-(U1A-+)*%
X118872000Y-61630000D03*
X118872000Y-72136000D03*
%TO.N,GND*%
X109220000Y-57150000D03*
D18*
%TO.N,*%
X102870000Y-54610000D03*
X145542000Y-74930000D03*
X145542000Y-54610000D03*
X102870000Y-74930000D03*
D17*
%TO.N,Net-(J1-Pin_1)*%
X134112000Y-54102000D03*
X134112000Y-72136000D03*
%TO.N,GND*%
X130302000Y-57150000D03*
X131318000Y-67310000D03*
%TD*%
%TO.N,Net-(R2-Pad1)*%
D19*
X114189000Y-54610000D02*
X114808000Y-54610000D01*
X114808000Y-54610000D02*
X115105000Y-54907000D01*
X113792000Y-59944000D02*
X113765000Y-59944000D01*
X115105000Y-54907000D02*
X115105000Y-58631000D01*
X115105000Y-58631000D02*
X113792000Y-59944000D01*
X113765000Y-60706000D02*
X113511000Y-60960000D01*
X113765000Y-59944000D02*
X113765000Y-60706000D01*
X113511000Y-60960000D02*
X112665000Y-60960000D01*
%TO.N,Net-(U1A-+)*%
X116205000Y-57150000D02*
X116205000Y-58293000D01*
X116205000Y-58293000D02*
X114665000Y-59833000D01*
X114665000Y-59833000D02*
X114665000Y-60960000D01*
X117602000Y-61722000D02*
X118872000Y-61722000D01*
X116078000Y-60960000D02*
X116840000Y-60960000D01*
X116840000Y-60960000D02*
X117602000Y-61722000D01*
X118872000Y-61722000D02*
X118872000Y-61630000D01*
X124460000Y-72136000D02*
X118872000Y-72136000D01*
X125095000Y-72771000D02*
X124460000Y-72136000D01*
X126403500Y-72771000D02*
X125095000Y-72771000D01*
%TO.N,Net-(J1-Pin_4)*%
X121666000Y-56388000D02*
X121412000Y-56134000D01*
X121412000Y-56134000D02*
X117856000Y-56134000D01*
X117856000Y-56134000D02*
X117602000Y-55880000D01*
X117602000Y-55880000D02*
X117602000Y-54864000D01*
%TO.N,Net-(J1-Pin_1)*%
X107188000Y-56896000D02*
X107188000Y-54610000D01*
X117856000Y-53594000D02*
X118364000Y-54102000D01*
X108204000Y-53594000D02*
X117856000Y-53594000D01*
X105664000Y-58420000D02*
X107188000Y-56896000D01*
X107188000Y-54610000D02*
X108204000Y-53594000D01*
X101600000Y-58420000D02*
X105664000Y-58420000D01*
X118364000Y-54102000D02*
X134112000Y-54102000D01*
%TO.N,Net-(J1-Pin_4)*%
X117348000Y-54610000D02*
X117602000Y-54864000D01*
X116189000Y-54610000D02*
X117348000Y-54610000D01*
%TO.N,GND*%
X114205000Y-57150000D02*
X109220000Y-57150000D01*
%TO.N,Net-(J1-Pin_4)*%
X121666000Y-56388000D02*
X121666000Y-56896000D01*
X121666000Y-56896000D02*
X121920000Y-57150000D01*
X121920000Y-57150000D02*
X122666000Y-57150000D01*
%TO.N,Net-(J1-Pin_1)*%
X134344500Y-70358000D02*
X134344500Y-71903500D01*
X134344500Y-71903500D02*
X134112000Y-72136000D01*
X131703500Y-70231000D02*
X134217500Y-70231000D01*
X134217500Y-70231000D02*
X134344500Y-70358000D01*
%TO.N,Net-(J1-Pin_2)*%
X101600000Y-60960000D02*
X106823000Y-60960000D01*
%TO.N,Net-(J1-Pin_3)*%
X101600000Y-63500000D02*
X112665000Y-63500000D01*
%TO.N,Net-(J1-Pin_4)*%
X114046000Y-62230000D02*
X113765000Y-62511000D01*
X122666000Y-67818000D02*
X123952000Y-67818000D01*
X120904000Y-62230000D02*
X114046000Y-62230000D01*
X123825000Y-57150000D02*
X122666000Y-57150000D01*
X123952000Y-67818000D02*
X125095000Y-66675000D01*
X113765000Y-62511000D02*
X113765000Y-65559000D01*
X125095000Y-66675000D02*
X125095000Y-62230000D01*
X125095000Y-62230000D02*
X125095000Y-58420000D01*
X113284000Y-66040000D02*
X101600000Y-66040000D01*
X122666000Y-69326000D02*
X122666000Y-67818000D01*
X123571000Y-70231000D02*
X122666000Y-69326000D01*
X125095000Y-58420000D02*
X123825000Y-57150000D01*
X126403500Y-70231000D02*
X123571000Y-70231000D01*
X122666000Y-63992000D02*
X120904000Y-62230000D01*
X127016000Y-62230000D02*
X125095000Y-62230000D01*
X122666000Y-67818000D02*
X122666000Y-63992000D01*
X113765000Y-65559000D02*
X113284000Y-66040000D01*
%TO.N,GND*%
X112522000Y-67818000D02*
X109093000Y-67818000D01*
X111760000Y-72390000D02*
X111760000Y-67945000D01*
X131826000Y-67818000D02*
X131318000Y-67310000D01*
X147320000Y-68580000D02*
X147320000Y-69850000D01*
X109093000Y-67818000D02*
X108585000Y-67310000D01*
X106680000Y-67310000D02*
X106680000Y-68770000D01*
X105410000Y-67310000D02*
X106680000Y-67310000D01*
X133874000Y-57150000D02*
X130302000Y-57150000D01*
X101600000Y-68580000D02*
X104140000Y-68580000D01*
X146812000Y-70358000D02*
X136419500Y-70358000D01*
X112522000Y-67818000D02*
X114316000Y-67818000D01*
X121898500Y-73914000D02*
X113284000Y-73914000D01*
X147320000Y-69850000D02*
X146812000Y-70358000D01*
X133874000Y-67818000D02*
X131826000Y-67818000D01*
X113284000Y-73914000D02*
X111760000Y-72390000D01*
X104140000Y-68580000D02*
X105410000Y-67310000D01*
X108585000Y-67310000D02*
X106680000Y-67310000D01*
%TO.N,Net-(J1-Pin_6)*%
X104140000Y-71120000D02*
X106680000Y-73660000D01*
X124100500Y-74041000D02*
X123973500Y-73914000D01*
X106680000Y-73660000D02*
X108585000Y-75565000D01*
X126403500Y-74041000D02*
X124100500Y-74041000D01*
X123190000Y-75565000D02*
X123973500Y-74781500D01*
X106680000Y-70770000D02*
X106680000Y-73660000D01*
X123973500Y-74781500D02*
X123973500Y-73914000D01*
X101600000Y-71120000D02*
X104140000Y-71120000D01*
X108585000Y-75565000D02*
X123190000Y-75565000D01*
%TO.N,Net-(U1A-+)*%
X116078000Y-60960000D02*
X114665000Y-60960000D01*
X118110000Y-57150000D02*
X120666000Y-57150000D01*
X116062000Y-57150000D02*
X118110000Y-57150000D01*
%TO.N,Net-(R11-Pad1)*%
X129016000Y-62230000D02*
X131445000Y-62230000D01*
X132715000Y-63500000D02*
X133874000Y-63500000D01*
X131445000Y-62230000D02*
X132715000Y-60960000D01*
X132715000Y-60960000D02*
X133874000Y-60960000D01*
X131445000Y-62230000D02*
X132715000Y-63500000D01*
%TO.N,Net-(J2-Pin_2)*%
X147320000Y-63500000D02*
X143510000Y-63500000D01*
X135890000Y-66675000D02*
X135874000Y-66691000D01*
X137795000Y-67818000D02*
X135874000Y-67818000D01*
X135874000Y-66691000D02*
X135874000Y-67818000D01*
X135255000Y-66040000D02*
X135890000Y-66675000D01*
X131703500Y-72771000D02*
X129921000Y-72771000D01*
X130175000Y-66040000D02*
X135255000Y-66040000D01*
X129540000Y-66675000D02*
X130175000Y-66040000D01*
X137160000Y-63500000D02*
X137795000Y-64135000D01*
X135874000Y-63500000D02*
X137160000Y-63500000D01*
X129921000Y-72771000D02*
X129540000Y-72390000D01*
X139970000Y-67040000D02*
X139970000Y-67818000D01*
X139970000Y-67818000D02*
X137795000Y-67818000D01*
X137795000Y-64135000D02*
X137795000Y-67818000D01*
X129540000Y-72390000D02*
X129540000Y-66675000D01*
X143510000Y-63500000D02*
X139970000Y-67040000D01*
%TO.N,Net-(J2-Pin_1)*%
X147955000Y-72390000D02*
X149225000Y-71120000D01*
X137160000Y-60960000D02*
X135874000Y-60960000D01*
X147320000Y-60960000D02*
X146050000Y-60960000D01*
X131703500Y-74041000D02*
X141224000Y-74041000D01*
X144780000Y-59690000D02*
X144780000Y-57150000D01*
X138430000Y-55245000D02*
X137795000Y-55880000D01*
X146050000Y-60960000D02*
X144780000Y-59690000D01*
X142875000Y-72390000D02*
X147955000Y-72390000D01*
X139716000Y-57150000D02*
X137795000Y-57150000D01*
X137795000Y-55880000D02*
X137795000Y-57150000D01*
X137795000Y-60325000D02*
X137160000Y-60960000D01*
X141224000Y-74041000D02*
X142875000Y-72390000D01*
X142875000Y-55245000D02*
X138430000Y-55245000D01*
X137795000Y-57150000D02*
X137795000Y-60325000D01*
X148590000Y-60960000D02*
X147320000Y-60960000D01*
X135874000Y-57150000D02*
X137795000Y-57150000D01*
X149225000Y-61595000D02*
X148590000Y-60960000D01*
X149225000Y-71120000D02*
X149225000Y-61595000D01*
X144780000Y-57150000D02*
X142875000Y-55245000D01*
%TO.N,Net-(R2-Pad1)*%
X110490000Y-60960000D02*
X112665000Y-60960000D01*
X108823000Y-60960000D02*
X110490000Y-60960000D01*
%TO.N,Net-(J2-Pin_3)*%
X141716000Y-57150000D02*
X142875000Y-57150000D01*
X148590000Y-64770000D02*
X147320000Y-66040000D01*
X141970000Y-67818000D02*
X141970000Y-68215000D01*
X130556000Y-71501000D02*
X131703500Y-71501000D01*
X143510000Y-57785000D02*
X143510000Y-60325000D01*
X141970000Y-67818000D02*
X144272000Y-67818000D01*
X142875000Y-57150000D02*
X143510000Y-57785000D01*
X141970000Y-68215000D02*
X140970000Y-69215000D01*
X130175000Y-69850000D02*
X130175000Y-71120000D01*
X144272000Y-67818000D02*
X146050000Y-66040000D01*
X130810000Y-69215000D02*
X130175000Y-69850000D01*
X146050000Y-66040000D02*
X147320000Y-66040000D01*
X130175000Y-71120000D02*
X130556000Y-71501000D01*
X143510000Y-60325000D02*
X145415000Y-62230000D01*
X145415000Y-62230000D02*
X147955000Y-62230000D01*
X147955000Y-62230000D02*
X148590000Y-62865000D01*
X148590000Y-62865000D02*
X148590000Y-64770000D01*
X140970000Y-69215000D02*
X130810000Y-69215000D01*
%TO.N,Net-(U1A--)*%
X126403500Y-71501000D02*
X121539000Y-71501000D01*
X121539000Y-71501000D02*
X120650000Y-70612000D01*
X116316000Y-67818000D02*
X120666000Y-67818000D01*
X115681000Y-63500000D02*
X116316000Y-64135000D01*
X116316000Y-64135000D02*
X116316000Y-67818000D01*
X114665000Y-63500000D02*
X115681000Y-63500000D01*
X120666000Y-70596000D02*
X120666000Y-67818000D01*
X120650000Y-70612000D02*
X120666000Y-70596000D01*
%TD*%
%TA.AperFunction,Conductor*%
%TO.N,GND*%
G36*
X101532823Y-52590185D02*
G01*
X101578578Y-52642989D01*
X101588522Y-52712147D01*
X101559497Y-52775703D01*
X101541271Y-52792876D01*
X101382952Y-52914358D01*
X101174358Y-53122952D01*
X101174352Y-53122959D01*
X100994761Y-53357006D01*
X100847258Y-53612489D01*
X100847254Y-53612499D01*
X100734364Y-53885038D01*
X100734361Y-53885048D01*
X100658008Y-54170004D01*
X100658006Y-54170015D01*
X100619500Y-54462486D01*
X100619500Y-54757513D01*
X100638589Y-54902500D01*
X100658007Y-55049993D01*
X100734361Y-55334951D01*
X100734364Y-55334961D01*
X100847254Y-55607500D01*
X100847258Y-55607510D01*
X100994761Y-55862993D01*
X101174352Y-56097040D01*
X101174358Y-56097047D01*
X101382952Y-56305641D01*
X101382959Y-56305647D01*
X101617006Y-56485238D01*
X101872489Y-56632741D01*
X101872490Y-56632741D01*
X101872493Y-56632743D01*
X102145048Y-56745639D01*
X102430007Y-56821993D01*
X102722494Y-56860500D01*
X102722501Y-56860500D01*
X103017499Y-56860500D01*
X103017506Y-56860500D01*
X103309993Y-56821993D01*
X103594952Y-56745639D01*
X103867507Y-56632743D01*
X104122994Y-56485238D01*
X104357042Y-56305646D01*
X104565646Y-56097042D01*
X104745238Y-55862994D01*
X104892743Y-55607507D01*
X105005639Y-55334952D01*
X105081993Y-55049993D01*
X105120500Y-54757506D01*
X105120500Y-54462494D01*
X105081993Y-54170007D01*
X105005639Y-53885048D01*
X104892743Y-53612493D01*
X104880742Y-53591707D01*
X104745238Y-53357006D01*
X104565647Y-53122959D01*
X104565641Y-53122952D01*
X104357047Y-52914358D01*
X104357042Y-52914354D01*
X104198728Y-52792875D01*
X104157527Y-52736448D01*
X104153372Y-52666702D01*
X104187584Y-52605781D01*
X104249302Y-52573029D01*
X104274216Y-52570500D01*
X144137784Y-52570500D01*
X144204823Y-52590185D01*
X144250578Y-52642989D01*
X144260522Y-52712147D01*
X144231497Y-52775703D01*
X144213271Y-52792876D01*
X144054952Y-52914358D01*
X143846358Y-53122952D01*
X143846352Y-53122959D01*
X143666761Y-53357006D01*
X143519258Y-53612489D01*
X143519254Y-53612499D01*
X143406364Y-53885038D01*
X143406361Y-53885048D01*
X143330008Y-54170004D01*
X143330006Y-54170015D01*
X143291500Y-54462486D01*
X143291500Y-54577293D01*
X143271815Y-54644332D01*
X143219011Y-54690087D01*
X143149853Y-54700031D01*
X143114591Y-54687828D01*
X143114299Y-54688535D01*
X143106789Y-54685424D01*
X143094263Y-54682067D01*
X142954057Y-54644499D01*
X142795943Y-54644499D01*
X142788347Y-54644499D01*
X142788331Y-54644500D01*
X138516670Y-54644500D01*
X138516654Y-54644499D01*
X138509058Y-54644499D01*
X138350943Y-54644499D01*
X138274579Y-54664961D01*
X138198214Y-54685423D01*
X138198209Y-54685426D01*
X138061290Y-54764475D01*
X138061282Y-54764481D01*
X137314480Y-55511283D01*
X137307075Y-55524109D01*
X137301654Y-55533500D01*
X137235423Y-55648215D01*
X137194499Y-55800943D01*
X137194499Y-55800945D01*
X137194499Y-55969046D01*
X137194500Y-55969059D01*
X137194500Y-56425500D01*
X137191949Y-56434185D01*
X137193238Y-56443147D01*
X137182259Y-56467187D01*
X137174815Y-56492539D01*
X137167974Y-56498466D01*
X137164213Y-56506703D01*
X137141978Y-56520992D01*
X137122011Y-56538294D01*
X137111496Y-56540581D01*
X137105435Y-56544477D01*
X137070500Y-56549500D01*
X137054301Y-56549500D01*
X136987262Y-56529815D01*
X136941507Y-56477011D01*
X136936595Y-56464504D01*
X136926548Y-56434185D01*
X136908814Y-56380666D01*
X136816712Y-56231344D01*
X136692656Y-56107288D01*
X136594496Y-56046743D01*
X136543336Y-56015187D01*
X136543331Y-56015185D01*
X136532524Y-56011604D01*
X136376797Y-55960001D01*
X136376795Y-55960000D01*
X136274010Y-55949500D01*
X135473998Y-55949500D01*
X135473980Y-55949501D01*
X135371203Y-55960000D01*
X135371200Y-55960001D01*
X135204668Y-56015185D01*
X135204663Y-56015187D01*
X135055345Y-56107287D01*
X134961327Y-56201305D01*
X134900003Y-56234789D01*
X134830312Y-56229805D01*
X134785965Y-56201304D01*
X134692345Y-56107684D01*
X134543124Y-56015643D01*
X134543119Y-56015641D01*
X134376697Y-55960494D01*
X134376690Y-55960493D01*
X134273986Y-55950000D01*
X134124000Y-55950000D01*
X134124000Y-58349999D01*
X134273972Y-58349999D01*
X134273986Y-58349998D01*
X134376697Y-58339505D01*
X134543119Y-58284358D01*
X134543124Y-58284356D01*
X134692342Y-58192317D01*
X134785964Y-58098695D01*
X134847287Y-58065210D01*
X134916979Y-58070194D01*
X134961327Y-58098695D01*
X135055344Y-58192712D01*
X135204666Y-58284814D01*
X135371203Y-58339999D01*
X135473991Y-58350500D01*
X136274008Y-58350499D01*
X136274016Y-58350498D01*
X136274019Y-58350498D01*
X136330302Y-58344748D01*
X136376797Y-58339999D01*
X136543334Y-58284814D01*
X136692656Y-58192712D01*
X136816712Y-58068656D01*
X136908814Y-57919334D01*
X136936595Y-57835495D01*
X136950465Y-57815463D01*
X136960588Y-57793297D01*
X136970000Y-57787248D01*
X136976368Y-57778051D01*
X136998866Y-57768697D01*
X137019366Y-57755523D01*
X137036467Y-57753064D01*
X137040884Y-57751228D01*
X137054301Y-57750500D01*
X137070500Y-57750500D01*
X137137539Y-57770185D01*
X137183294Y-57822989D01*
X137194500Y-57874500D01*
X137194500Y-60024902D01*
X137174815Y-60091941D01*
X137158185Y-60112578D01*
X137107635Y-60163129D01*
X137085049Y-60185715D01*
X137023725Y-60219199D01*
X136954034Y-60214214D01*
X136898100Y-60172343D01*
X136891829Y-60163129D01*
X136829528Y-60062123D01*
X136816712Y-60041344D01*
X136692656Y-59917288D01*
X136543334Y-59825186D01*
X136376797Y-59770001D01*
X136376795Y-59770000D01*
X136274010Y-59759500D01*
X135473998Y-59759500D01*
X135473980Y-59759501D01*
X135371203Y-59770000D01*
X135371200Y-59770001D01*
X135204668Y-59825185D01*
X135204663Y-59825187D01*
X135055342Y-59917289D01*
X134961681Y-60010951D01*
X134900358Y-60044436D01*
X134830666Y-60039452D01*
X134786319Y-60010951D01*
X134692657Y-59917289D01*
X134692656Y-59917288D01*
X134543334Y-59825186D01*
X134376797Y-59770001D01*
X134376795Y-59770000D01*
X134274010Y-59759500D01*
X133473998Y-59759500D01*
X133473980Y-59759501D01*
X133371203Y-59770000D01*
X133371200Y-59770001D01*
X133204668Y-59825185D01*
X133204663Y-59825187D01*
X133055342Y-59917289D01*
X132931289Y-60041342D01*
X132839187Y-60190663D01*
X132839185Y-60190668D01*
X132811405Y-60274504D01*
X132771632Y-60331949D01*
X132707116Y-60358772D01*
X132693699Y-60359500D01*
X132635942Y-60359500D01*
X132483213Y-60400423D01*
X132441480Y-60424519D01*
X132441479Y-60424519D01*
X132346287Y-60479477D01*
X132346282Y-60479481D01*
X132268980Y-60556784D01*
X132234480Y-60591284D01*
X132234478Y-60591286D01*
X131723950Y-61101815D01*
X131232584Y-61593181D01*
X131171261Y-61626666D01*
X131144903Y-61629500D01*
X130196301Y-61629500D01*
X130129262Y-61609815D01*
X130083507Y-61557011D01*
X130078595Y-61544504D01*
X130070335Y-61519576D01*
X130050814Y-61460666D01*
X129958712Y-61311344D01*
X129834656Y-61187288D01*
X129723401Y-61118666D01*
X129685336Y-61095187D01*
X129685331Y-61095185D01*
X129655141Y-61085181D01*
X129518797Y-61040001D01*
X129518795Y-61040000D01*
X129416010Y-61029500D01*
X128615998Y-61029500D01*
X128615980Y-61029501D01*
X128513203Y-61040000D01*
X128513200Y-61040001D01*
X128346668Y-61095185D01*
X128346663Y-61095187D01*
X128197342Y-61187289D01*
X128103681Y-61280951D01*
X128042358Y-61314436D01*
X127972666Y-61309452D01*
X127928319Y-61280951D01*
X127834657Y-61187289D01*
X127834656Y-61187288D01*
X127723401Y-61118666D01*
X127685336Y-61095187D01*
X127685331Y-61095185D01*
X127655141Y-61085181D01*
X127518797Y-61040001D01*
X127518795Y-61040000D01*
X127416010Y-61029500D01*
X126615998Y-61029500D01*
X126615980Y-61029501D01*
X126513203Y-61040000D01*
X126513200Y-61040001D01*
X126346668Y-61095185D01*
X126346663Y-61095187D01*
X126197342Y-61187289D01*
X126073289Y-61311342D01*
X125981187Y-61460663D01*
X125981185Y-61460668D01*
X125953405Y-61544504D01*
X125939534Y-61564536D01*
X125929412Y-61586703D01*
X125919999Y-61592751D01*
X125913632Y-61601949D01*
X125891133Y-61611302D01*
X125870634Y-61624477D01*
X125853532Y-61626935D01*
X125849116Y-61628772D01*
X125835699Y-61629500D01*
X125819500Y-61629500D01*
X125752461Y-61609815D01*
X125706706Y-61557011D01*
X125695500Y-61505500D01*
X125695500Y-58340945D01*
X125695500Y-58340943D01*
X125690280Y-58321459D01*
X125654577Y-58188215D01*
X125619907Y-58128165D01*
X125575520Y-58051284D01*
X125463716Y-57939480D01*
X125463715Y-57939479D01*
X125459385Y-57935149D01*
X125459374Y-57935139D01*
X125174221Y-57649986D01*
X132774001Y-57649986D01*
X132784494Y-57752697D01*
X132839641Y-57919119D01*
X132839643Y-57919124D01*
X132931684Y-58068345D01*
X133055654Y-58192315D01*
X133204875Y-58284356D01*
X133204880Y-58284358D01*
X133371302Y-58339505D01*
X133371309Y-58339506D01*
X133474019Y-58349999D01*
X133623999Y-58349999D01*
X133624000Y-58349998D01*
X133624000Y-57400000D01*
X132774001Y-57400000D01*
X132774001Y-57649986D01*
X125174221Y-57649986D01*
X124312589Y-56788354D01*
X124305520Y-56781285D01*
X124305520Y-56781284D01*
X124193716Y-56669480D01*
X124159998Y-56650013D01*
X132774000Y-56650013D01*
X132774000Y-56900000D01*
X133624000Y-56900000D01*
X133624000Y-55950000D01*
X133474027Y-55950000D01*
X133474012Y-55950001D01*
X133371302Y-55960494D01*
X133204880Y-56015641D01*
X133204875Y-56015643D01*
X133055654Y-56107684D01*
X132931684Y-56231654D01*
X132839643Y-56380875D01*
X132839641Y-56380880D01*
X132784494Y-56547302D01*
X132784493Y-56547309D01*
X132774000Y-56650013D01*
X124159998Y-56650013D01*
X124098520Y-56614519D01*
X124056785Y-56590423D01*
X123904057Y-56549499D01*
X123904054Y-56549499D01*
X123846301Y-56549499D01*
X123779262Y-56529814D01*
X123733507Y-56477010D01*
X123728595Y-56464504D01*
X123718548Y-56434185D01*
X123700814Y-56380666D01*
X123608712Y-56231344D01*
X123484656Y-56107288D01*
X123386496Y-56046743D01*
X123335336Y-56015187D01*
X123335331Y-56015185D01*
X123324524Y-56011604D01*
X123168797Y-55960001D01*
X123168795Y-55960000D01*
X123066010Y-55949500D01*
X122265998Y-55949500D01*
X122265980Y-55949501D01*
X122156468Y-55960689D01*
X122156311Y-55959157D01*
X122149472Y-55961709D01*
X122123446Y-55956048D01*
X122096890Y-55954057D01*
X122088037Y-55948346D01*
X122081199Y-55946859D01*
X122052953Y-55925714D01*
X122052944Y-55925708D01*
X122045225Y-55917989D01*
X122034716Y-55907480D01*
X122034713Y-55907478D01*
X121899590Y-55772355D01*
X121899588Y-55772352D01*
X121780717Y-55653481D01*
X121780716Y-55653480D01*
X121693904Y-55603360D01*
X121693904Y-55603359D01*
X121693900Y-55603358D01*
X121643785Y-55574423D01*
X121491057Y-55533499D01*
X121332943Y-55533499D01*
X121325347Y-55533499D01*
X121325331Y-55533500D01*
X118326500Y-55533500D01*
X118259461Y-55513815D01*
X118213706Y-55461011D01*
X118202500Y-55409500D01*
X118202500Y-54826500D01*
X118222185Y-54759461D01*
X118274989Y-54713706D01*
X118326500Y-54702500D01*
X133532234Y-54702500D01*
X133599273Y-54722185D01*
X133601125Y-54723398D01*
X133732814Y-54811390D01*
X133732827Y-54811397D01*
X133809265Y-54843058D01*
X133878503Y-54871737D01*
X134033153Y-54902499D01*
X134033156Y-54902500D01*
X134033158Y-54902500D01*
X134190844Y-54902500D01*
X134190845Y-54902499D01*
X134345497Y-54871737D01*
X134491179Y-54811394D01*
X134622289Y-54723789D01*
X134733789Y-54612289D01*
X134821394Y-54481179D01*
X134881737Y-54335497D01*
X134912500Y-54180842D01*
X134912500Y-54023158D01*
X134912500Y-54023155D01*
X134912499Y-54023153D01*
X134881738Y-53868510D01*
X134881737Y-53868503D01*
X134865579Y-53829494D01*
X134821397Y-53722827D01*
X134821390Y-53722814D01*
X134733789Y-53591711D01*
X134733786Y-53591707D01*
X134622292Y-53480213D01*
X134622288Y-53480210D01*
X134491185Y-53392609D01*
X134491172Y-53392602D01*
X134345501Y-53332264D01*
X134345489Y-53332261D01*
X134190845Y-53301500D01*
X134190842Y-53301500D01*
X134033158Y-53301500D01*
X134033155Y-53301500D01*
X133878510Y-53332261D01*
X133878498Y-53332264D01*
X133732827Y-53392602D01*
X133732814Y-53392609D01*
X133601125Y-53480602D01*
X133534447Y-53501480D01*
X133532234Y-53501500D01*
X118664097Y-53501500D01*
X118597058Y-53481815D01*
X118576416Y-53465181D01*
X118343590Y-53232355D01*
X118343588Y-53232352D01*
X118224717Y-53113481D01*
X118224716Y-53113480D01*
X118137904Y-53063360D01*
X118137904Y-53063359D01*
X118137900Y-53063358D01*
X118087785Y-53034423D01*
X117935057Y-52993499D01*
X117776943Y-52993499D01*
X117769347Y-52993499D01*
X117769331Y-52993500D01*
X108290669Y-52993500D01*
X108290653Y-52993499D01*
X108283057Y-52993499D01*
X108124943Y-52993499D01*
X108017587Y-53022265D01*
X107972210Y-53034424D01*
X107972209Y-53034425D01*
X107922096Y-53063359D01*
X107922095Y-53063360D01*
X107878689Y-53088420D01*
X107835285Y-53113479D01*
X107835282Y-53113481D01*
X106707481Y-54241282D01*
X106707480Y-54241284D01*
X106671027Y-54304423D01*
X106628423Y-54378215D01*
X106587499Y-54530943D01*
X106587499Y-54530945D01*
X106587499Y-54699046D01*
X106587500Y-54699059D01*
X106587500Y-56595903D01*
X106567815Y-56662942D01*
X106551181Y-56683584D01*
X105451584Y-57783181D01*
X105390261Y-57816666D01*
X105363903Y-57819500D01*
X103074499Y-57819500D01*
X103007460Y-57799815D01*
X102961705Y-57747011D01*
X102950499Y-57695500D01*
X102950499Y-57522129D01*
X102950498Y-57522123D01*
X102950497Y-57522116D01*
X102944091Y-57462517D01*
X102926847Y-57416284D01*
X102893797Y-57327671D01*
X102893793Y-57327664D01*
X102807547Y-57212455D01*
X102807544Y-57212452D01*
X102692335Y-57126206D01*
X102692328Y-57126202D01*
X102611380Y-57096011D01*
X102611378Y-57096010D01*
X102557483Y-57075909D01*
X102497873Y-57069500D01*
X102410009Y-57069500D01*
X100702129Y-57069500D01*
X100702123Y-57069501D01*
X100642516Y-57075908D01*
X100507671Y-57126202D01*
X100507664Y-57126206D01*
X100392455Y-57212452D01*
X100392452Y-57212455D01*
X100306206Y-57327664D01*
X100306202Y-57327671D01*
X100255908Y-57462517D01*
X100249501Y-57522116D01*
X100249501Y-57522123D01*
X100249500Y-57522135D01*
X100249500Y-59317870D01*
X100249501Y-59317876D01*
X100255908Y-59377483D01*
X100306202Y-59512328D01*
X100306206Y-59512335D01*
X100392452Y-59627544D01*
X100392455Y-59627547D01*
X100507664Y-59713793D01*
X100507671Y-59713797D01*
X100639082Y-59762810D01*
X100695016Y-59804681D01*
X100719433Y-59870145D01*
X100704582Y-59938418D01*
X100683431Y-59966673D01*
X100569889Y-60080215D01*
X100444951Y-60252179D01*
X100348444Y-60441585D01*
X100282753Y-60643760D01*
X100249500Y-60853713D01*
X100249500Y-61066286D01*
X100278727Y-61250821D01*
X100282754Y-61276243D01*
X100336130Y-61440518D01*
X100348444Y-61478414D01*
X100444951Y-61667820D01*
X100569890Y-61839786D01*
X100720213Y-61990109D01*
X100892182Y-62115050D01*
X100900946Y-62119516D01*
X100951742Y-62167491D01*
X100968536Y-62235312D01*
X100945998Y-62301447D01*
X100900946Y-62340484D01*
X100892182Y-62344949D01*
X100720213Y-62469890D01*
X100569890Y-62620213D01*
X100444951Y-62792179D01*
X100348444Y-62981585D01*
X100282753Y-63183760D01*
X100254077Y-63364814D01*
X100249500Y-63393713D01*
X100249500Y-63606287D01*
X100282754Y-63816243D01*
X100311013Y-63903216D01*
X100348444Y-64018414D01*
X100444951Y-64207820D01*
X100569890Y-64379786D01*
X100720213Y-64530109D01*
X100892182Y-64655050D01*
X100900946Y-64659516D01*
X100951742Y-64707491D01*
X100968536Y-64775312D01*
X100945998Y-64841447D01*
X100900946Y-64880484D01*
X100892182Y-64884949D01*
X100720213Y-65009890D01*
X100569890Y-65160213D01*
X100444951Y-65332179D01*
X100348444Y-65521585D01*
X100282753Y-65723760D01*
X100272137Y-65790790D01*
X100249500Y-65933713D01*
X100249500Y-66146287D01*
X100282754Y-66356243D01*
X100311013Y-66443216D01*
X100348444Y-66558414D01*
X100444951Y-66747820D01*
X100569890Y-66919786D01*
X100720213Y-67070109D01*
X100892179Y-67195048D01*
X100892181Y-67195049D01*
X100892184Y-67195051D01*
X100901493Y-67199794D01*
X100952290Y-67247766D01*
X100969087Y-67315587D01*
X100946552Y-67381722D01*
X100901505Y-67420760D01*
X100892446Y-67425376D01*
X100892440Y-67425380D01*
X100838282Y-67464727D01*
X100838282Y-67464728D01*
X101470591Y-68097037D01*
X101407007Y-68114075D01*
X101292993Y-68179901D01*
X101199901Y-68272993D01*
X101134075Y-68387007D01*
X101117037Y-68450591D01*
X100484728Y-67818282D01*
X100484727Y-67818282D01*
X100445380Y-67872439D01*
X100348904Y-68061782D01*
X100283242Y-68263869D01*
X100283242Y-68263872D01*
X100250000Y-68473753D01*
X100250000Y-68686246D01*
X100283242Y-68896127D01*
X100283242Y-68896130D01*
X100348904Y-69098217D01*
X100445375Y-69287550D01*
X100484728Y-69341716D01*
X101117037Y-68709408D01*
X101134075Y-68772993D01*
X101199901Y-68887007D01*
X101292993Y-68980099D01*
X101407007Y-69045925D01*
X101470590Y-69062962D01*
X100838282Y-69695269D01*
X100838282Y-69695270D01*
X100892452Y-69734626D01*
X100892451Y-69734626D01*
X100901495Y-69739234D01*
X100952292Y-69787208D01*
X100969087Y-69855029D01*
X100946550Y-69921164D01*
X100901499Y-69960202D01*
X100892182Y-69964949D01*
X100720213Y-70089890D01*
X100569890Y-70240213D01*
X100444951Y-70412179D01*
X100348444Y-70601585D01*
X100282753Y-70803760D01*
X100249756Y-71012096D01*
X100249500Y-71013713D01*
X100249500Y-71226287D01*
X100258848Y-71285306D01*
X100281227Y-71426606D01*
X100282754Y-71436243D01*
X100344316Y-71625711D01*
X100348444Y-71638414D01*
X100444951Y-71827820D01*
X100569890Y-71999786D01*
X100720213Y-72150109D01*
X100892179Y-72275048D01*
X100892181Y-72275049D01*
X100892184Y-72275051D01*
X101081588Y-72371557D01*
X101283757Y-72437246D01*
X101493713Y-72470500D01*
X101493714Y-72470500D01*
X101706286Y-72470500D01*
X101706287Y-72470500D01*
X101916243Y-72437246D01*
X102118412Y-72371557D01*
X102307816Y-72275051D01*
X102384776Y-72219137D01*
X102479786Y-72150109D01*
X102479788Y-72150106D01*
X102479792Y-72150104D01*
X102630104Y-71999792D01*
X102630106Y-71999788D01*
X102630109Y-71999786D01*
X102688661Y-71919193D01*
X102755051Y-71827816D01*
X102766771Y-71804815D01*
X102775235Y-71788205D01*
X102823209Y-71737409D01*
X102885719Y-71720500D01*
X103839903Y-71720500D01*
X103906942Y-71740185D01*
X103927584Y-71756819D01*
X106199478Y-74028713D01*
X106199480Y-74028716D01*
X106311284Y-74140520D01*
X106311286Y-74140521D01*
X108100139Y-75929374D01*
X108100149Y-75929385D01*
X108104479Y-75933715D01*
X108104480Y-75933716D01*
X108216284Y-76045520D01*
X108303095Y-76095639D01*
X108303097Y-76095641D01*
X108341151Y-76117611D01*
X108353215Y-76124577D01*
X108505943Y-76165501D01*
X108505946Y-76165501D01*
X108671653Y-76165501D01*
X108671669Y-76165500D01*
X123103331Y-76165500D01*
X123103347Y-76165501D01*
X123110943Y-76165501D01*
X123269054Y-76165501D01*
X123269057Y-76165501D01*
X123421785Y-76124577D01*
X123471904Y-76095639D01*
X123558716Y-76045520D01*
X123670520Y-75933716D01*
X123670520Y-75933714D01*
X123680728Y-75923507D01*
X123680730Y-75923504D01*
X124342213Y-75262021D01*
X124342216Y-75262020D01*
X124454020Y-75150216D01*
X124454119Y-75150044D01*
X124459990Y-75144170D01*
X124483732Y-75131197D01*
X124505555Y-75115207D01*
X124508693Y-75114121D01*
X124630329Y-75073816D01*
X124630330Y-75073815D01*
X124630334Y-75073814D01*
X124779656Y-74981712D01*
X124903712Y-74857656D01*
X124995814Y-74708334D01*
X124995814Y-74708332D01*
X124999605Y-74702187D01*
X125001932Y-74703622D01*
X125005058Y-74700073D01*
X125012263Y-74684297D01*
X125027668Y-74674396D01*
X125039771Y-74660653D01*
X125056654Y-74655768D01*
X125071041Y-74646523D01*
X125105976Y-74641500D01*
X125182692Y-74641500D01*
X125249731Y-74661185D01*
X125270374Y-74677820D01*
X125301629Y-74709076D01*
X125301633Y-74709079D01*
X125301635Y-74709081D01*
X125443102Y-74792744D01*
X125484724Y-74804836D01*
X125600926Y-74838597D01*
X125600929Y-74838597D01*
X125600931Y-74838598D01*
X125637806Y-74841500D01*
X125637814Y-74841500D01*
X127169186Y-74841500D01*
X127169194Y-74841500D01*
X127206069Y-74838598D01*
X127206071Y-74838597D01*
X127206073Y-74838597D01*
X127247691Y-74826505D01*
X127363898Y-74792744D01*
X127505365Y-74709081D01*
X127621581Y-74592865D01*
X127705244Y-74451398D01*
X127751098Y-74293569D01*
X127754000Y-74256694D01*
X127754000Y-73825306D01*
X127751098Y-73788431D01*
X127736007Y-73736489D01*
X127705245Y-73630606D01*
X127705244Y-73630603D01*
X127705244Y-73630602D01*
X127621581Y-73489135D01*
X127621578Y-73489132D01*
X127616798Y-73482969D01*
X127619250Y-73481066D01*
X127592655Y-73432421D01*
X127597604Y-73362726D01*
X127618440Y-73330304D01*
X127616798Y-73329031D01*
X127621575Y-73322870D01*
X127621581Y-73322865D01*
X127705244Y-73181398D01*
X127751098Y-73023569D01*
X127754000Y-72986694D01*
X127754000Y-72555306D01*
X127751098Y-72518431D01*
X127750153Y-72515179D01*
X127705245Y-72360606D01*
X127705244Y-72360603D01*
X127705244Y-72360602D01*
X127621581Y-72219135D01*
X127621578Y-72219132D01*
X127616798Y-72212969D01*
X127619250Y-72211066D01*
X127592655Y-72162421D01*
X127597604Y-72092726D01*
X127618440Y-72060304D01*
X127616798Y-72059031D01*
X127621575Y-72052870D01*
X127621581Y-72052865D01*
X127705244Y-71911398D01*
X127741482Y-71786666D01*
X127751097Y-71753573D01*
X127751098Y-71753567D01*
X127754000Y-71716694D01*
X127754000Y-71285306D01*
X127751098Y-71248431D01*
X127748763Y-71240395D01*
X127705245Y-71090606D01*
X127705244Y-71090603D01*
X127705244Y-71090602D01*
X127621581Y-70949135D01*
X127621578Y-70949132D01*
X127616798Y-70942969D01*
X127619250Y-70941066D01*
X127592655Y-70892421D01*
X127597604Y-70822726D01*
X127618440Y-70790304D01*
X127616798Y-70789031D01*
X127621575Y-70782870D01*
X127621581Y-70782865D01*
X127705244Y-70641398D01*
X127751098Y-70483569D01*
X127754000Y-70446694D01*
X127754000Y-70015306D01*
X127751098Y-69978431D01*
X127743228Y-69951344D01*
X127708844Y-69832992D01*
X127705244Y-69820602D01*
X127621581Y-69679135D01*
X127621579Y-69679133D01*
X127621576Y-69679129D01*
X127505370Y-69562923D01*
X127505362Y-69562917D01*
X127363896Y-69479255D01*
X127363893Y-69479254D01*
X127206073Y-69433402D01*
X127206067Y-69433401D01*
X127169201Y-69430500D01*
X127169194Y-69430500D01*
X125637806Y-69430500D01*
X125637798Y-69430500D01*
X125600932Y-69433401D01*
X125600926Y-69433402D01*
X125443106Y-69479254D01*
X125443103Y-69479255D01*
X125301637Y-69562917D01*
X125301629Y-69562923D01*
X125270374Y-69594180D01*
X125209052Y-69627666D01*
X125182692Y-69630500D01*
X123871097Y-69630500D01*
X123804058Y-69610815D01*
X123783416Y-69594181D01*
X123326677Y-69137442D01*
X123293192Y-69076119D01*
X123298176Y-69006427D01*
X123340048Y-68950494D01*
X123349243Y-68944234D01*
X123484656Y-68860712D01*
X123608712Y-68736656D01*
X123700814Y-68587334D01*
X123728595Y-68503495D01*
X123742465Y-68483463D01*
X123752588Y-68461297D01*
X123762000Y-68455248D01*
X123768368Y-68446051D01*
X123790866Y-68436697D01*
X123811366Y-68423523D01*
X123828467Y-68421064D01*
X123832884Y-68419228D01*
X123846301Y-68418500D01*
X123865331Y-68418500D01*
X123865347Y-68418501D01*
X123872943Y-68418501D01*
X124031054Y-68418501D01*
X124031057Y-68418501D01*
X124183785Y-68377577D01*
X124233904Y-68348639D01*
X124320716Y-68298520D01*
X124432520Y-68186716D01*
X124432520Y-68186714D01*
X124442728Y-68176507D01*
X124442730Y-68176504D01*
X125453506Y-67165728D01*
X125453511Y-67165724D01*
X125463714Y-67155520D01*
X125463716Y-67155520D01*
X125575520Y-67043716D01*
X125647067Y-66919792D01*
X125647069Y-66919789D01*
X125654575Y-66906789D01*
X125654576Y-66906786D01*
X125654577Y-66906785D01*
X125695500Y-66754057D01*
X125695500Y-66595943D01*
X125695500Y-62954500D01*
X125698050Y-62945814D01*
X125696762Y-62936853D01*
X125707740Y-62912812D01*
X125715185Y-62887461D01*
X125722025Y-62881533D01*
X125725787Y-62873297D01*
X125748021Y-62859007D01*
X125767989Y-62841706D01*
X125778503Y-62839418D01*
X125784565Y-62835523D01*
X125819500Y-62830500D01*
X125835699Y-62830500D01*
X125902738Y-62850185D01*
X125948493Y-62902989D01*
X125953403Y-62915492D01*
X125981186Y-62999334D01*
X126073288Y-63148656D01*
X126197344Y-63272712D01*
X126346666Y-63364814D01*
X126513203Y-63419999D01*
X126615991Y-63430500D01*
X127416008Y-63430499D01*
X127416016Y-63430498D01*
X127416019Y-63430498D01*
X127472302Y-63424748D01*
X127518797Y-63419999D01*
X127685334Y-63364814D01*
X127834656Y-63272712D01*
X127928319Y-63179049D01*
X127989642Y-63145564D01*
X128059334Y-63150548D01*
X128103681Y-63179049D01*
X128197344Y-63272712D01*
X128346666Y-63364814D01*
X128513203Y-63419999D01*
X128615991Y-63430500D01*
X129416008Y-63430499D01*
X129416016Y-63430498D01*
X129416019Y-63430498D01*
X129472302Y-63424748D01*
X129518797Y-63419999D01*
X129685334Y-63364814D01*
X129834656Y-63272712D01*
X129958712Y-63148656D01*
X130050814Y-62999334D01*
X130078595Y-62915495D01*
X130118368Y-62858051D01*
X130182884Y-62831228D01*
X130196301Y-62830500D01*
X131144903Y-62830500D01*
X131211942Y-62850185D01*
X131232584Y-62866819D01*
X132230139Y-63864374D01*
X132230149Y-63864385D01*
X132234479Y-63868715D01*
X132234480Y-63868716D01*
X132346284Y-63980520D01*
X132411917Y-64018412D01*
X132433095Y-64030639D01*
X132433097Y-64030641D01*
X132483213Y-64059576D01*
X132483215Y-64059577D01*
X132635942Y-64100500D01*
X132635943Y-64100500D01*
X132693699Y-64100500D01*
X132760738Y-64120185D01*
X132806493Y-64172989D01*
X132811403Y-64185492D01*
X132839186Y-64269334D01*
X132931288Y-64418656D01*
X133055344Y-64542712D01*
X133204666Y-64634814D01*
X133371203Y-64689999D01*
X133473991Y-64700500D01*
X134274008Y-64700499D01*
X134274016Y-64700498D01*
X134274019Y-64700498D01*
X134330302Y-64694748D01*
X134376797Y-64689999D01*
X134543334Y-64634814D01*
X134692656Y-64542712D01*
X134786319Y-64449049D01*
X134847642Y-64415564D01*
X134917334Y-64420548D01*
X134961681Y-64449049D01*
X135055344Y-64542712D01*
X135204666Y-64634814D01*
X135371203Y-64689999D01*
X135473991Y-64700500D01*
X136274008Y-64700499D01*
X136274016Y-64700498D01*
X136274019Y-64700498D01*
X136330302Y-64694748D01*
X136376797Y-64689999D01*
X136543334Y-64634814D01*
X136692656Y-64542712D01*
X136816712Y-64418656D01*
X136891832Y-64296866D01*
X136909120Y-64281315D01*
X136923058Y-64262698D01*
X136934608Y-64258389D01*
X136943776Y-64250144D01*
X136966733Y-64246407D01*
X136988522Y-64238281D01*
X137000568Y-64240901D01*
X137012738Y-64238921D01*
X137034070Y-64248189D01*
X137056795Y-64253133D01*
X137072489Y-64264882D01*
X137076821Y-64266764D01*
X137085049Y-64274284D01*
X137158181Y-64347416D01*
X137191666Y-64408739D01*
X137194500Y-64435097D01*
X137194500Y-67093500D01*
X137174815Y-67160539D01*
X137122011Y-67206294D01*
X137070500Y-67217500D01*
X137054301Y-67217500D01*
X136987262Y-67197815D01*
X136941507Y-67145011D01*
X136936595Y-67132504D01*
X136908814Y-67048666D01*
X136816712Y-66899344D01*
X136692656Y-66775288D01*
X136548482Y-66686361D01*
X136501759Y-66634414D01*
X136492653Y-66603779D01*
X136492604Y-66603793D01*
X136492115Y-66601971D01*
X136490640Y-66597006D01*
X136490501Y-66595954D01*
X136490501Y-66595943D01*
X136449577Y-66443216D01*
X136441375Y-66429010D01*
X136370524Y-66306290D01*
X136370521Y-66306286D01*
X136370520Y-66306284D01*
X135742589Y-65678354D01*
X135742588Y-65678352D01*
X135623717Y-65559481D01*
X135623716Y-65559480D01*
X135536904Y-65509360D01*
X135536904Y-65509359D01*
X135536900Y-65509358D01*
X135486785Y-65480423D01*
X135334057Y-65439499D01*
X135175943Y-65439499D01*
X135168347Y-65439499D01*
X135168331Y-65439500D01*
X130261670Y-65439500D01*
X130261654Y-65439499D01*
X130254058Y-65439499D01*
X130095943Y-65439499D01*
X130019579Y-65459961D01*
X129943214Y-65480423D01*
X129943209Y-65480426D01*
X129806290Y-65559475D01*
X129806282Y-65559481D01*
X129059481Y-66306282D01*
X129059479Y-66306285D01*
X129009361Y-66393094D01*
X129009359Y-66393096D01*
X128980425Y-66443209D01*
X128980424Y-66443210D01*
X128967624Y-66490982D01*
X128939499Y-66595943D01*
X128939499Y-66595945D01*
X128939499Y-66764046D01*
X128939500Y-66764059D01*
X128939500Y-72303330D01*
X128939499Y-72303348D01*
X128939499Y-72469054D01*
X128939498Y-72469054D01*
X128962610Y-72555306D01*
X128980423Y-72621785D01*
X128994571Y-72646289D01*
X129037843Y-72721240D01*
X129059479Y-72758715D01*
X129178349Y-72877585D01*
X129178355Y-72877590D01*
X129436139Y-73135374D01*
X129436149Y-73135385D01*
X129440479Y-73139715D01*
X129440480Y-73139716D01*
X129552284Y-73251520D01*
X129552286Y-73251521D01*
X129552290Y-73251524D01*
X129675853Y-73322862D01*
X129689216Y-73330577D01*
X129778211Y-73354423D01*
X129841942Y-73371500D01*
X129841943Y-73371500D01*
X130337593Y-73371500D01*
X130404632Y-73391185D01*
X130450387Y-73443989D01*
X130460331Y-73513147D01*
X130444325Y-73558620D01*
X130401757Y-73630599D01*
X130401754Y-73630606D01*
X130355902Y-73788426D01*
X130355901Y-73788432D01*
X130353000Y-73825298D01*
X130353000Y-74256701D01*
X130355901Y-74293567D01*
X130355902Y-74293573D01*
X130401754Y-74451393D01*
X130401755Y-74451396D01*
X130401756Y-74451398D01*
X130424589Y-74490007D01*
X130485417Y-74592862D01*
X130485423Y-74592870D01*
X130601629Y-74709076D01*
X130601633Y-74709079D01*
X130601635Y-74709081D01*
X130743102Y-74792744D01*
X130784724Y-74804836D01*
X130900926Y-74838597D01*
X130900929Y-74838597D01*
X130900931Y-74838598D01*
X130937806Y-74841500D01*
X130937814Y-74841500D01*
X132469186Y-74841500D01*
X132469194Y-74841500D01*
X132506069Y-74838598D01*
X132506071Y-74838597D01*
X132506073Y-74838597D01*
X132547691Y-74826505D01*
X132663898Y-74792744D01*
X132805365Y-74709081D01*
X132836626Y-74677820D01*
X132897948Y-74644334D01*
X132924308Y-74641500D01*
X141137331Y-74641500D01*
X141137347Y-74641501D01*
X141144943Y-74641501D01*
X141303054Y-74641501D01*
X141303057Y-74641501D01*
X141455785Y-74600577D01*
X141505904Y-74571639D01*
X141592716Y-74521520D01*
X141704520Y-74409716D01*
X141704520Y-74409714D01*
X141714728Y-74399507D01*
X141714729Y-74399504D01*
X143087417Y-73026819D01*
X143148740Y-72993334D01*
X143175098Y-72990500D01*
X144007462Y-72990500D01*
X144074501Y-73010185D01*
X144120256Y-73062989D01*
X144130200Y-73132147D01*
X144101175Y-73195703D01*
X144082948Y-73212876D01*
X144054959Y-73234352D01*
X144054952Y-73234358D01*
X143846358Y-73442952D01*
X143846352Y-73442959D01*
X143666761Y-73677006D01*
X143519258Y-73932489D01*
X143519254Y-73932499D01*
X143406364Y-74205038D01*
X143406361Y-74205048D01*
X143330008Y-74490004D01*
X143330006Y-74490015D01*
X143291500Y-74782486D01*
X143291500Y-75077513D01*
X143323571Y-75321113D01*
X143330007Y-75369993D01*
X143330008Y-75369995D01*
X143406361Y-75654951D01*
X143406364Y-75654961D01*
X143519254Y-75927500D01*
X143519258Y-75927510D01*
X143666761Y-76182993D01*
X143846352Y-76417040D01*
X143846358Y-76417047D01*
X144054952Y-76625641D01*
X144054956Y-76625644D01*
X144054958Y-76625646D01*
X144213271Y-76747124D01*
X144254473Y-76803552D01*
X144258628Y-76873298D01*
X144224416Y-76934219D01*
X144162698Y-76966971D01*
X144137784Y-76969500D01*
X104274216Y-76969500D01*
X104207177Y-76949815D01*
X104161422Y-76897011D01*
X104151478Y-76827853D01*
X104180503Y-76764297D01*
X104198729Y-76747124D01*
X104357042Y-76625646D01*
X104565646Y-76417042D01*
X104745238Y-76182994D01*
X104892743Y-75927507D01*
X105005639Y-75654952D01*
X105081993Y-75369993D01*
X105120500Y-75077506D01*
X105120500Y-74782494D01*
X105081993Y-74490007D01*
X105005639Y-74205048D01*
X104892743Y-73932493D01*
X104745238Y-73677006D01*
X104596348Y-73482969D01*
X104565647Y-73442959D01*
X104565641Y-73442952D01*
X104357047Y-73234358D01*
X104357040Y-73234352D01*
X104122993Y-73054761D01*
X103927169Y-72941703D01*
X103867507Y-72907257D01*
X103863840Y-72905738D01*
X103594961Y-72794364D01*
X103594954Y-72794362D01*
X103594952Y-72794361D01*
X103309993Y-72718007D01*
X103261113Y-72711571D01*
X103017513Y-72679500D01*
X103017506Y-72679500D01*
X102722494Y-72679500D01*
X102722486Y-72679500D01*
X102444085Y-72716153D01*
X102430007Y-72718007D01*
X102287524Y-72756185D01*
X102145048Y-72794361D01*
X102145038Y-72794364D01*
X101872499Y-72907254D01*
X101872495Y-72907256D01*
X101617006Y-73054761D01*
X101382959Y-73234352D01*
X101382952Y-73234358D01*
X101174358Y-73442952D01*
X101174352Y-73442959D01*
X100994761Y-73677006D01*
X100847258Y-73932489D01*
X100847254Y-73932499D01*
X100734364Y-74205038D01*
X100734361Y-74205048D01*
X100658008Y-74490004D01*
X100658006Y-74490015D01*
X100619500Y-74782486D01*
X100619500Y-75077513D01*
X100651571Y-75321113D01*
X100658007Y-75369993D01*
X100658008Y-75369995D01*
X100734361Y-75654951D01*
X100734364Y-75654961D01*
X100847254Y-75927500D01*
X100847258Y-75927510D01*
X100994761Y-76182993D01*
X101174352Y-76417040D01*
X101174358Y-76417047D01*
X101382952Y-76625641D01*
X101382956Y-76625644D01*
X101382958Y-76625646D01*
X101541271Y-76747124D01*
X101582473Y-76803552D01*
X101586628Y-76873298D01*
X101552416Y-76934219D01*
X101490698Y-76966971D01*
X101465784Y-76969500D01*
X100969875Y-76969500D01*
X100960146Y-76969118D01*
X100755015Y-76952973D01*
X100735797Y-76949929D01*
X100540475Y-76903037D01*
X100521972Y-76897025D01*
X100420552Y-76855015D01*
X100336384Y-76820151D01*
X100319049Y-76811318D01*
X100147778Y-76706364D01*
X100132035Y-76694926D01*
X99979289Y-76564468D01*
X99965531Y-76550710D01*
X99922571Y-76500410D01*
X99835071Y-76397961D01*
X99823639Y-76382226D01*
X99718680Y-76210949D01*
X99709848Y-76193615D01*
X99681251Y-76124576D01*
X99632971Y-76008019D01*
X99626964Y-75989531D01*
X99580069Y-75794197D01*
X99577026Y-75774984D01*
X99560882Y-75569853D01*
X99560500Y-75560124D01*
X99560500Y-53979875D01*
X99560882Y-53970146D01*
X99568881Y-53868510D01*
X99577026Y-53765009D01*
X99580068Y-53745803D01*
X99626965Y-53550464D01*
X99632969Y-53531983D01*
X99709851Y-53346377D01*
X99718677Y-53329055D01*
X99823643Y-53157766D01*
X99835066Y-53142043D01*
X99965535Y-52989284D01*
X99979284Y-52975535D01*
X100132043Y-52845066D01*
X100147766Y-52833643D01*
X100319055Y-52728677D01*
X100336377Y-52719851D01*
X100521983Y-52642969D01*
X100540464Y-52636965D01*
X100735803Y-52590068D01*
X100755009Y-52587026D01*
X100960146Y-52570881D01*
X100969875Y-52570500D01*
X101030892Y-52570500D01*
X101465784Y-52570500D01*
X101532823Y-52590185D01*
G37*
%TD.AperFunction*%
%TA.AperFunction,Conductor*%
G36*
X115634834Y-64494048D02*
G01*
X115690767Y-64535920D01*
X115715184Y-64601384D01*
X115715500Y-64610230D01*
X115715500Y-66572091D01*
X115695815Y-66639130D01*
X115651731Y-66677641D01*
X115652813Y-66679395D01*
X115646667Y-66683185D01*
X115646666Y-66683186D01*
X115598346Y-66712990D01*
X115497345Y-66775287D01*
X115403327Y-66869305D01*
X115342003Y-66902789D01*
X115272312Y-66897805D01*
X115227965Y-66869304D01*
X115134345Y-66775684D01*
X114985124Y-66683643D01*
X114985119Y-66683641D01*
X114818697Y-66628494D01*
X114818690Y-66628493D01*
X114715986Y-66618000D01*
X114566000Y-66618000D01*
X114566000Y-69017999D01*
X114715972Y-69017999D01*
X114715986Y-69017998D01*
X114818697Y-69007505D01*
X114985119Y-68952358D01*
X114985124Y-68952356D01*
X115134342Y-68860317D01*
X115227964Y-68766695D01*
X115289287Y-68733210D01*
X115358979Y-68738194D01*
X115403327Y-68766695D01*
X115497344Y-68860712D01*
X115646666Y-68952814D01*
X115813203Y-69007999D01*
X115915991Y-69018500D01*
X116716008Y-69018499D01*
X116716016Y-69018498D01*
X116716019Y-69018498D01*
X116772302Y-69012748D01*
X116818797Y-69007999D01*
X116985334Y-68952814D01*
X117134656Y-68860712D01*
X117258712Y-68736656D01*
X117350814Y-68587334D01*
X117378595Y-68503495D01*
X117418368Y-68446051D01*
X117482884Y-68419228D01*
X117496301Y-68418500D01*
X119485699Y-68418500D01*
X119552738Y-68438185D01*
X119598493Y-68490989D01*
X119603403Y-68503492D01*
X119631186Y-68587334D01*
X119723288Y-68736656D01*
X119847344Y-68860712D01*
X119996666Y-68952814D01*
X119996667Y-68952814D01*
X120002813Y-68956605D01*
X120001706Y-68958399D01*
X120046337Y-68997687D01*
X120065500Y-69063908D01*
X120065500Y-70456901D01*
X120061275Y-70488993D01*
X120049499Y-70532941D01*
X120049499Y-70691054D01*
X120049498Y-70691054D01*
X120067531Y-70758352D01*
X120090423Y-70843785D01*
X120169481Y-70980716D01*
X120169483Y-70980718D01*
X120512584Y-71323819D01*
X120546069Y-71385142D01*
X120541085Y-71454834D01*
X120499213Y-71510767D01*
X120433749Y-71535184D01*
X120424903Y-71535500D01*
X119451766Y-71535500D01*
X119384727Y-71515815D01*
X119382875Y-71514602D01*
X119251185Y-71426609D01*
X119251172Y-71426602D01*
X119105501Y-71366264D01*
X119105489Y-71366261D01*
X118950845Y-71335500D01*
X118950842Y-71335500D01*
X118793158Y-71335500D01*
X118793155Y-71335500D01*
X118638510Y-71366261D01*
X118638498Y-71366264D01*
X118492827Y-71426602D01*
X118492814Y-71426609D01*
X118361711Y-71514210D01*
X118361707Y-71514213D01*
X118250213Y-71625707D01*
X118250210Y-71625711D01*
X118162609Y-71756814D01*
X118162602Y-71756827D01*
X118102264Y-71902498D01*
X118102261Y-71902510D01*
X118071500Y-72057153D01*
X118071500Y-72214846D01*
X118102261Y-72369489D01*
X118102264Y-72369501D01*
X118162602Y-72515172D01*
X118162609Y-72515185D01*
X118250210Y-72646288D01*
X118250212Y-72646291D01*
X118361707Y-72757786D01*
X118361711Y-72757789D01*
X118492814Y-72845390D01*
X118492827Y-72845397D01*
X118571894Y-72878147D01*
X118638503Y-72905737D01*
X118793153Y-72936499D01*
X118793156Y-72936500D01*
X118793158Y-72936500D01*
X118950844Y-72936500D01*
X118950845Y-72936499D01*
X119105497Y-72905737D01*
X119251179Y-72845394D01*
X119327551Y-72794364D01*
X119382875Y-72757398D01*
X119449553Y-72736520D01*
X119451766Y-72736500D01*
X120903477Y-72736500D01*
X120970516Y-72756185D01*
X121016271Y-72808989D01*
X121026215Y-72878147D01*
X120997190Y-72941703D01*
X120991158Y-72948181D01*
X120968684Y-72970654D01*
X120876643Y-73119875D01*
X120876641Y-73119880D01*
X120821494Y-73286302D01*
X120821493Y-73286309D01*
X120811000Y-73389013D01*
X120811000Y-73664000D01*
X121774500Y-73664000D01*
X121841539Y-73683685D01*
X121887294Y-73736489D01*
X121898500Y-73788000D01*
X121898500Y-74040000D01*
X121878815Y-74107039D01*
X121826011Y-74152794D01*
X121774500Y-74164000D01*
X120811001Y-74164000D01*
X120811001Y-74438986D01*
X120821494Y-74541697D01*
X120876641Y-74708119D01*
X120876643Y-74708124D01*
X120918142Y-74775403D01*
X120936582Y-74842795D01*
X120915660Y-74909459D01*
X120862018Y-74954229D01*
X120812603Y-74964500D01*
X108885097Y-74964500D01*
X108818058Y-74944815D01*
X108797416Y-74928181D01*
X107316819Y-73447584D01*
X107283334Y-73386261D01*
X107280500Y-73359903D01*
X107280500Y-71950300D01*
X107300185Y-71883261D01*
X107352989Y-71837506D01*
X107365482Y-71832599D01*
X107449334Y-71804814D01*
X107598656Y-71712712D01*
X107722712Y-71588656D01*
X107814814Y-71439334D01*
X107869999Y-71272797D01*
X107880500Y-71170009D01*
X107880499Y-70369992D01*
X107869999Y-70267203D01*
X107814814Y-70100666D01*
X107722712Y-69951344D01*
X107628695Y-69857327D01*
X107595210Y-69796004D01*
X107600194Y-69726312D01*
X107628695Y-69681964D01*
X107722317Y-69588342D01*
X107814356Y-69439124D01*
X107814358Y-69439119D01*
X107869505Y-69272697D01*
X107869506Y-69272690D01*
X107879999Y-69169986D01*
X107880000Y-69169973D01*
X107880000Y-69020000D01*
X105480001Y-69020000D01*
X105480001Y-69169986D01*
X105490494Y-69272697D01*
X105545641Y-69439119D01*
X105545643Y-69439124D01*
X105637684Y-69588345D01*
X105731304Y-69681965D01*
X105764789Y-69743288D01*
X105759805Y-69812980D01*
X105731305Y-69857327D01*
X105637287Y-69951345D01*
X105545187Y-70100663D01*
X105545185Y-70100668D01*
X105539042Y-70119206D01*
X105490001Y-70267203D01*
X105490001Y-70267204D01*
X105490000Y-70267204D01*
X105479500Y-70369983D01*
X105479500Y-71170001D01*
X105479501Y-71170019D01*
X105490000Y-71272796D01*
X105490001Y-71272799D01*
X105497879Y-71296572D01*
X105500281Y-71366400D01*
X105464549Y-71426442D01*
X105402029Y-71457635D01*
X105332569Y-71450074D01*
X105292492Y-71423257D01*
X104627590Y-70758355D01*
X104627588Y-70758352D01*
X104508717Y-70639481D01*
X104508716Y-70639480D01*
X104421904Y-70589360D01*
X104421904Y-70589359D01*
X104421900Y-70589358D01*
X104371785Y-70560423D01*
X104219057Y-70519499D01*
X104060943Y-70519499D01*
X104053347Y-70519499D01*
X104053331Y-70519500D01*
X102885719Y-70519500D01*
X102818680Y-70499815D01*
X102775235Y-70451795D01*
X102755052Y-70412185D01*
X102755051Y-70412184D01*
X102630109Y-70240213D01*
X102479786Y-70089890D01*
X102307817Y-69964949D01*
X102298504Y-69960204D01*
X102247707Y-69912230D01*
X102230912Y-69844409D01*
X102253449Y-69778274D01*
X102298507Y-69739232D01*
X102307555Y-69734622D01*
X102361716Y-69695270D01*
X102361717Y-69695270D01*
X101729408Y-69062962D01*
X101792993Y-69045925D01*
X101907007Y-68980099D01*
X102000099Y-68887007D01*
X102065925Y-68772993D01*
X102082962Y-68709408D01*
X102715270Y-69341717D01*
X102715270Y-69341716D01*
X102754622Y-69287554D01*
X102851095Y-69098217D01*
X102916757Y-68896130D01*
X102916757Y-68896127D01*
X102950000Y-68686246D01*
X102950000Y-68473752D01*
X102936143Y-68386261D01*
X102933569Y-68370013D01*
X105480000Y-68370013D01*
X105480000Y-68520000D01*
X106430000Y-68520000D01*
X106930000Y-68520000D01*
X107879999Y-68520000D01*
X107879999Y-68370028D01*
X107879998Y-68370013D01*
X107874683Y-68317986D01*
X113216001Y-68317986D01*
X113226494Y-68420697D01*
X113281641Y-68587119D01*
X113281643Y-68587124D01*
X113373684Y-68736345D01*
X113497654Y-68860315D01*
X113646875Y-68952356D01*
X113646880Y-68952358D01*
X113813302Y-69007505D01*
X113813309Y-69007506D01*
X113916019Y-69017999D01*
X114065999Y-69017999D01*
X114066000Y-69017998D01*
X114066000Y-68068000D01*
X113216001Y-68068000D01*
X113216001Y-68317986D01*
X107874683Y-68317986D01*
X107869505Y-68267302D01*
X107814358Y-68100880D01*
X107814356Y-68100875D01*
X107802550Y-68081735D01*
X107722315Y-67951654D01*
X107598345Y-67827684D01*
X107449124Y-67735643D01*
X107449119Y-67735641D01*
X107282697Y-67680494D01*
X107282690Y-67680493D01*
X107179986Y-67670000D01*
X106930000Y-67670000D01*
X106930000Y-68520000D01*
X106430000Y-68520000D01*
X106430000Y-67670000D01*
X106180029Y-67670000D01*
X106180012Y-67670001D01*
X106077302Y-67680494D01*
X105910880Y-67735641D01*
X105910875Y-67735643D01*
X105761654Y-67827684D01*
X105637684Y-67951654D01*
X105545643Y-68100875D01*
X105545641Y-68100880D01*
X105490494Y-68267302D01*
X105490493Y-68267309D01*
X105480000Y-68370013D01*
X102933569Y-68370013D01*
X102916757Y-68263872D01*
X102916757Y-68263869D01*
X102851095Y-68061782D01*
X102754624Y-67872449D01*
X102715270Y-67818282D01*
X102715269Y-67818282D01*
X102082962Y-68450590D01*
X102065925Y-68387007D01*
X102000099Y-68272993D01*
X101907007Y-68179901D01*
X101792993Y-68114075D01*
X101729409Y-68097037D01*
X102361716Y-67464728D01*
X102307547Y-67425373D01*
X102307547Y-67425372D01*
X102298500Y-67420763D01*
X102247706Y-67372788D01*
X102230912Y-67304966D01*
X102253451Y-67238832D01*
X102298508Y-67199793D01*
X102307816Y-67195051D01*
X102393905Y-67132504D01*
X102479786Y-67070109D01*
X102479788Y-67070106D01*
X102479792Y-67070104D01*
X102630104Y-66919792D01*
X102630106Y-66919788D01*
X102630109Y-66919786D01*
X102693653Y-66832324D01*
X102755051Y-66747816D01*
X102761629Y-66734906D01*
X102775235Y-66708205D01*
X102823209Y-66657409D01*
X102885719Y-66640500D01*
X113197332Y-66640500D01*
X113204939Y-66640500D01*
X113204943Y-66640501D01*
X113333477Y-66640501D01*
X113400516Y-66660186D01*
X113446271Y-66712990D01*
X113454550Y-66770576D01*
X113456214Y-66782148D01*
X113427189Y-66845704D01*
X113421157Y-66852182D01*
X113373684Y-66899654D01*
X113281643Y-67048875D01*
X113281641Y-67048880D01*
X113226494Y-67215302D01*
X113226493Y-67215309D01*
X113216000Y-67318013D01*
X113216000Y-67568000D01*
X114066000Y-67568000D01*
X114066000Y-66618000D01*
X113916027Y-66618000D01*
X113916007Y-66618002D01*
X113860927Y-66623628D01*
X113833165Y-66618467D01*
X113804999Y-66616454D01*
X113799270Y-66612166D01*
X113792234Y-66610858D01*
X113771669Y-66591506D01*
X113749063Y-66574585D01*
X113746561Y-66567879D01*
X113741351Y-66562976D01*
X113734513Y-66535582D01*
X113724643Y-66509122D01*
X113726163Y-66502128D01*
X113724431Y-66495186D01*
X113733490Y-66468441D01*
X113739492Y-66440848D01*
X113745603Y-66432684D01*
X113746848Y-66429010D01*
X113760636Y-66412599D01*
X113764520Y-66408716D01*
X113764521Y-66408714D01*
X114245520Y-65927716D01*
X114324577Y-65790784D01*
X114365501Y-65638057D01*
X114365501Y-65479942D01*
X114365501Y-65472347D01*
X114365500Y-65472329D01*
X114365500Y-64824499D01*
X114385185Y-64757460D01*
X114437989Y-64711705D01*
X114489500Y-64700499D01*
X115065002Y-64700499D01*
X115065008Y-64700499D01*
X115167797Y-64689999D01*
X115334334Y-64634814D01*
X115483656Y-64542712D01*
X115503819Y-64522549D01*
X115565142Y-64489064D01*
X115634834Y-64494048D01*
G37*
%TD.AperFunction*%
%TA.AperFunction,Conductor*%
G36*
X146204440Y-66837308D02*
G01*
X146260373Y-66879180D01*
X146261424Y-66880605D01*
X146289890Y-66919785D01*
X146289894Y-66919790D01*
X146440213Y-67070109D01*
X146612179Y-67195048D01*
X146612181Y-67195049D01*
X146612184Y-67195051D01*
X146621493Y-67199794D01*
X146672290Y-67247766D01*
X146689087Y-67315587D01*
X146666552Y-67381722D01*
X146621505Y-67420760D01*
X146612446Y-67425376D01*
X146612440Y-67425380D01*
X146558282Y-67464727D01*
X146558282Y-67464728D01*
X147190591Y-68097037D01*
X147127007Y-68114075D01*
X147012993Y-68179901D01*
X146919901Y-68272993D01*
X146854075Y-68387007D01*
X146837037Y-68450591D01*
X146204728Y-67818282D01*
X146204727Y-67818282D01*
X146165380Y-67872439D01*
X146068904Y-68061782D01*
X146003242Y-68263869D01*
X146003242Y-68263872D01*
X145970000Y-68473753D01*
X145970000Y-68686246D01*
X146003242Y-68896127D01*
X146003242Y-68896130D01*
X146068904Y-69098217D01*
X146165375Y-69287550D01*
X146204728Y-69341716D01*
X146837037Y-68709408D01*
X146854075Y-68772993D01*
X146919901Y-68887007D01*
X147012993Y-68980099D01*
X147127007Y-69045925D01*
X147190590Y-69062962D01*
X146558282Y-69695269D01*
X146558282Y-69695270D01*
X146612449Y-69734624D01*
X146801782Y-69831095D01*
X147003870Y-69896757D01*
X147213754Y-69930000D01*
X147426246Y-69930000D01*
X147636127Y-69896757D01*
X147636130Y-69896757D01*
X147838217Y-69831095D01*
X148027554Y-69734622D01*
X148081716Y-69695270D01*
X148081717Y-69695270D01*
X147449408Y-69062962D01*
X147512993Y-69045925D01*
X147627007Y-68980099D01*
X147720099Y-68887007D01*
X147785925Y-68772993D01*
X147802962Y-68709408D01*
X148435270Y-69341716D01*
X148490771Y-69337349D01*
X148559148Y-69351713D01*
X148608905Y-69400765D01*
X148624500Y-69460967D01*
X148624500Y-70819903D01*
X148604815Y-70886942D01*
X148588181Y-70907584D01*
X147742584Y-71753181D01*
X147681261Y-71786666D01*
X147654903Y-71789500D01*
X142961670Y-71789500D01*
X142961654Y-71789499D01*
X142954058Y-71789499D01*
X142795943Y-71789499D01*
X142719579Y-71809961D01*
X142643214Y-71830423D01*
X142643209Y-71830426D01*
X142506290Y-71909475D01*
X142506282Y-71909481D01*
X141011584Y-73404181D01*
X140950261Y-73437666D01*
X140923903Y-73440500D01*
X133069407Y-73440500D01*
X133002368Y-73420815D01*
X132956613Y-73368011D01*
X132946669Y-73298853D01*
X132962675Y-73253380D01*
X132996784Y-73195703D01*
X133005244Y-73181398D01*
X133051098Y-73023569D01*
X133054000Y-72986694D01*
X133054000Y-72555306D01*
X133051098Y-72518431D01*
X133050153Y-72515179D01*
X133005245Y-72360606D01*
X133005244Y-72360603D01*
X133005244Y-72360602D01*
X132921581Y-72219135D01*
X132921578Y-72219132D01*
X132916798Y-72212969D01*
X132919250Y-72211066D01*
X132892655Y-72162421D01*
X132897604Y-72092726D01*
X132918440Y-72060304D01*
X132916798Y-72059031D01*
X132921575Y-72052870D01*
X132921581Y-72052865D01*
X133005244Y-71911398D01*
X133041482Y-71786666D01*
X133051097Y-71753573D01*
X133051098Y-71753567D01*
X133054000Y-71716694D01*
X133054000Y-71285306D01*
X133051098Y-71248431D01*
X133048763Y-71240395D01*
X133005245Y-71090606D01*
X133005244Y-71090603D01*
X133005244Y-71090602D01*
X132996371Y-71075598D01*
X132962675Y-71018620D01*
X132961019Y-71012096D01*
X132956613Y-71007011D01*
X132952536Y-70978661D01*
X132945492Y-70950896D01*
X132947626Y-70944513D01*
X132946669Y-70937853D01*
X132958566Y-70911800D01*
X132967652Y-70884634D01*
X132972898Y-70880418D01*
X132975694Y-70874297D01*
X132999791Y-70858810D01*
X133022119Y-70840871D01*
X133030197Y-70839270D01*
X133034472Y-70836523D01*
X133069407Y-70831500D01*
X133139261Y-70831500D01*
X133206300Y-70851185D01*
X133252055Y-70903989D01*
X133262619Y-70942899D01*
X133267001Y-70985796D01*
X133267001Y-70985799D01*
X133276251Y-71013713D01*
X133322186Y-71152334D01*
X133414096Y-71301345D01*
X133414289Y-71301657D01*
X133526595Y-71413963D01*
X133560080Y-71475286D01*
X133555096Y-71544978D01*
X133526596Y-71589324D01*
X133490214Y-71625706D01*
X133490210Y-71625711D01*
X133402609Y-71756814D01*
X133402602Y-71756827D01*
X133342264Y-71902498D01*
X133342261Y-71902510D01*
X133311500Y-72057153D01*
X133311500Y-72214846D01*
X133342261Y-72369489D01*
X133342264Y-72369501D01*
X133402602Y-72515172D01*
X133402609Y-72515185D01*
X133490210Y-72646288D01*
X133490212Y-72646291D01*
X133601707Y-72757786D01*
X133601711Y-72757789D01*
X133732814Y-72845390D01*
X133732827Y-72845397D01*
X133811894Y-72878147D01*
X133878503Y-72905737D01*
X134033153Y-72936499D01*
X134033156Y-72936500D01*
X134033158Y-72936500D01*
X134190844Y-72936500D01*
X134190845Y-72936499D01*
X134345497Y-72905737D01*
X134491179Y-72845394D01*
X134622289Y-72757789D01*
X134662072Y-72718006D01*
X134733788Y-72646291D01*
X134733789Y-72646289D01*
X134821394Y-72515179D01*
X134881737Y-72369497D01*
X134912500Y-72214842D01*
X134912500Y-72120175D01*
X134916725Y-72088081D01*
X134925011Y-72057158D01*
X134945001Y-71982557D01*
X134945001Y-71824442D01*
X134945001Y-71816847D01*
X134945000Y-71816829D01*
X134945000Y-71621767D01*
X134964685Y-71554728D01*
X135003901Y-71516230D01*
X135150656Y-71425712D01*
X135274712Y-71301656D01*
X135276752Y-71298347D01*
X135278745Y-71296555D01*
X135279193Y-71295989D01*
X135279289Y-71296065D01*
X135328694Y-71251623D01*
X135397656Y-71240395D01*
X135461740Y-71268234D01*
X135487829Y-71298339D01*
X135489681Y-71301341D01*
X135489683Y-71301344D01*
X135613654Y-71425315D01*
X135762875Y-71517356D01*
X135762880Y-71517358D01*
X135929302Y-71572505D01*
X135929309Y-71572506D01*
X136032019Y-71582999D01*
X136169499Y-71582999D01*
X136669500Y-71582999D01*
X136806972Y-71582999D01*
X136806986Y-71582998D01*
X136909697Y-71572505D01*
X137076119Y-71517358D01*
X137076124Y-71517356D01*
X137225345Y-71425315D01*
X137349315Y-71301345D01*
X137441356Y-71152124D01*
X137441358Y-71152119D01*
X137496505Y-70985697D01*
X137496506Y-70985690D01*
X137506999Y-70882986D01*
X137507000Y-70882973D01*
X137507000Y-70608000D01*
X136669500Y-70608000D01*
X136669500Y-71582999D01*
X136169499Y-71582999D01*
X136169500Y-71582998D01*
X136169500Y-70482000D01*
X136189185Y-70414961D01*
X136241989Y-70369206D01*
X136293500Y-70358000D01*
X136419500Y-70358000D01*
X136419500Y-70232000D01*
X136439185Y-70164961D01*
X136491989Y-70119206D01*
X136543500Y-70108000D01*
X137506999Y-70108000D01*
X137506999Y-69939500D01*
X137526684Y-69872461D01*
X137579488Y-69826706D01*
X137630999Y-69815500D01*
X140883331Y-69815500D01*
X140883347Y-69815501D01*
X140890943Y-69815501D01*
X141049054Y-69815501D01*
X141049057Y-69815501D01*
X141201785Y-69774577D01*
X141251904Y-69745639D01*
X141338716Y-69695520D01*
X141450520Y-69583716D01*
X141450520Y-69583714D01*
X141460728Y-69573507D01*
X141460729Y-69573504D01*
X141979417Y-69054818D01*
X142040740Y-69021333D01*
X142067098Y-69018499D01*
X142370002Y-69018499D01*
X142370008Y-69018499D01*
X142472797Y-69007999D01*
X142639334Y-68952814D01*
X142788656Y-68860712D01*
X142912712Y-68736656D01*
X143004814Y-68587334D01*
X143032595Y-68503495D01*
X143072368Y-68446051D01*
X143136884Y-68419228D01*
X143150301Y-68418500D01*
X144185331Y-68418500D01*
X144185347Y-68418501D01*
X144192943Y-68418501D01*
X144351054Y-68418501D01*
X144351057Y-68418501D01*
X144503785Y-68377577D01*
X144553904Y-68348639D01*
X144640716Y-68298520D01*
X144752520Y-68186716D01*
X144752520Y-68186714D01*
X144762728Y-68176507D01*
X144762729Y-68176504D01*
X146073427Y-66865807D01*
X146134748Y-66832324D01*
X146204440Y-66837308D01*
G37*
%TD.AperFunction*%
%TA.AperFunction,Conductor*%
G36*
X132912722Y-66646738D02*
G01*
X132934811Y-66648318D01*
X132945594Y-66656390D01*
X132958516Y-66660185D01*
X132973015Y-66676918D01*
X132990744Y-66690190D01*
X132995451Y-66702810D01*
X133004271Y-66712989D01*
X133007422Y-66734906D01*
X133015161Y-66755654D01*
X133012298Y-66768814D01*
X133014215Y-66782147D01*
X133005015Y-66802290D01*
X133000309Y-66823927D01*
X132987040Y-66841652D01*
X132985190Y-66845703D01*
X132979158Y-66852181D01*
X132931684Y-66899654D01*
X132839643Y-67048875D01*
X132839641Y-67048880D01*
X132784494Y-67215302D01*
X132784493Y-67215309D01*
X132774000Y-67318013D01*
X132774000Y-67568000D01*
X133750000Y-67568000D01*
X133817039Y-67587685D01*
X133862794Y-67640489D01*
X133874000Y-67692000D01*
X133874000Y-67944000D01*
X133854315Y-68011039D01*
X133801511Y-68056794D01*
X133750000Y-68068000D01*
X132774001Y-68068000D01*
X132774001Y-68317986D01*
X132784494Y-68420697D01*
X132794700Y-68451496D01*
X132797102Y-68521324D01*
X132761370Y-68581366D01*
X132698850Y-68612559D01*
X132676994Y-68614500D01*
X130896670Y-68614500D01*
X130896654Y-68614499D01*
X130889058Y-68614499D01*
X130730943Y-68614499D01*
X130654579Y-68634961D01*
X130578214Y-68655423D01*
X130578209Y-68655426D01*
X130441290Y-68734475D01*
X130441282Y-68734481D01*
X130352181Y-68823583D01*
X130290858Y-68857068D01*
X130221166Y-68852084D01*
X130165233Y-68810212D01*
X130140816Y-68744748D01*
X130140500Y-68735902D01*
X130140500Y-66975097D01*
X130160185Y-66908058D01*
X130176819Y-66887416D01*
X130387417Y-66676819D01*
X130448740Y-66643334D01*
X130475098Y-66640500D01*
X132891477Y-66640500D01*
X132912722Y-66646738D01*
G37*
%TD.AperFunction*%
%TA.AperFunction,Conductor*%
G36*
X148586920Y-66834826D02*
G01*
X148621277Y-66895665D01*
X148624500Y-66923751D01*
X148624500Y-67699032D01*
X148604815Y-67766071D01*
X148552011Y-67811826D01*
X148490771Y-67822650D01*
X148435270Y-67818282D01*
X147802962Y-68450590D01*
X147785925Y-68387007D01*
X147720099Y-68272993D01*
X147627007Y-68179901D01*
X147512993Y-68114075D01*
X147449409Y-68097037D01*
X148081716Y-67464728D01*
X148027547Y-67425373D01*
X148027547Y-67425372D01*
X148018500Y-67420763D01*
X147967706Y-67372788D01*
X147950912Y-67304966D01*
X147973451Y-67238832D01*
X148018508Y-67199793D01*
X148027816Y-67195051D01*
X148113905Y-67132504D01*
X148199786Y-67070109D01*
X148199788Y-67070106D01*
X148199792Y-67070104D01*
X148350104Y-66919792D01*
X148400181Y-66850865D01*
X148455511Y-66808200D01*
X148525124Y-66802221D01*
X148586920Y-66834826D01*
G37*
%TD.AperFunction*%
%TA.AperFunction,Conductor*%
G36*
X113031539Y-54214185D02*
G01*
X113077294Y-54266989D01*
X113088500Y-54318500D01*
X113088500Y-55110001D01*
X113088501Y-55110019D01*
X113099000Y-55212796D01*
X113099001Y-55212799D01*
X113139479Y-55334951D01*
X113154186Y-55379334D01*
X113246288Y-55528656D01*
X113370344Y-55652712D01*
X113519666Y-55744814D01*
X113581213Y-55765208D01*
X113638657Y-55804981D01*
X113665480Y-55869497D01*
X113653165Y-55938272D01*
X113605622Y-55989472D01*
X113581212Y-56000620D01*
X113535880Y-56015641D01*
X113535875Y-56015643D01*
X113386654Y-56107684D01*
X113262684Y-56231654D01*
X113170643Y-56380875D01*
X113170641Y-56380880D01*
X113115494Y-56547302D01*
X113115493Y-56547309D01*
X113105000Y-56650013D01*
X113105000Y-56900000D01*
X114081000Y-56900000D01*
X114148039Y-56919685D01*
X114193794Y-56972489D01*
X114205000Y-57024000D01*
X114205000Y-57150000D01*
X114331000Y-57150000D01*
X114398039Y-57169685D01*
X114443794Y-57222489D01*
X114455000Y-57274000D01*
X114455000Y-58380402D01*
X114435315Y-58447441D01*
X114418681Y-58468083D01*
X113471712Y-59415051D01*
X113446033Y-59434756D01*
X113396287Y-59463477D01*
X113396281Y-59463482D01*
X113284481Y-59575282D01*
X113284477Y-59575287D01*
X113211957Y-59700896D01*
X113161390Y-59749112D01*
X113092783Y-59762334D01*
X113091967Y-59762254D01*
X113065010Y-59759500D01*
X112264998Y-59759500D01*
X112264980Y-59759501D01*
X112162203Y-59770000D01*
X112162200Y-59770001D01*
X111995668Y-59825185D01*
X111995663Y-59825187D01*
X111846342Y-59917289D01*
X111722289Y-60041342D01*
X111630187Y-60190663D01*
X111630185Y-60190668D01*
X111602405Y-60274504D01*
X111562632Y-60331949D01*
X111498116Y-60358772D01*
X111484699Y-60359500D01*
X110003301Y-60359500D01*
X109936262Y-60339815D01*
X109890507Y-60287011D01*
X109885595Y-60274504D01*
X109876131Y-60245943D01*
X109857814Y-60190666D01*
X109765712Y-60041344D01*
X109641656Y-59917288D01*
X109492334Y-59825186D01*
X109325797Y-59770001D01*
X109325795Y-59770000D01*
X109223010Y-59759500D01*
X108422998Y-59759500D01*
X108422980Y-59759501D01*
X108320203Y-59770000D01*
X108320200Y-59770001D01*
X108153668Y-59825185D01*
X108153663Y-59825187D01*
X108004342Y-59917289D01*
X107910681Y-60010951D01*
X107849358Y-60044436D01*
X107779666Y-60039452D01*
X107735319Y-60010951D01*
X107641657Y-59917289D01*
X107641656Y-59917288D01*
X107492334Y-59825186D01*
X107325797Y-59770001D01*
X107325795Y-59770000D01*
X107223010Y-59759500D01*
X106422998Y-59759500D01*
X106422980Y-59759501D01*
X106320203Y-59770000D01*
X106320200Y-59770001D01*
X106153668Y-59825185D01*
X106153663Y-59825187D01*
X106004342Y-59917289D01*
X105880289Y-60041342D01*
X105788187Y-60190663D01*
X105788185Y-60190668D01*
X105760405Y-60274504D01*
X105720632Y-60331949D01*
X105656116Y-60358772D01*
X105642699Y-60359500D01*
X102885719Y-60359500D01*
X102818680Y-60339815D01*
X102775235Y-60291795D01*
X102755052Y-60252185D01*
X102755051Y-60252184D01*
X102630109Y-60080213D01*
X102516569Y-59966673D01*
X102483084Y-59905350D01*
X102488068Y-59835658D01*
X102529940Y-59779725D01*
X102560915Y-59762810D01*
X102692331Y-59713796D01*
X102807546Y-59627546D01*
X102893796Y-59512331D01*
X102944091Y-59377483D01*
X102950500Y-59317873D01*
X102950500Y-59144500D01*
X102970185Y-59077461D01*
X103022989Y-59031706D01*
X103074500Y-59020500D01*
X105577331Y-59020500D01*
X105577347Y-59020501D01*
X105584943Y-59020501D01*
X105743054Y-59020501D01*
X105743057Y-59020501D01*
X105895785Y-58979577D01*
X105945904Y-58950639D01*
X106032716Y-58900520D01*
X106144520Y-58788716D01*
X106144520Y-58788714D01*
X106154728Y-58778507D01*
X106154730Y-58778504D01*
X107283248Y-57649986D01*
X113105001Y-57649986D01*
X113115494Y-57752697D01*
X113170641Y-57919119D01*
X113170643Y-57919124D01*
X113262684Y-58068345D01*
X113386654Y-58192315D01*
X113535875Y-58284356D01*
X113535880Y-58284358D01*
X113702302Y-58339505D01*
X113702309Y-58339506D01*
X113805019Y-58349999D01*
X113954999Y-58349999D01*
X113955000Y-58349998D01*
X113955000Y-57400000D01*
X113105001Y-57400000D01*
X113105001Y-57649986D01*
X107283248Y-57649986D01*
X107556713Y-57376521D01*
X107556716Y-57376520D01*
X107668520Y-57264716D01*
X107747577Y-57127784D01*
X107788500Y-56975057D01*
X107788500Y-54910097D01*
X107808185Y-54843058D01*
X107824819Y-54822416D01*
X108416416Y-54230819D01*
X108477739Y-54197334D01*
X108504097Y-54194500D01*
X112964500Y-54194500D01*
X113031539Y-54214185D01*
G37*
%TD.AperFunction*%
%TD*%
M02*
