%TF.GenerationSoftware,KiCad,Pcbnew,10.0.1*%
%TF.CreationDate,2026-05-14T11:00:22+02:00*%
%TF.ProjectId,DualAmpOP,4475616c-416d-4704-9f50-2e6b69636164,1.0*%
%TF.SameCoordinates,Original*%
%TF.FileFunction,Copper,L1,Top*%
%TF.FilePolarity,Positive*%
%FSLAX46Y46*%
G04 Gerber Fmt 4.6, Leading zero omitted, Abs format (unit mm)*
G04 Created by KiCad (PCBNEW 10.0.1) date 2026-05-14 11:00:22*
%MOMM*%
%LPD*%
G01*
G04 APERTURE LIST*
G04 Aperture macros list*
%AMRoundRect*
0 Rectangle with rounded corners*
0 $1 Rounding radius*
0 $2 $3 $4 $5 $6 $7 $8 $9 X,Y pos of 4 corners*
0 Add a 4 corners polygon primitive as box body*
4,1,4,$2,$3,$4,$5,$6,$7,$8,$9,$2,$3,0*
0 Add four circle primitives for the rounded corners*
1,1,$1+$1,$2,$3*
1,1,$1+$1,$4,$5*
1,1,$1+$1,$6,$7*
1,1,$1+$1,$8,$9*
0 Add four rect primitives between the rounded corners*
20,1,$1+$1,$2,$3,$4,$5,0*
20,1,$1+$1,$4,$5,$6,$7,0*
20,1,$1+$1,$6,$7,$8,$9,0*
20,1,$1+$1,$8,$9,$2,$3,0*%
G04 Aperture macros list end*
%TA.AperFunction,SMDPad,CuDef*%
%ADD10R,1.500000X1.300000*%
%TD*%
%TA.AperFunction,SMDPad,CuDef*%
%ADD11RoundRect,0.250000X-0.337500X-0.475000X0.337500X-0.475000X0.337500X0.475000X-0.337500X0.475000X0*%
%TD*%
%TA.AperFunction,ComponentPad*%
%ADD12C,1.440000*%
%TD*%
%TA.AperFunction,SMDPad,CuDef*%
%ADD13RoundRect,0.150000X-0.700000X-0.150000X0.700000X-0.150000X0.700000X0.150000X-0.700000X0.150000X0*%
%TD*%
%TA.AperFunction,ComponentPad*%
%ADD14R,1.700000X1.700000*%
%TD*%
%TA.AperFunction,ComponentPad*%
%ADD15C,1.700000*%
%TD*%
%TA.AperFunction,ViaPad*%
%ADD16C,0.600000*%
%TD*%
%TA.AperFunction,Conductor*%
%ADD17C,0.200000*%
%TD*%
G04 APERTURE END LIST*
D10*
%TO.P,R9,1*%
%TO.N,Net-(R1-Pad1)*%
X97155000Y-78740000D03*
%TO.P,R9,2*%
%TO.N,Net-(J1-Pin_4)*%
X99013000Y-78740000D03*
%TD*%
%TO.P,R12,1*%
%TO.N,Net-(U1B--)*%
X114410500Y-78740000D03*
%TO.P,R12,2*%
%TO.N,Net-(J2-Pin_3)*%
X116268500Y-78740000D03*
%TD*%
%TO.P,R13,1*%
%TO.N,Net-(J2-Pin_1)*%
X116221500Y-81280000D03*
%TO.P,R13,2*%
%TO.N,GND*%
X114363500Y-81280000D03*
%TD*%
D11*
%TO.P,C2,1*%
%TO.N,Net-(J1-Pin_6)*%
X111230500Y-90170000D03*
%TO.P,C2,2*%
%TO.N,GND*%
X113305500Y-90170000D03*
%TD*%
D10*
%TO.P,R8,1*%
%TO.N,Net-(R10-Pad2)*%
X102066100Y-88900000D03*
%TO.P,R8,2*%
%TO.N,Net-(J1-Pin_4)*%
X103924100Y-88900000D03*
%TD*%
%TO.P,R4,1*%
%TO.N,Net-(R10-Pad2)*%
X102028000Y-83820000D03*
%TO.P,R4,2*%
%TO.N,Net-(U1A-+)*%
X103886000Y-83820000D03*
%TD*%
D12*
%TO.P,P1,1,1_1*%
%TO.N,Net-(J1-Pin_4)*%
X109169200Y-72390000D03*
%TO.P,P1,2,2_2*%
%TO.N,Net-(J2-Pin_2)*%
X111709200Y-72390000D03*
%TO.P,P1,3,3_3*%
%TO.N,GND*%
X114249200Y-72390000D03*
%TD*%
D10*
%TO.P,R2,1*%
%TO.N,Net-(U1A--)*%
X103886000Y-78740000D03*
%TO.P,R2,2*%
%TO.N,Net-(J1-Pin_4)*%
X102028000Y-78740000D03*
%TD*%
D11*
%TO.P,C1,1*%
%TO.N,Net-(J1-Pin_1)*%
X109706500Y-81280000D03*
%TO.P,C1,2*%
%TO.N,GND*%
X111781500Y-81280000D03*
%TD*%
D13*
%TO.P,U1,1*%
%TO.N,Net-(J1-Pin_4)*%
X110126000Y-83947000D03*
%TO.P,U1,2,-_2*%
%TO.N,Net-(U1A--)*%
X110126000Y-85217000D03*
%TO.P,U1,3,+_3*%
%TO.N,Net-(U1A-+)*%
X110126000Y-86487000D03*
%TO.P,U1,4,V-_4*%
%TO.N,Net-(J1-Pin_6)*%
X110126000Y-87757000D03*
%TO.P,U1,5,+_5*%
%TO.N,Net-(J2-Pin_1)*%
X115426000Y-87757000D03*
%TO.P,U1,6,-_6*%
%TO.N,Net-(U1B--)*%
X115426000Y-86487000D03*
%TO.P,U1,7*%
%TO.N,Net-(J2-Pin_3)*%
X115426000Y-85217000D03*
%TO.P,U1,8,V+_8*%
%TO.N,Net-(J1-Pin_1)*%
X115426000Y-83947000D03*
%TD*%
D10*
%TO.P,R6,1*%
%TO.N,Net-(U1A-+)*%
X97151200Y-88900000D03*
%TO.P,R6,2*%
%TO.N,Net-(J1-Pin_4)*%
X99009200Y-88900000D03*
%TD*%
%TO.P,R14,1*%
%TO.N,Net-(J1-Pin_3)*%
X97151200Y-81280000D03*
%TO.P,R14,2*%
%TO.N,Net-(R1-Pad1)*%
X99009200Y-81280000D03*
%TD*%
D14*
%TO.P,J1,1,Pin_1_1*%
%TO.N,Net-(J1-Pin_1)*%
X90170000Y-76200000D03*
D15*
%TO.P,J1,2,Pin_2_2*%
%TO.N,Net-(J1-Pin_2)*%
X90170000Y-78740000D03*
%TO.P,J1,3,Pin_3_3*%
%TO.N,Net-(J1-Pin_3)*%
X90170000Y-81280000D03*
%TO.P,J1,4,Pin_4_4*%
%TO.N,Net-(J1-Pin_4)*%
X90170000Y-83820000D03*
%TO.P,J1,5,Pin_5_5*%
%TO.N,GND*%
X90170000Y-86360000D03*
%TO.P,J1,6,Pin_6_6*%
%TO.N,Net-(J1-Pin_6)*%
X90170000Y-88900000D03*
%TD*%
D10*
%TO.P,R5,1*%
%TO.N,Net-(J1-Pin_3)*%
X97100400Y-83820000D03*
%TO.P,R5,2*%
%TO.N,GND*%
X98958400Y-83820000D03*
%TD*%
%TO.P,R1,1*%
%TO.N,Net-(R1-Pad1)*%
X102028000Y-81280000D03*
%TO.P,R1,2*%
%TO.N,Net-(U1A--)*%
X103886000Y-81280000D03*
%TD*%
%TO.P,R3,1*%
%TO.N,Net-(U1A-+)*%
X97100400Y-86360000D03*
%TO.P,R3,2*%
%TO.N,GND*%
X98958400Y-86360000D03*
%TD*%
D14*
%TO.P,J2,1,Pin_1_1*%
%TO.N,Net-(J2-Pin_1)*%
X120691248Y-83820000D03*
D15*
%TO.P,J2,2,Pin_2_2*%
%TO.N,Net-(J2-Pin_2)*%
X120691248Y-81280000D03*
%TO.P,J2,3,Pin_3_3*%
%TO.N,Net-(J2-Pin_3)*%
X120691248Y-78740000D03*
%TO.P,J2,4,Pin_4_4*%
%TO.N,GND*%
X120691248Y-76200000D03*
%TD*%
D10*
%TO.P,R10,1*%
%TO.N,Net-(J1-Pin_2)*%
X103864400Y-86360000D03*
%TO.P,R10,2*%
%TO.N,Net-(R10-Pad2)*%
X102006400Y-86360000D03*
%TD*%
%TO.P,R11,1*%
%TO.N,Net-(J2-Pin_2)*%
X109982000Y-78740000D03*
%TO.P,R11,2*%
%TO.N,Net-(U1B--)*%
X111840000Y-78740000D03*
%TD*%
%TO.P,R7,1*%
%TO.N,Net-(U1A--)*%
X103775500Y-76200000D03*
%TO.P,R7,2*%
%TO.N,Net-(J1-Pin_4)*%
X101917500Y-76200000D03*
%TD*%
D16*
%TO.N,Net-(U1B--)*%
X113030000Y-86360000D03*
X114300000Y-77470000D03*
%TO.N,Net-(J1-Pin_1)*%
X108966000Y-76200000D03*
%TO.N,Net-(J1-Pin_2)*%
X106222800Y-86410800D03*
%TD*%
%TO.N,Net-(R1-Pad1)*%
D17*
X97155000Y-79629000D02*
X97536000Y-80010000D01*
X97155000Y-78740000D02*
X97155000Y-79629000D01*
X97536000Y-80010000D02*
X98806000Y-80010000D01*
X98806000Y-80010000D02*
X99009200Y-80213200D01*
X99009200Y-81280000D02*
X99009200Y-80213200D01*
X102028000Y-81280000D02*
X99009200Y-81280000D01*
%TO.N,Net-(J1-Pin_4)*%
X95758000Y-78740000D02*
X95758000Y-77978000D01*
X90170000Y-83820000D02*
X89020000Y-82670000D01*
X93980000Y-90170000D02*
X91440000Y-87630000D01*
X107442000Y-81263000D02*
X110126000Y-83947000D01*
X102870000Y-74676000D02*
X107442000Y-74676000D01*
X94488000Y-80010000D02*
X95758000Y-78740000D01*
X103924100Y-89750900D02*
X103505000Y-90170000D01*
X99013000Y-77677000D02*
X99013000Y-78740000D01*
X100634800Y-90170000D02*
X100279200Y-90170000D01*
X101917500Y-75628500D02*
X102870000Y-74676000D01*
X103505000Y-90170000D02*
X100634800Y-90170000D01*
X109169200Y-73609200D02*
X109169200Y-72390000D01*
X100177600Y-88900000D02*
X100634800Y-89357200D01*
X95758000Y-77978000D02*
X96266000Y-77470000D01*
X108204000Y-74676000D02*
X109220000Y-73660000D01*
X103924100Y-88900000D02*
X103924100Y-89750900D01*
X91440000Y-87630000D02*
X89813654Y-87630000D01*
X89020000Y-82670000D02*
X89020000Y-80803654D01*
X100634800Y-89357200D02*
X100634800Y-90170000D01*
X88900000Y-85090000D02*
X90170000Y-83820000D01*
X101917500Y-76200000D02*
X101917500Y-75628500D01*
X107442000Y-74676000D02*
X107442000Y-81263000D01*
X109220000Y-73660000D02*
X109169200Y-73609200D01*
X99009200Y-88900000D02*
X100177600Y-88900000D01*
X89813654Y-80010000D02*
X94488000Y-80010000D01*
X96266000Y-77470000D02*
X98806000Y-77470000D01*
X88900000Y-86716346D02*
X88900000Y-85090000D01*
X98806000Y-77470000D02*
X99013000Y-77677000D01*
X101917500Y-76200000D02*
X101917500Y-78629500D01*
X107442000Y-74676000D02*
X108204000Y-74676000D01*
X89020000Y-80803654D02*
X89813654Y-80010000D01*
X99013000Y-78740000D02*
X102028000Y-78740000D01*
X89813654Y-87630000D02*
X88900000Y-86716346D01*
X101917500Y-78629500D02*
X102028000Y-78740000D01*
X97739200Y-90170000D02*
X100279200Y-90170000D01*
X97739200Y-90170000D02*
X93980000Y-90170000D01*
%TO.N,Net-(U1B--)*%
X113030000Y-86360000D02*
X113157000Y-86487000D01*
X111840000Y-78740000D02*
X114410500Y-78740000D01*
X114300000Y-77470000D02*
X114410500Y-77359500D01*
X114410500Y-78740000D02*
X114410500Y-77580500D01*
X113157000Y-86487000D02*
X115426000Y-86487000D01*
X114410500Y-77580500D02*
X114300000Y-77470000D01*
%TO.N,Net-(J2-Pin_3)*%
X114998500Y-80010000D02*
X113633500Y-80010000D01*
X113030000Y-80613500D02*
X113030000Y-81946500D01*
X116268500Y-78740000D02*
X114998500Y-80010000D01*
X116576000Y-84287552D02*
X115646552Y-85217000D01*
X113633500Y-82550000D02*
X115890000Y-82550000D01*
X116576000Y-83236000D02*
X116576000Y-84287552D01*
X113633500Y-80010000D02*
X113030000Y-80613500D01*
X113030000Y-81946500D02*
X113633500Y-82550000D01*
X115890000Y-82550000D02*
X116576000Y-83236000D01*
X116268500Y-78740000D02*
X120691248Y-78740000D01*
X115646552Y-85217000D02*
X115426000Y-85217000D01*
%TO.N,Net-(J2-Pin_1)*%
X118110000Y-83168500D02*
X118110000Y-83820000D01*
X118110000Y-83820000D02*
X118110000Y-86360000D01*
X118110000Y-83820000D02*
X120691248Y-83820000D01*
X116713000Y-87757000D02*
X115426000Y-87757000D01*
X116221500Y-81280000D02*
X118110000Y-83168500D01*
X118110000Y-86360000D02*
X116713000Y-87757000D01*
%TO.N,GND*%
X98958400Y-85090000D02*
X98958400Y-86360000D01*
X92075000Y-86360000D02*
X90170000Y-86360000D01*
X93345000Y-85090000D02*
X92075000Y-86360000D01*
X98958400Y-83820000D02*
X98958400Y-85090000D01*
X98958400Y-85090000D02*
X93345000Y-85090000D01*
%TO.N,Net-(J1-Pin_6)*%
X111230500Y-88861500D02*
X111230500Y-90170000D01*
X110126000Y-87757000D02*
X111230500Y-88861500D01*
X90170000Y-88900000D02*
X92075000Y-90805000D01*
X108585000Y-90170000D02*
X111230500Y-90170000D01*
X107950000Y-90805000D02*
X108585000Y-90170000D01*
X92075000Y-90805000D02*
X107950000Y-90805000D01*
%TO.N,Net-(R10-Pad2)*%
X102028000Y-83820000D02*
X102028000Y-88861900D01*
X102028000Y-88861900D02*
X102066100Y-88900000D01*
%TO.N,Net-(U1A-+)*%
X97151200Y-88900000D02*
X97151200Y-87579200D01*
X105410000Y-83820000D02*
X108077000Y-86487000D01*
X108077000Y-86487000D02*
X110126000Y-86487000D01*
X97151200Y-86410800D02*
X97100400Y-86360000D01*
X97151200Y-87579200D02*
X99974400Y-87579200D01*
X101298000Y-82550000D02*
X103378000Y-82550000D01*
X103378000Y-82550000D02*
X103886000Y-83058000D01*
X100458400Y-83389600D02*
X101298000Y-82550000D01*
X100458400Y-87095200D02*
X100458400Y-83389600D01*
X97151200Y-87579200D02*
X97151200Y-86410800D01*
X99974400Y-87579200D02*
X100458400Y-87095200D01*
X103886000Y-83058000D02*
X103886000Y-83820000D01*
X105410000Y-83820000D02*
X103886000Y-83820000D01*
%TO.N,Net-(J2-Pin_2)*%
X111709200Y-73456800D02*
X109982000Y-75184000D01*
X111709200Y-72390000D02*
X111709200Y-73456800D01*
X109982000Y-75184000D02*
X109982000Y-78740000D01*
%TO.N,Net-(U1A--)*%
X103886000Y-78740000D02*
X103886000Y-81280000D01*
X109347000Y-85217000D02*
X110126000Y-85217000D01*
X103775500Y-76200000D02*
X103775500Y-78629500D01*
X105410000Y-81280000D02*
X109347000Y-85217000D01*
X104013000Y-78740000D02*
X104013000Y-79121000D01*
X104093000Y-78660000D02*
X104013000Y-78740000D01*
X105410000Y-81280000D02*
X103886000Y-81280000D01*
X103775500Y-78629500D02*
X103886000Y-78740000D01*
%TO.N,Net-(J1-Pin_1)*%
X109706500Y-80496500D02*
X108932000Y-79722000D01*
X109706500Y-81280000D02*
X109706500Y-80496500D01*
X112373500Y-83947000D02*
X115426000Y-83947000D01*
X109706500Y-81280000D02*
X112373500Y-83947000D01*
X108932000Y-79722000D02*
X108932000Y-76488000D01*
%TO.N,Net-(J1-Pin_3)*%
X97151200Y-81911200D02*
X97100400Y-81962000D01*
X97100400Y-81962000D02*
X97100400Y-83820000D01*
X97151200Y-81280000D02*
X97151200Y-81911200D01*
X90170000Y-81280000D02*
X97151200Y-81280000D01*
%TO.N,Net-(J1-Pin_2)*%
X106222800Y-86410800D02*
X106172000Y-86360000D01*
X106172000Y-86360000D02*
X103864400Y-86360000D01*
%TD*%
%TA.AperFunction,Conductor*%
%TO.N,GND*%
G36*
X95845888Y-81900185D02*
G01*
X95891643Y-81952989D01*
X95902139Y-81991248D01*
X95907108Y-82037483D01*
X95957402Y-82172328D01*
X95957406Y-82172335D01*
X96043652Y-82287544D01*
X96043655Y-82287547D01*
X96158864Y-82373793D01*
X96158871Y-82373797D01*
X96293717Y-82424091D01*
X96301262Y-82425874D01*
X96300904Y-82427385D01*
X96357233Y-82450715D01*
X96397082Y-82508107D01*
X96399578Y-82577932D01*
X96363927Y-82638022D01*
X96301449Y-82669298D01*
X96292683Y-82670559D01*
X96242916Y-82675909D01*
X96108071Y-82726202D01*
X96108064Y-82726206D01*
X95992855Y-82812452D01*
X95992852Y-82812455D01*
X95906606Y-82927664D01*
X95906602Y-82927671D01*
X95856308Y-83062517D01*
X95849901Y-83122116D01*
X95849900Y-83122135D01*
X95849900Y-84517870D01*
X95849901Y-84517876D01*
X95856308Y-84577483D01*
X95906602Y-84712328D01*
X95906606Y-84712335D01*
X95992852Y-84827544D01*
X95992855Y-84827547D01*
X96108064Y-84913793D01*
X96108071Y-84913797D01*
X96242913Y-84964090D01*
X96242914Y-84964090D01*
X96242917Y-84964091D01*
X96267283Y-84966710D01*
X96331831Y-84993446D01*
X96371681Y-85050837D01*
X96374176Y-85120662D01*
X96338525Y-85180752D01*
X96276046Y-85212028D01*
X96267284Y-85213288D01*
X96242919Y-85215907D01*
X96108071Y-85266202D01*
X96108064Y-85266206D01*
X95992855Y-85352452D01*
X95992852Y-85352455D01*
X95906606Y-85467664D01*
X95906602Y-85467671D01*
X95856308Y-85602517D01*
X95849901Y-85662116D01*
X95849900Y-85662135D01*
X95849900Y-87057870D01*
X95849901Y-87057876D01*
X95856308Y-87117483D01*
X95906602Y-87252328D01*
X95906606Y-87252335D01*
X95992852Y-87367544D01*
X95992855Y-87367547D01*
X96108064Y-87453793D01*
X96108071Y-87453797D01*
X96124394Y-87459885D01*
X96242917Y-87504091D01*
X96292684Y-87509441D01*
X96357231Y-87536178D01*
X96397080Y-87593570D01*
X96399574Y-87663395D01*
X96363922Y-87723484D01*
X96301443Y-87754760D01*
X96294120Y-87755812D01*
X96293720Y-87755907D01*
X96158871Y-87806202D01*
X96158864Y-87806206D01*
X96043655Y-87892452D01*
X96043652Y-87892455D01*
X95957406Y-88007664D01*
X95957402Y-88007671D01*
X95907108Y-88142517D01*
X95901769Y-88192184D01*
X95900700Y-88202127D01*
X95900700Y-88859097D01*
X95900701Y-89445500D01*
X95881016Y-89512539D01*
X95828213Y-89558294D01*
X95776701Y-89569500D01*
X94280097Y-89569500D01*
X94213058Y-89549815D01*
X94192416Y-89533181D01*
X91927590Y-87268355D01*
X91927588Y-87268352D01*
X91808717Y-87149481D01*
X91808716Y-87149480D01*
X91720727Y-87098680D01*
X91671785Y-87070423D01*
X91519057Y-87029499D01*
X91519055Y-87029499D01*
X91511206Y-87027396D01*
X91512035Y-87024300D01*
X91461891Y-87002114D01*
X91423424Y-86943787D01*
X91422597Y-86873923D01*
X91424048Y-86869129D01*
X91486757Y-86676130D01*
X91486757Y-86676127D01*
X91520000Y-86466246D01*
X91520000Y-86253753D01*
X91486757Y-86043872D01*
X91486757Y-86043869D01*
X91421095Y-85841782D01*
X91324624Y-85652449D01*
X91285270Y-85598282D01*
X91285269Y-85598282D01*
X90652962Y-86230589D01*
X90635925Y-86167007D01*
X90570099Y-86052993D01*
X90477007Y-85959901D01*
X90362993Y-85894075D01*
X90299407Y-85877036D01*
X90931716Y-85244728D01*
X90877547Y-85205373D01*
X90877547Y-85205372D01*
X90868500Y-85200763D01*
X90817706Y-85152788D01*
X90800912Y-85084966D01*
X90823451Y-85018832D01*
X90868508Y-84979793D01*
X90877816Y-84975051D01*
X90957007Y-84917515D01*
X91049786Y-84850109D01*
X91049788Y-84850106D01*
X91049792Y-84850104D01*
X91200104Y-84699792D01*
X91200106Y-84699788D01*
X91200109Y-84699786D01*
X91325048Y-84527820D01*
X91325047Y-84527820D01*
X91325051Y-84527816D01*
X91421557Y-84338412D01*
X91487246Y-84136243D01*
X91520500Y-83926287D01*
X91520500Y-83713713D01*
X91487246Y-83503757D01*
X91421557Y-83301588D01*
X91325051Y-83112184D01*
X91325049Y-83112181D01*
X91325048Y-83112179D01*
X91200109Y-82940213D01*
X91049786Y-82789890D01*
X90877820Y-82664951D01*
X90877115Y-82664591D01*
X90869054Y-82660485D01*
X90818259Y-82612512D01*
X90801463Y-82544692D01*
X90823999Y-82478556D01*
X90869054Y-82439515D01*
X90877816Y-82435051D01*
X90921287Y-82403468D01*
X91049786Y-82310109D01*
X91049788Y-82310106D01*
X91049792Y-82310104D01*
X91200104Y-82159792D01*
X91200106Y-82159788D01*
X91200109Y-82159786D01*
X91288966Y-82037483D01*
X91325051Y-81987816D01*
X91331743Y-81974682D01*
X91345235Y-81948205D01*
X91393209Y-81897409D01*
X91455719Y-81880500D01*
X95778849Y-81880500D01*
X95845888Y-81900185D01*
G37*
%TD.AperFunction*%
%TA.AperFunction,Conductor*%
G36*
X99151439Y-83839685D02*
G01*
X99197194Y-83892489D01*
X99208400Y-83944000D01*
X99208400Y-84970000D01*
X99240719Y-85002319D01*
X99274204Y-85063642D01*
X99269220Y-85133334D01*
X99240719Y-85177681D01*
X99208400Y-85210000D01*
X99208400Y-86236000D01*
X99188715Y-86303039D01*
X99135911Y-86348794D01*
X99084400Y-86360000D01*
X98832400Y-86360000D01*
X98765361Y-86340315D01*
X98719606Y-86287511D01*
X98708400Y-86236000D01*
X98708400Y-85210000D01*
X98676081Y-85177681D01*
X98642596Y-85116358D01*
X98647580Y-85046666D01*
X98676081Y-85002319D01*
X98708400Y-84970000D01*
X98708400Y-83944000D01*
X98728085Y-83876961D01*
X98780889Y-83831206D01*
X98832400Y-83820000D01*
X99084400Y-83820000D01*
X99151439Y-83839685D01*
G37*
%TD.AperFunction*%
%TA.AperFunction,Conductor*%
G36*
X112372539Y-81049685D02*
G01*
X112418294Y-81102489D01*
X112429500Y-81154000D01*
X112429500Y-81406000D01*
X112409815Y-81473039D01*
X112357011Y-81518794D01*
X112305500Y-81530000D01*
X111905500Y-81530000D01*
X111838461Y-81510315D01*
X111792706Y-81457511D01*
X111781500Y-81406000D01*
X111781500Y-81154000D01*
X111801185Y-81086961D01*
X111853989Y-81041206D01*
X111905500Y-81030000D01*
X112305500Y-81030000D01*
X112372539Y-81049685D01*
G37*
%TD.AperFunction*%
%TA.AperFunction,Conductor*%
G36*
X114306539Y-81049685D02*
G01*
X114352294Y-81102489D01*
X114363500Y-81154000D01*
X114363500Y-81406000D01*
X114343815Y-81473039D01*
X114291011Y-81518794D01*
X114239500Y-81530000D01*
X113754500Y-81530000D01*
X113687461Y-81510315D01*
X113641706Y-81457511D01*
X113630500Y-81406000D01*
X113630500Y-81154000D01*
X113650185Y-81086961D01*
X113702989Y-81041206D01*
X113754500Y-81030000D01*
X114239500Y-81030000D01*
X114306539Y-81049685D01*
G37*
%TD.AperFunction*%
%TA.AperFunction,Conductor*%
G36*
X123133039Y-69361685D02*
G01*
X123178794Y-69414489D01*
X123190000Y-69466000D01*
X123190000Y-92077117D01*
X123170315Y-92144156D01*
X123117511Y-92189911D01*
X123065121Y-92201114D01*
X87499121Y-91948873D01*
X87432222Y-91928713D01*
X87386843Y-91875586D01*
X87376000Y-91824876D01*
X87376000Y-86795400D01*
X88299498Y-86795400D01*
X88313181Y-86846465D01*
X88340423Y-86948131D01*
X88340424Y-86948132D01*
X88353266Y-86970377D01*
X88353267Y-86970378D01*
X88419475Y-87085055D01*
X88419481Y-87085063D01*
X88538349Y-87203931D01*
X88538355Y-87203936D01*
X89159579Y-87825160D01*
X89193064Y-87886483D01*
X89188080Y-87956175D01*
X89159583Y-88000518D01*
X89139899Y-88020203D01*
X89139892Y-88020211D01*
X89014951Y-88192179D01*
X88918444Y-88381585D01*
X88852753Y-88583760D01*
X88819500Y-88793713D01*
X88819500Y-89006286D01*
X88852753Y-89216239D01*
X88852753Y-89216241D01*
X88852754Y-89216243D01*
X88907431Y-89384522D01*
X88918444Y-89418414D01*
X89014951Y-89607820D01*
X89139890Y-89779786D01*
X89290213Y-89930109D01*
X89462179Y-90055048D01*
X89462181Y-90055049D01*
X89462184Y-90055051D01*
X89651588Y-90151557D01*
X89853757Y-90217246D01*
X90063713Y-90250500D01*
X90063714Y-90250500D01*
X90276286Y-90250500D01*
X90276287Y-90250500D01*
X90486243Y-90217246D01*
X90528523Y-90203507D01*
X90598362Y-90201511D01*
X90654522Y-90233757D01*
X91590139Y-91169374D01*
X91590149Y-91169385D01*
X91594479Y-91173715D01*
X91594480Y-91173716D01*
X91706284Y-91285520D01*
X91783004Y-91329814D01*
X91843215Y-91364577D01*
X91995943Y-91405501D01*
X91995946Y-91405501D01*
X92161653Y-91405501D01*
X92161669Y-91405500D01*
X107863331Y-91405500D01*
X107863347Y-91405501D01*
X107870943Y-91405501D01*
X108029054Y-91405501D01*
X108029057Y-91405501D01*
X108181785Y-91364577D01*
X108241996Y-91329814D01*
X108318716Y-91285520D01*
X108430520Y-91173716D01*
X108430520Y-91173714D01*
X108440721Y-91163514D01*
X108440724Y-91163509D01*
X108797418Y-90806817D01*
X108858740Y-90773334D01*
X108885098Y-90770500D01*
X110054415Y-90770500D01*
X110121454Y-90790185D01*
X110167209Y-90842989D01*
X110172118Y-90855489D01*
X110208186Y-90964334D01*
X110300288Y-91113656D01*
X110424344Y-91237712D01*
X110573666Y-91329814D01*
X110740203Y-91384999D01*
X110842991Y-91395500D01*
X111618008Y-91395499D01*
X111618016Y-91395498D01*
X111618019Y-91395498D01*
X111674302Y-91389748D01*
X111720797Y-91384999D01*
X111887334Y-91329814D01*
X112036656Y-91237712D01*
X112160712Y-91113656D01*
X112162752Y-91110347D01*
X112164745Y-91108555D01*
X112165193Y-91107989D01*
X112165289Y-91108065D01*
X112214694Y-91063623D01*
X112283656Y-91052395D01*
X112347740Y-91080234D01*
X112373829Y-91110339D01*
X112375681Y-91113341D01*
X112375683Y-91113344D01*
X112499654Y-91237315D01*
X112648875Y-91329356D01*
X112648880Y-91329358D01*
X112815302Y-91384505D01*
X112815309Y-91384506D01*
X112918019Y-91394999D01*
X113055499Y-91394999D01*
X113555500Y-91394999D01*
X113692972Y-91394999D01*
X113692986Y-91394998D01*
X113795697Y-91384505D01*
X113962119Y-91329358D01*
X113962124Y-91329356D01*
X114111345Y-91237315D01*
X114235315Y-91113345D01*
X114327356Y-90964124D01*
X114327358Y-90964119D01*
X114382505Y-90797697D01*
X114382506Y-90797690D01*
X114392999Y-90694986D01*
X114393000Y-90694973D01*
X114393000Y-90420000D01*
X113555500Y-90420000D01*
X113555500Y-91394999D01*
X113055499Y-91394999D01*
X113055500Y-91394998D01*
X113055500Y-89920000D01*
X113555500Y-89920000D01*
X114392999Y-89920000D01*
X114392999Y-89645028D01*
X114392998Y-89645013D01*
X114382505Y-89542302D01*
X114327358Y-89375880D01*
X114327356Y-89375875D01*
X114235315Y-89226654D01*
X114111345Y-89102684D01*
X113962124Y-89010643D01*
X113962119Y-89010641D01*
X113795697Y-88955494D01*
X113795690Y-88955493D01*
X113692986Y-88945000D01*
X113555500Y-88945000D01*
X113555500Y-89920000D01*
X113055500Y-89920000D01*
X113055500Y-88945000D01*
X112918027Y-88945000D01*
X112918012Y-88945001D01*
X112815302Y-88955494D01*
X112648880Y-89010641D01*
X112648875Y-89010643D01*
X112499654Y-89102684D01*
X112375683Y-89226655D01*
X112375679Y-89226660D01*
X112373826Y-89229665D01*
X112372018Y-89231290D01*
X112371202Y-89232323D01*
X112371025Y-89232183D01*
X112321874Y-89276385D01*
X112252911Y-89287601D01*
X112188831Y-89259752D01*
X112162753Y-89229653D01*
X112162737Y-89229628D01*
X112160712Y-89226344D01*
X112036656Y-89102288D01*
X111889904Y-89011771D01*
X111843180Y-88959823D01*
X111831001Y-88906232D01*
X111831001Y-88782445D01*
X111831001Y-88782443D01*
X111790077Y-88629715D01*
X111746708Y-88554598D01*
X111711020Y-88492784D01*
X111599216Y-88380980D01*
X111599215Y-88380979D01*
X111594885Y-88376649D01*
X111594874Y-88376639D01*
X111470118Y-88251883D01*
X111436633Y-88190560D01*
X111438722Y-88129608D01*
X111473598Y-88009569D01*
X111476500Y-87972694D01*
X111476500Y-87541306D01*
X111473598Y-87504431D01*
X111473499Y-87504091D01*
X111427745Y-87346606D01*
X111427744Y-87346603D01*
X111427744Y-87346602D01*
X111344081Y-87205135D01*
X111344078Y-87205132D01*
X111339298Y-87198969D01*
X111341750Y-87197066D01*
X111315155Y-87148421D01*
X111320104Y-87078726D01*
X111340940Y-87046304D01*
X111339298Y-87045031D01*
X111344075Y-87038870D01*
X111344081Y-87038865D01*
X111427744Y-86897398D01*
X111461505Y-86781191D01*
X111473597Y-86739573D01*
X111473598Y-86739567D01*
X111474452Y-86728716D01*
X111476500Y-86702694D01*
X111476500Y-86271306D01*
X111473598Y-86234431D01*
X111454009Y-86167007D01*
X111427745Y-86076606D01*
X111427744Y-86076603D01*
X111427744Y-86076602D01*
X111344081Y-85935135D01*
X111344078Y-85935132D01*
X111339298Y-85928969D01*
X111341750Y-85927066D01*
X111315155Y-85878421D01*
X111320104Y-85808726D01*
X111340940Y-85776304D01*
X111339298Y-85775031D01*
X111344075Y-85768870D01*
X111344081Y-85768865D01*
X111427744Y-85627398D01*
X111466083Y-85495437D01*
X111473597Y-85469573D01*
X111473598Y-85469567D01*
X111473747Y-85467671D01*
X111476500Y-85432694D01*
X111476500Y-85001306D01*
X111473598Y-84964431D01*
X111473499Y-84964091D01*
X111427745Y-84806606D01*
X111427744Y-84806603D01*
X111427744Y-84806602D01*
X111344081Y-84665135D01*
X111344078Y-84665132D01*
X111339298Y-84658969D01*
X111341750Y-84657066D01*
X111315155Y-84608421D01*
X111320104Y-84538726D01*
X111340940Y-84506304D01*
X111339298Y-84505031D01*
X111344075Y-84498870D01*
X111344081Y-84498865D01*
X111427744Y-84357398D01*
X111473598Y-84199569D01*
X111474618Y-84186606D01*
X111499500Y-84121318D01*
X111555730Y-84079846D01*
X111625456Y-84075357D01*
X111685916Y-84108651D01*
X112004784Y-84427520D01*
X112004786Y-84427521D01*
X112004790Y-84427524D01*
X112128353Y-84498862D01*
X112141716Y-84506577D01*
X112294443Y-84547501D01*
X112294445Y-84547501D01*
X112460154Y-84547501D01*
X112460170Y-84547500D01*
X114060093Y-84547500D01*
X114127132Y-84567185D01*
X114172887Y-84619989D01*
X114182831Y-84689147D01*
X114166825Y-84734620D01*
X114124257Y-84806599D01*
X114124254Y-84806606D01*
X114078402Y-84964426D01*
X114078401Y-84964432D01*
X114075500Y-85001298D01*
X114075500Y-85432701D01*
X114078401Y-85469567D01*
X114078402Y-85469573D01*
X114124254Y-85627393D01*
X114124257Y-85627400D01*
X114166825Y-85699380D01*
X114184008Y-85767104D01*
X114161848Y-85833366D01*
X114107381Y-85877129D01*
X114060093Y-85886500D01*
X113739941Y-85886500D01*
X113672902Y-85866815D01*
X113652260Y-85850181D01*
X113540292Y-85738213D01*
X113540288Y-85738210D01*
X113409185Y-85650609D01*
X113409172Y-85650602D01*
X113263501Y-85590264D01*
X113263489Y-85590261D01*
X113108845Y-85559500D01*
X113108842Y-85559500D01*
X112951158Y-85559500D01*
X112951155Y-85559500D01*
X112796510Y-85590261D01*
X112796498Y-85590264D01*
X112650827Y-85650602D01*
X112650814Y-85650609D01*
X112519711Y-85738210D01*
X112519707Y-85738213D01*
X112408213Y-85849707D01*
X112408210Y-85849711D01*
X112320609Y-85980814D01*
X112320602Y-85980827D01*
X112260264Y-86126498D01*
X112260261Y-86126510D01*
X112229500Y-86281153D01*
X112229500Y-86438846D01*
X112260261Y-86593489D01*
X112260264Y-86593501D01*
X112320602Y-86739172D01*
X112320609Y-86739185D01*
X112408210Y-86870288D01*
X112408213Y-86870292D01*
X112519707Y-86981786D01*
X112519711Y-86981789D01*
X112650814Y-87069390D01*
X112650827Y-87069397D01*
X112742057Y-87107185D01*
X112796503Y-87129737D01*
X112948589Y-87159989D01*
X112951153Y-87160499D01*
X112951156Y-87160500D01*
X112951158Y-87160500D01*
X113108844Y-87160500D01*
X113108845Y-87160499D01*
X113185152Y-87145320D01*
X113263488Y-87129739D01*
X113263490Y-87129738D01*
X113263497Y-87129737D01*
X113342679Y-87096938D01*
X113390131Y-87087500D01*
X114060093Y-87087500D01*
X114127132Y-87107185D01*
X114172887Y-87159989D01*
X114182831Y-87229147D01*
X114166825Y-87274620D01*
X114124257Y-87346599D01*
X114124254Y-87346606D01*
X114078402Y-87504426D01*
X114078401Y-87504432D01*
X114075500Y-87541298D01*
X114075500Y-87972701D01*
X114078401Y-88009567D01*
X114078402Y-88009573D01*
X114124254Y-88167393D01*
X114124255Y-88167396D01*
X114207917Y-88308862D01*
X114207923Y-88308870D01*
X114324129Y-88425076D01*
X114324133Y-88425079D01*
X114324135Y-88425081D01*
X114465602Y-88508744D01*
X114477291Y-88512140D01*
X114623426Y-88554597D01*
X114623429Y-88554597D01*
X114623431Y-88554598D01*
X114660306Y-88557500D01*
X114660314Y-88557500D01*
X116191686Y-88557500D01*
X116191694Y-88557500D01*
X116228569Y-88554598D01*
X116228571Y-88554597D01*
X116228573Y-88554597D01*
X116270191Y-88542505D01*
X116386398Y-88508744D01*
X116527865Y-88425081D01*
X116559125Y-88393821D01*
X116620447Y-88360335D01*
X116646807Y-88357501D01*
X116792054Y-88357501D01*
X116792057Y-88357501D01*
X116944785Y-88316577D01*
X117038937Y-88262218D01*
X117081716Y-88237520D01*
X117193520Y-88125716D01*
X117193520Y-88125714D01*
X117203724Y-88115511D01*
X117203728Y-88115506D01*
X118468506Y-86850728D01*
X118468511Y-86850724D01*
X118478714Y-86840520D01*
X118478716Y-86840520D01*
X118590520Y-86728716D01*
X118669577Y-86591784D01*
X118710500Y-86439057D01*
X118710500Y-84544500D01*
X118730185Y-84477461D01*
X118782989Y-84431706D01*
X118834500Y-84420500D01*
X119216749Y-84420500D01*
X119283788Y-84440185D01*
X119329543Y-84492989D01*
X119340749Y-84544500D01*
X119340749Y-84717876D01*
X119347156Y-84777483D01*
X119397450Y-84912328D01*
X119397454Y-84912335D01*
X119483700Y-85027544D01*
X119483703Y-85027547D01*
X119598912Y-85113793D01*
X119598919Y-85113797D01*
X119733765Y-85164091D01*
X119733764Y-85164091D01*
X119740692Y-85164835D01*
X119793375Y-85170500D01*
X121589120Y-85170499D01*
X121648731Y-85164091D01*
X121783579Y-85113796D01*
X121898794Y-85027546D01*
X121985044Y-84912331D01*
X122035339Y-84777483D01*
X122041748Y-84717873D01*
X122041747Y-82922128D01*
X122035339Y-82862517D01*
X122020170Y-82821848D01*
X121985045Y-82727671D01*
X121985041Y-82727664D01*
X121898795Y-82612455D01*
X121898792Y-82612452D01*
X121783583Y-82526206D01*
X121783576Y-82526202D01*
X121652165Y-82477189D01*
X121596231Y-82435318D01*
X121571814Y-82369853D01*
X121586666Y-82301580D01*
X121607811Y-82273332D01*
X121721352Y-82159792D01*
X121740358Y-82133633D01*
X121819073Y-82025290D01*
X121846299Y-81987816D01*
X121942805Y-81798412D01*
X122008494Y-81596243D01*
X122041748Y-81386287D01*
X122041748Y-81173713D01*
X122008494Y-80963757D01*
X121942805Y-80761588D01*
X121846299Y-80572184D01*
X121846297Y-80572181D01*
X121846296Y-80572179D01*
X121721357Y-80400213D01*
X121571034Y-80249890D01*
X121399068Y-80124951D01*
X121398363Y-80124591D01*
X121390302Y-80120485D01*
X121339507Y-80072512D01*
X121322711Y-80004692D01*
X121345247Y-79938556D01*
X121390302Y-79899515D01*
X121399064Y-79895051D01*
X121431214Y-79871693D01*
X121571034Y-79770109D01*
X121571036Y-79770106D01*
X121571040Y-79770104D01*
X121721352Y-79619792D01*
X121721354Y-79619788D01*
X121721357Y-79619786D01*
X121830334Y-79469789D01*
X121846299Y-79447816D01*
X121942805Y-79258412D01*
X122008494Y-79056243D01*
X122041748Y-78846287D01*
X122041748Y-78633713D01*
X122008494Y-78423757D01*
X121942805Y-78221588D01*
X121846299Y-78032184D01*
X121846297Y-78032181D01*
X121846296Y-78032179D01*
X121721357Y-77860213D01*
X121571034Y-77709890D01*
X121399065Y-77584949D01*
X121389752Y-77580204D01*
X121338955Y-77532230D01*
X121322160Y-77464409D01*
X121344697Y-77398274D01*
X121389755Y-77359232D01*
X121398803Y-77354622D01*
X121452964Y-77315270D01*
X121452965Y-77315270D01*
X120820656Y-76682962D01*
X120884241Y-76665925D01*
X120998255Y-76600099D01*
X121091347Y-76507007D01*
X121157173Y-76392993D01*
X121174210Y-76329408D01*
X121806518Y-76961717D01*
X121806518Y-76961716D01*
X121845870Y-76907554D01*
X121942343Y-76718217D01*
X122008005Y-76516130D01*
X122008005Y-76516127D01*
X122041248Y-76306246D01*
X122041248Y-76093753D01*
X122008005Y-75883872D01*
X122008005Y-75883869D01*
X121942343Y-75681782D01*
X121845872Y-75492449D01*
X121806518Y-75438282D01*
X121806517Y-75438282D01*
X121174210Y-76070590D01*
X121157173Y-76007007D01*
X121091347Y-75892993D01*
X120998255Y-75799901D01*
X120884241Y-75734075D01*
X120820657Y-75717037D01*
X121452964Y-75084728D01*
X121398798Y-75045375D01*
X121209465Y-74948904D01*
X121007377Y-74883242D01*
X120797494Y-74850000D01*
X120585002Y-74850000D01*
X120375120Y-74883242D01*
X120375117Y-74883242D01*
X120173030Y-74948904D01*
X119983687Y-75045380D01*
X119929530Y-75084727D01*
X119929530Y-75084728D01*
X120561839Y-75717037D01*
X120498255Y-75734075D01*
X120384241Y-75799901D01*
X120291149Y-75892993D01*
X120225323Y-76007007D01*
X120208285Y-76070591D01*
X119575976Y-75438282D01*
X119575975Y-75438282D01*
X119536628Y-75492439D01*
X119440152Y-75681782D01*
X119374490Y-75883869D01*
X119374490Y-75883872D01*
X119341248Y-76093753D01*
X119341248Y-76306246D01*
X119374490Y-76516127D01*
X119374490Y-76516130D01*
X119440152Y-76718217D01*
X119536623Y-76907550D01*
X119575976Y-76961716D01*
X120208285Y-76329408D01*
X120225323Y-76392993D01*
X120291149Y-76507007D01*
X120384241Y-76600099D01*
X120498255Y-76665925D01*
X120561838Y-76682962D01*
X119929530Y-77315269D01*
X119929530Y-77315270D01*
X119983700Y-77354626D01*
X119983699Y-77354626D01*
X119992743Y-77359234D01*
X120043540Y-77407208D01*
X120060335Y-77475029D01*
X120037798Y-77541164D01*
X119992747Y-77580202D01*
X119983430Y-77584949D01*
X119811461Y-77709890D01*
X119661138Y-77860213D01*
X119536196Y-78032184D01*
X119536195Y-78032185D01*
X119516013Y-78071795D01*
X119468039Y-78122591D01*
X119405529Y-78139500D01*
X117640851Y-78139500D01*
X117573812Y-78119815D01*
X117528057Y-78067011D01*
X117517561Y-78028752D01*
X117512591Y-77982516D01*
X117462297Y-77847671D01*
X117462293Y-77847664D01*
X117376047Y-77732455D01*
X117376044Y-77732452D01*
X117260835Y-77646206D01*
X117260828Y-77646202D01*
X117125982Y-77595908D01*
X117125983Y-77595908D01*
X117066383Y-77589501D01*
X117066381Y-77589500D01*
X117066373Y-77589500D01*
X117066364Y-77589500D01*
X115470629Y-77589500D01*
X115470623Y-77589501D01*
X115411017Y-77595908D01*
X115382831Y-77606421D01*
X115314452Y-77611682D01*
X115305102Y-77609753D01*
X115267983Y-77595909D01*
X115208373Y-77589500D01*
X115206904Y-77589500D01*
X115199452Y-77587963D01*
X115173672Y-77574245D01*
X115146693Y-77563070D01*
X115143190Y-77558026D01*
X115137771Y-77555142D01*
X115123502Y-77529668D01*
X115106845Y-77505677D01*
X115105534Y-77497591D01*
X115103626Y-77494184D01*
X115103995Y-77488091D01*
X115100500Y-77466519D01*
X115100500Y-77391155D01*
X115100499Y-77391153D01*
X115093232Y-77354622D01*
X115069737Y-77236503D01*
X115013728Y-77101284D01*
X115009397Y-77090827D01*
X115009390Y-77090814D01*
X114921789Y-76959711D01*
X114921786Y-76959707D01*
X114810292Y-76848213D01*
X114810288Y-76848210D01*
X114679185Y-76760609D01*
X114679172Y-76760602D01*
X114533501Y-76700264D01*
X114533489Y-76700261D01*
X114378845Y-76669500D01*
X114378842Y-76669500D01*
X114221158Y-76669500D01*
X114221155Y-76669500D01*
X114066510Y-76700261D01*
X114066498Y-76700264D01*
X113920827Y-76760602D01*
X113920814Y-76760609D01*
X113789711Y-76848210D01*
X113789707Y-76848213D01*
X113678213Y-76959707D01*
X113678210Y-76959711D01*
X113590609Y-77090814D01*
X113590602Y-77090827D01*
X113530264Y-77236498D01*
X113530261Y-77236510D01*
X113499500Y-77391153D01*
X113499500Y-77529774D01*
X113479815Y-77596813D01*
X113427011Y-77642568D01*
X113418843Y-77645952D01*
X113418171Y-77646202D01*
X113418165Y-77646205D01*
X113302955Y-77732452D01*
X113224516Y-77837233D01*
X113168582Y-77879103D01*
X113098891Y-77884087D01*
X113037568Y-77850601D01*
X113025984Y-77837233D01*
X112957847Y-77746215D01*
X112947546Y-77732454D01*
X112947544Y-77732453D01*
X112947544Y-77732452D01*
X112832335Y-77646206D01*
X112832328Y-77646202D01*
X112697482Y-77595908D01*
X112697483Y-77595908D01*
X112637883Y-77589501D01*
X112637881Y-77589500D01*
X112637873Y-77589500D01*
X112637864Y-77589500D01*
X111042129Y-77589500D01*
X111042123Y-77589501D01*
X110982517Y-77595908D01*
X110954331Y-77606421D01*
X110896109Y-77613341D01*
X110881474Y-77611570D01*
X110839483Y-77595909D01*
X110779873Y-77589500D01*
X110699024Y-77589500D01*
X110691609Y-77588603D01*
X110666095Y-77577635D01*
X110639461Y-77569815D01*
X110634451Y-77564033D01*
X110627418Y-77561010D01*
X110611883Y-77537989D01*
X110593706Y-77517011D01*
X110591792Y-77508215D01*
X110588336Y-77503093D01*
X110588066Y-77491089D01*
X110582500Y-77465500D01*
X110582500Y-75484097D01*
X110602185Y-75417058D01*
X110618819Y-75396416D01*
X111311757Y-74703478D01*
X112189720Y-73825516D01*
X112268777Y-73688584D01*
X112309701Y-73535857D01*
X112309701Y-73525512D01*
X112329386Y-73458473D01*
X112360816Y-73425194D01*
X112395389Y-73400074D01*
X112504302Y-73320945D01*
X112640145Y-73185102D01*
X112753065Y-73029681D01*
X112840282Y-72858509D01*
X112840343Y-72858321D01*
X112861532Y-72793109D01*
X112900969Y-72735433D01*
X112965327Y-72708234D01*
X113034173Y-72720148D01*
X113085650Y-72767392D01*
X113097394Y-72793107D01*
X113118583Y-72858321D01*
X113205761Y-73029415D01*
X113226998Y-73058646D01*
X113849200Y-72436445D01*
X113849200Y-72442661D01*
X113876459Y-72544394D01*
X113929120Y-72635606D01*
X114003594Y-72710080D01*
X114094806Y-72762741D01*
X114196539Y-72790000D01*
X114202754Y-72790000D01*
X113580551Y-73412200D01*
X113580552Y-73412201D01*
X113609777Y-73433434D01*
X113780878Y-73520616D01*
X113963515Y-73579959D01*
X114153185Y-73610000D01*
X114345215Y-73610000D01*
X114534884Y-73579959D01*
X114717521Y-73520616D01*
X114888619Y-73433436D01*
X114917846Y-73412201D01*
X114917846Y-73412200D01*
X114295647Y-72790000D01*
X114301861Y-72790000D01*
X114403594Y-72762741D01*
X114494806Y-72710080D01*
X114569280Y-72635606D01*
X114621941Y-72544394D01*
X114649200Y-72442661D01*
X114649200Y-72436446D01*
X115271400Y-73058646D01*
X115271401Y-73058646D01*
X115292636Y-73029419D01*
X115379816Y-72858321D01*
X115439159Y-72675684D01*
X115469200Y-72486015D01*
X115469200Y-72293984D01*
X115439159Y-72104315D01*
X115379816Y-71921678D01*
X115292634Y-71750577D01*
X115271401Y-71721352D01*
X115271400Y-71721351D01*
X114649200Y-72343552D01*
X114649200Y-72337339D01*
X114621941Y-72235606D01*
X114569280Y-72144394D01*
X114494806Y-72069920D01*
X114403594Y-72017259D01*
X114301861Y-71990000D01*
X114295647Y-71990000D01*
X114917846Y-71367798D01*
X114888615Y-71346561D01*
X114717521Y-71259383D01*
X114534884Y-71200040D01*
X114345215Y-71170000D01*
X114153185Y-71170000D01*
X113963515Y-71200040D01*
X113780878Y-71259383D01*
X113609778Y-71346564D01*
X113580552Y-71367798D01*
X113580551Y-71367798D01*
X114202754Y-71990000D01*
X114196539Y-71990000D01*
X114094806Y-72017259D01*
X114003594Y-72069920D01*
X113929120Y-72144394D01*
X113876459Y-72235606D01*
X113849200Y-72337339D01*
X113849200Y-72343553D01*
X113226998Y-71721351D01*
X113226998Y-71721352D01*
X113205764Y-71750578D01*
X113118584Y-71921677D01*
X113097394Y-71986893D01*
X113057955Y-72044568D01*
X112993596Y-72071765D01*
X112924750Y-72059850D01*
X112873275Y-72012605D01*
X112861532Y-71986890D01*
X112840284Y-71921495D01*
X112840282Y-71921491D01*
X112753065Y-71750319D01*
X112640145Y-71594898D01*
X112504302Y-71459055D01*
X112348881Y-71346135D01*
X112177706Y-71258916D01*
X111995002Y-71199553D01*
X111900128Y-71184526D01*
X111805255Y-71169500D01*
X111613145Y-71169500D01*
X111549896Y-71179517D01*
X111423397Y-71199553D01*
X111240693Y-71258916D01*
X111069518Y-71346135D01*
X111039702Y-71367798D01*
X110914098Y-71459055D01*
X110914096Y-71459057D01*
X110914095Y-71459057D01*
X110778257Y-71594895D01*
X110778257Y-71594896D01*
X110778255Y-71594898D01*
X110729760Y-71661645D01*
X110665335Y-71750318D01*
X110578116Y-71921493D01*
X110557131Y-71986081D01*
X110517694Y-72043756D01*
X110453335Y-72070955D01*
X110384489Y-72059041D01*
X110333013Y-72011797D01*
X110321269Y-71986081D01*
X110300283Y-71921493D01*
X110300282Y-71921491D01*
X110213065Y-71750319D01*
X110100145Y-71594898D01*
X109964302Y-71459055D01*
X109808881Y-71346135D01*
X109637706Y-71258916D01*
X109455002Y-71199553D01*
X109360128Y-71184526D01*
X109265255Y-71169500D01*
X109073145Y-71169500D01*
X109009896Y-71179517D01*
X108883397Y-71199553D01*
X108700693Y-71258916D01*
X108529518Y-71346135D01*
X108499702Y-71367798D01*
X108374098Y-71459055D01*
X108374096Y-71459057D01*
X108374095Y-71459057D01*
X108238257Y-71594895D01*
X108238257Y-71594896D01*
X108238255Y-71594898D01*
X108189760Y-71661645D01*
X108125335Y-71750318D01*
X108038116Y-71921493D01*
X107978753Y-72104197D01*
X107948700Y-72293945D01*
X107948700Y-72486054D01*
X107978753Y-72675802D01*
X108038116Y-72858506D01*
X108038118Y-72858509D01*
X108125335Y-73029681D01*
X108238255Y-73185102D01*
X108374098Y-73320945D01*
X108451088Y-73376882D01*
X108493754Y-73432210D01*
X108499733Y-73501824D01*
X108467128Y-73563619D01*
X108465884Y-73564880D01*
X107991584Y-74039181D01*
X107930261Y-74072666D01*
X107903903Y-74075500D01*
X102790940Y-74075500D01*
X102750019Y-74086464D01*
X102750019Y-74086465D01*
X102712751Y-74096451D01*
X102638214Y-74116423D01*
X102638209Y-74116426D01*
X102501290Y-74195475D01*
X102501282Y-74195481D01*
X102389478Y-74307286D01*
X101683582Y-75013181D01*
X101622259Y-75046666D01*
X101595901Y-75049500D01*
X101119629Y-75049500D01*
X101119623Y-75049501D01*
X101060016Y-75055908D01*
X100925171Y-75106202D01*
X100925164Y-75106206D01*
X100809955Y-75192452D01*
X100809952Y-75192455D01*
X100723706Y-75307664D01*
X100723702Y-75307671D01*
X100673408Y-75442517D01*
X100667001Y-75502116D01*
X100667001Y-75502123D01*
X100667000Y-75502135D01*
X100667000Y-76897870D01*
X100667001Y-76897876D01*
X100673408Y-76957483D01*
X100723702Y-77092328D01*
X100723706Y-77092335D01*
X100809952Y-77207544D01*
X100809955Y-77207547D01*
X100925164Y-77293793D01*
X100925171Y-77293797D01*
X100964013Y-77308284D01*
X101060017Y-77344091D01*
X101119627Y-77350500D01*
X101145097Y-77350499D01*
X101212135Y-77370181D01*
X101257892Y-77422984D01*
X101267837Y-77492142D01*
X101238815Y-77555698D01*
X101180038Y-77593475D01*
X101173627Y-77595173D01*
X101170521Y-77595907D01*
X101035671Y-77646202D01*
X101035664Y-77646206D01*
X100920455Y-77732452D01*
X100920452Y-77732455D01*
X100834206Y-77847664D01*
X100834202Y-77847671D01*
X100783910Y-77982513D01*
X100783909Y-77982517D01*
X100778937Y-78028757D01*
X100752201Y-78093306D01*
X100694809Y-78133154D01*
X100655649Y-78139500D01*
X100385351Y-78139500D01*
X100318312Y-78119815D01*
X100272557Y-78067011D01*
X100262061Y-78028752D01*
X100257091Y-77982516D01*
X100206797Y-77847671D01*
X100206793Y-77847664D01*
X100120547Y-77732455D01*
X100120544Y-77732452D01*
X100005335Y-77646206D01*
X100005328Y-77646202D01*
X99870482Y-77595908D01*
X99870483Y-77595908D01*
X99810883Y-77589501D01*
X99810881Y-77589500D01*
X99810873Y-77589500D01*
X99810865Y-77589500D01*
X99706386Y-77589500D01*
X99639347Y-77569815D01*
X99593592Y-77517011D01*
X99586614Y-77497601D01*
X99572577Y-77445215D01*
X99540410Y-77389500D01*
X99493520Y-77308284D01*
X99381716Y-77196480D01*
X99381715Y-77196479D01*
X99377385Y-77192149D01*
X99377374Y-77192139D01*
X99293590Y-77108355D01*
X99293588Y-77108352D01*
X99174717Y-76989481D01*
X99174716Y-76989480D01*
X99087904Y-76939360D01*
X99087904Y-76939359D01*
X99087900Y-76939358D01*
X99037785Y-76910423D01*
X98885057Y-76869499D01*
X98726943Y-76869499D01*
X98719347Y-76869499D01*
X98719331Y-76869500D01*
X96186941Y-76869500D01*
X96151562Y-76878979D01*
X96151563Y-76878980D01*
X96034214Y-76910423D01*
X96034209Y-76910426D01*
X95897290Y-76989475D01*
X95897282Y-76989481D01*
X95277481Y-77609282D01*
X95277479Y-77609285D01*
X95227361Y-77696094D01*
X95227359Y-77696096D01*
X95198425Y-77746209D01*
X95198424Y-77746210D01*
X95198423Y-77746215D01*
X95157499Y-77898943D01*
X95157499Y-77898945D01*
X95157499Y-78067046D01*
X95157500Y-78067059D01*
X95157500Y-78439903D01*
X95137815Y-78506942D01*
X95121181Y-78527584D01*
X94275584Y-79373181D01*
X94214261Y-79406666D01*
X94187903Y-79409500D01*
X91543137Y-79409500D01*
X91476098Y-79389815D01*
X91430343Y-79337011D01*
X91420399Y-79267853D01*
X91425206Y-79247182D01*
X91432733Y-79224015D01*
X91487246Y-79056243D01*
X91520500Y-78846287D01*
X91520500Y-78633713D01*
X91487246Y-78423757D01*
X91421557Y-78221588D01*
X91325051Y-78032184D01*
X91325049Y-78032181D01*
X91325048Y-78032179D01*
X91200109Y-77860213D01*
X91086569Y-77746673D01*
X91053084Y-77685350D01*
X91058068Y-77615658D01*
X91099940Y-77559725D01*
X91130915Y-77542810D01*
X91262331Y-77493796D01*
X91377546Y-77407546D01*
X91463796Y-77292331D01*
X91514091Y-77157483D01*
X91520500Y-77097873D01*
X91520499Y-75302128D01*
X91514091Y-75242517D01*
X91498046Y-75199499D01*
X91463797Y-75107671D01*
X91463793Y-75107664D01*
X91377547Y-74992455D01*
X91377544Y-74992452D01*
X91262335Y-74906206D01*
X91262328Y-74906202D01*
X91127482Y-74855908D01*
X91127483Y-74855908D01*
X91067883Y-74849501D01*
X91067881Y-74849500D01*
X91067873Y-74849500D01*
X91067864Y-74849500D01*
X89272129Y-74849500D01*
X89272123Y-74849501D01*
X89212516Y-74855908D01*
X89077671Y-74906202D01*
X89077664Y-74906206D01*
X88962455Y-74992452D01*
X88962452Y-74992455D01*
X88876206Y-75107664D01*
X88876202Y-75107671D01*
X88825908Y-75242517D01*
X88821050Y-75287707D01*
X88819501Y-75302123D01*
X88819500Y-75302135D01*
X88819500Y-77097870D01*
X88819501Y-77097876D01*
X88825908Y-77157483D01*
X88876202Y-77292328D01*
X88876206Y-77292335D01*
X88962452Y-77407544D01*
X88962455Y-77407547D01*
X89077664Y-77493793D01*
X89077671Y-77493797D01*
X89209082Y-77542810D01*
X89265016Y-77584681D01*
X89289433Y-77650145D01*
X89274582Y-77718418D01*
X89253431Y-77746673D01*
X89139889Y-77860215D01*
X89014951Y-78032179D01*
X88918444Y-78221585D01*
X88852753Y-78423760D01*
X88819500Y-78633713D01*
X88819500Y-78846286D01*
X88852753Y-79056239D01*
X88918444Y-79258414D01*
X89014951Y-79447820D01*
X89139890Y-79619786D01*
X89159580Y-79639476D01*
X89193065Y-79700799D01*
X89188081Y-79770491D01*
X89159580Y-79814838D01*
X88539481Y-80434936D01*
X88539479Y-80434939D01*
X88507392Y-80490517D01*
X88507391Y-80490519D01*
X88460423Y-80571868D01*
X88450072Y-80610500D01*
X88419499Y-80724597D01*
X88419499Y-80724599D01*
X88419499Y-80892700D01*
X88419500Y-80892713D01*
X88419500Y-82583330D01*
X88419499Y-82583348D01*
X88419499Y-82749054D01*
X88419498Y-82749054D01*
X88449901Y-82862516D01*
X88460423Y-82901785D01*
X88478658Y-82933368D01*
X88514900Y-82996142D01*
X88539479Y-83038715D01*
X88658349Y-83157585D01*
X88658355Y-83157590D01*
X88836241Y-83335476D01*
X88869726Y-83396799D01*
X88866492Y-83461473D01*
X88852753Y-83503757D01*
X88822554Y-83694431D01*
X88819500Y-83713713D01*
X88819500Y-83926287D01*
X88836127Y-84031265D01*
X88852754Y-84136244D01*
X88852754Y-84136247D01*
X88866491Y-84178523D01*
X88868486Y-84248364D01*
X88836241Y-84304522D01*
X88531286Y-84609478D01*
X88419481Y-84721282D01*
X88419479Y-84721285D01*
X88370223Y-84806601D01*
X88370221Y-84806603D01*
X88340425Y-84858209D01*
X88340424Y-84858210D01*
X88340423Y-84858215D01*
X88299499Y-85010943D01*
X88299499Y-85169057D01*
X88299499Y-85169059D01*
X88299500Y-85179053D01*
X88299500Y-86629676D01*
X88299499Y-86629694D01*
X88299499Y-86795400D01*
X88299498Y-86795400D01*
X87376000Y-86795400D01*
X87376000Y-69466000D01*
X87395685Y-69398961D01*
X87448489Y-69353206D01*
X87500000Y-69342000D01*
X123066000Y-69342000D01*
X123133039Y-69361685D01*
G37*
%TD.AperFunction*%
%TD*%
M02*
