%TF.GenerationSoftware,KiCad,Pcbnew,10.0.1*%
%TF.CreationDate,2026-05-14T11:00:22+02:00*%
%TF.ProjectId,DualAmpOP,4475616c-416d-4704-9f50-2e6b69636164,1.0*%
%TF.SameCoordinates,Original*%
%TF.FileFunction,Legend,Top*%
%TF.FilePolarity,Positive*%
%FSLAX46Y46*%
G04 Gerber Fmt 4.6, Leading zero omitted, Abs format (unit mm)*
G04 Created by KiCad (PCBNEW 10.0.1) date 2026-05-14 11:00:22*
%MOMM*%
%LPD*%
G01*
G04 APERTURE LIST*
%ADD10C,0.150000*%
%ADD11C,0.200000*%
%ADD12C,0.120000*%
G04 APERTURE END LIST*
D10*
X88154704Y-75104874D02*
X87354704Y-75371541D01*
X87354704Y-75371541D02*
X88154704Y-75638207D01*
X87430895Y-76362017D02*
X87392800Y-76323921D01*
X87392800Y-76323921D02*
X87354704Y-76209636D01*
X87354704Y-76209636D02*
X87354704Y-76133445D01*
X87354704Y-76133445D02*
X87392800Y-76019159D01*
X87392800Y-76019159D02*
X87468990Y-75942969D01*
X87468990Y-75942969D02*
X87545180Y-75904874D01*
X87545180Y-75904874D02*
X87697561Y-75866778D01*
X87697561Y-75866778D02*
X87811847Y-75866778D01*
X87811847Y-75866778D02*
X87964228Y-75904874D01*
X87964228Y-75904874D02*
X88040419Y-75942969D01*
X88040419Y-75942969D02*
X88116609Y-76019159D01*
X88116609Y-76019159D02*
X88154704Y-76133445D01*
X88154704Y-76133445D02*
X88154704Y-76209636D01*
X88154704Y-76209636D02*
X88116609Y-76323921D01*
X88116609Y-76323921D02*
X88078514Y-76362017D01*
X87430895Y-77162017D02*
X87392800Y-77123921D01*
X87392800Y-77123921D02*
X87354704Y-77009636D01*
X87354704Y-77009636D02*
X87354704Y-76933445D01*
X87354704Y-76933445D02*
X87392800Y-76819159D01*
X87392800Y-76819159D02*
X87468990Y-76742969D01*
X87468990Y-76742969D02*
X87545180Y-76704874D01*
X87545180Y-76704874D02*
X87697561Y-76666778D01*
X87697561Y-76666778D02*
X87811847Y-76666778D01*
X87811847Y-76666778D02*
X87964228Y-76704874D01*
X87964228Y-76704874D02*
X88040419Y-76742969D01*
X88040419Y-76742969D02*
X88116609Y-76819159D01*
X88116609Y-76819159D02*
X88154704Y-76933445D01*
X88154704Y-76933445D02*
X88154704Y-77009636D01*
X88154704Y-77009636D02*
X88116609Y-77123921D01*
X88116609Y-77123921D02*
X88078514Y-77162017D01*
X87354704Y-78533445D02*
X87354704Y-78076302D01*
X87354704Y-78304874D02*
X88154704Y-78304874D01*
X88154704Y-78304874D02*
X88040419Y-78228683D01*
X88040419Y-78228683D02*
X87964228Y-78152493D01*
X87964228Y-78152493D02*
X87926133Y-78076302D01*
X87659466Y-78876303D02*
X87659466Y-79485827D01*
X87354704Y-79181065D02*
X87964228Y-79181065D01*
X87354704Y-80895350D02*
X87354704Y-80438207D01*
X87354704Y-80666779D02*
X88154704Y-80666779D01*
X88154704Y-80666779D02*
X88040419Y-80590588D01*
X88040419Y-80590588D02*
X87964228Y-80514398D01*
X87964228Y-80514398D02*
X87926133Y-80438207D01*
X87659466Y-81238208D02*
X87659466Y-81847732D01*
X87354704Y-83257255D02*
X87354704Y-82800112D01*
X87354704Y-83028684D02*
X88154704Y-83028684D01*
X88154704Y-83028684D02*
X88040419Y-82952493D01*
X88040419Y-82952493D02*
X87964228Y-82876303D01*
X87964228Y-82876303D02*
X87926133Y-82800112D01*
X87354704Y-83714398D02*
X87392800Y-83638208D01*
X87392800Y-83638208D02*
X87430895Y-83600113D01*
X87430895Y-83600113D02*
X87507085Y-83562017D01*
X87507085Y-83562017D02*
X87735657Y-83562017D01*
X87735657Y-83562017D02*
X87811847Y-83600113D01*
X87811847Y-83600113D02*
X87849942Y-83638208D01*
X87849942Y-83638208D02*
X87888038Y-83714398D01*
X87888038Y-83714398D02*
X87888038Y-83828684D01*
X87888038Y-83828684D02*
X87849942Y-83904875D01*
X87849942Y-83904875D02*
X87811847Y-83942970D01*
X87811847Y-83942970D02*
X87735657Y-83981065D01*
X87735657Y-83981065D02*
X87507085Y-83981065D01*
X87507085Y-83981065D02*
X87430895Y-83942970D01*
X87430895Y-83942970D02*
X87392800Y-83904875D01*
X87392800Y-83904875D02*
X87354704Y-83828684D01*
X87354704Y-83828684D02*
X87354704Y-83714398D01*
X88116609Y-85352494D02*
X88154704Y-85276304D01*
X88154704Y-85276304D02*
X88154704Y-85162018D01*
X88154704Y-85162018D02*
X88116609Y-85047732D01*
X88116609Y-85047732D02*
X88040419Y-84971542D01*
X88040419Y-84971542D02*
X87964228Y-84933447D01*
X87964228Y-84933447D02*
X87811847Y-84895351D01*
X87811847Y-84895351D02*
X87697561Y-84895351D01*
X87697561Y-84895351D02*
X87545180Y-84933447D01*
X87545180Y-84933447D02*
X87468990Y-84971542D01*
X87468990Y-84971542D02*
X87392800Y-85047732D01*
X87392800Y-85047732D02*
X87354704Y-85162018D01*
X87354704Y-85162018D02*
X87354704Y-85238209D01*
X87354704Y-85238209D02*
X87392800Y-85352494D01*
X87392800Y-85352494D02*
X87430895Y-85390590D01*
X87430895Y-85390590D02*
X87697561Y-85390590D01*
X87697561Y-85390590D02*
X87697561Y-85238209D01*
X87354704Y-85733447D02*
X88154704Y-85733447D01*
X88154704Y-85733447D02*
X87354704Y-86190590D01*
X87354704Y-86190590D02*
X88154704Y-86190590D01*
X87354704Y-86571542D02*
X88154704Y-86571542D01*
X88154704Y-86571542D02*
X88154704Y-86762018D01*
X88154704Y-86762018D02*
X88116609Y-86876304D01*
X88116609Y-86876304D02*
X88040419Y-86952494D01*
X88040419Y-86952494D02*
X87964228Y-86990589D01*
X87964228Y-86990589D02*
X87811847Y-87028685D01*
X87811847Y-87028685D02*
X87697561Y-87028685D01*
X87697561Y-87028685D02*
X87545180Y-86990589D01*
X87545180Y-86990589D02*
X87468990Y-86952494D01*
X87468990Y-86952494D02*
X87392800Y-86876304D01*
X87392800Y-86876304D02*
X87354704Y-86762018D01*
X87354704Y-86762018D02*
X87354704Y-86571542D01*
X88154704Y-87866780D02*
X87354704Y-88133447D01*
X87354704Y-88133447D02*
X88154704Y-88400113D01*
X87354704Y-88666780D02*
X88154704Y-88666780D01*
X88154704Y-88666780D02*
X88154704Y-88857256D01*
X88154704Y-88857256D02*
X88116609Y-88971542D01*
X88116609Y-88971542D02*
X88040419Y-89047732D01*
X88040419Y-89047732D02*
X87964228Y-89085827D01*
X87964228Y-89085827D02*
X87811847Y-89123923D01*
X87811847Y-89123923D02*
X87697561Y-89123923D01*
X87697561Y-89123923D02*
X87545180Y-89085827D01*
X87545180Y-89085827D02*
X87468990Y-89047732D01*
X87468990Y-89047732D02*
X87392800Y-88971542D01*
X87392800Y-88971542D02*
X87354704Y-88857256D01*
X87354704Y-88857256D02*
X87354704Y-88666780D01*
X87354704Y-89466780D02*
X88154704Y-89466780D01*
X88154704Y-89466780D02*
X88154704Y-89657256D01*
X88154704Y-89657256D02*
X88116609Y-89771542D01*
X88116609Y-89771542D02*
X88040419Y-89847732D01*
X88040419Y-89847732D02*
X87964228Y-89885827D01*
X87964228Y-89885827D02*
X87811847Y-89923923D01*
X87811847Y-89923923D02*
X87697561Y-89923923D01*
X87697561Y-89923923D02*
X87545180Y-89885827D01*
X87545180Y-89885827D02*
X87468990Y-89847732D01*
X87468990Y-89847732D02*
X87392800Y-89771542D01*
X87392800Y-89771542D02*
X87354704Y-89657256D01*
X87354704Y-89657256D02*
X87354704Y-89466780D01*
D11*
X89777673Y-71495219D02*
X89777673Y-70495219D01*
X89777673Y-70495219D02*
X90015768Y-70495219D01*
X90015768Y-70495219D02*
X90158625Y-70542838D01*
X90158625Y-70542838D02*
X90253863Y-70638076D01*
X90253863Y-70638076D02*
X90301482Y-70733314D01*
X90301482Y-70733314D02*
X90349101Y-70923790D01*
X90349101Y-70923790D02*
X90349101Y-71066647D01*
X90349101Y-71066647D02*
X90301482Y-71257123D01*
X90301482Y-71257123D02*
X90253863Y-71352361D01*
X90253863Y-71352361D02*
X90158625Y-71447600D01*
X90158625Y-71447600D02*
X90015768Y-71495219D01*
X90015768Y-71495219D02*
X89777673Y-71495219D01*
X91206244Y-70828552D02*
X91206244Y-71495219D01*
X90777673Y-70828552D02*
X90777673Y-71352361D01*
X90777673Y-71352361D02*
X90825292Y-71447600D01*
X90825292Y-71447600D02*
X90920530Y-71495219D01*
X90920530Y-71495219D02*
X91063387Y-71495219D01*
X91063387Y-71495219D02*
X91158625Y-71447600D01*
X91158625Y-71447600D02*
X91206244Y-71399980D01*
X92111006Y-71495219D02*
X92111006Y-70971409D01*
X92111006Y-70971409D02*
X92063387Y-70876171D01*
X92063387Y-70876171D02*
X91968149Y-70828552D01*
X91968149Y-70828552D02*
X91777673Y-70828552D01*
X91777673Y-70828552D02*
X91682435Y-70876171D01*
X92111006Y-71447600D02*
X92015768Y-71495219D01*
X92015768Y-71495219D02*
X91777673Y-71495219D01*
X91777673Y-71495219D02*
X91682435Y-71447600D01*
X91682435Y-71447600D02*
X91634816Y-71352361D01*
X91634816Y-71352361D02*
X91634816Y-71257123D01*
X91634816Y-71257123D02*
X91682435Y-71161885D01*
X91682435Y-71161885D02*
X91777673Y-71114266D01*
X91777673Y-71114266D02*
X92015768Y-71114266D01*
X92015768Y-71114266D02*
X92111006Y-71066647D01*
X92730054Y-71495219D02*
X92634816Y-71447600D01*
X92634816Y-71447600D02*
X92587197Y-71352361D01*
X92587197Y-71352361D02*
X92587197Y-70495219D01*
X93825293Y-71209504D02*
X94301483Y-71209504D01*
X93730055Y-71495219D02*
X94063388Y-70495219D01*
X94063388Y-70495219D02*
X94396721Y-71495219D01*
X94730055Y-71495219D02*
X94730055Y-70828552D01*
X94730055Y-70923790D02*
X94777674Y-70876171D01*
X94777674Y-70876171D02*
X94872912Y-70828552D01*
X94872912Y-70828552D02*
X95015769Y-70828552D01*
X95015769Y-70828552D02*
X95111007Y-70876171D01*
X95111007Y-70876171D02*
X95158626Y-70971409D01*
X95158626Y-70971409D02*
X95158626Y-71495219D01*
X95158626Y-70971409D02*
X95206245Y-70876171D01*
X95206245Y-70876171D02*
X95301483Y-70828552D01*
X95301483Y-70828552D02*
X95444340Y-70828552D01*
X95444340Y-70828552D02*
X95539579Y-70876171D01*
X95539579Y-70876171D02*
X95587198Y-70971409D01*
X95587198Y-70971409D02*
X95587198Y-71495219D01*
X96063388Y-70828552D02*
X96063388Y-71828552D01*
X96063388Y-70876171D02*
X96158626Y-70828552D01*
X96158626Y-70828552D02*
X96349102Y-70828552D01*
X96349102Y-70828552D02*
X96444340Y-70876171D01*
X96444340Y-70876171D02*
X96491959Y-70923790D01*
X96491959Y-70923790D02*
X96539578Y-71019028D01*
X96539578Y-71019028D02*
X96539578Y-71304742D01*
X96539578Y-71304742D02*
X96491959Y-71399980D01*
X96491959Y-71399980D02*
X96444340Y-71447600D01*
X96444340Y-71447600D02*
X96349102Y-71495219D01*
X96349102Y-71495219D02*
X96158626Y-71495219D01*
X96158626Y-71495219D02*
X96063388Y-71447600D01*
X97158626Y-70495219D02*
X97349102Y-70495219D01*
X97349102Y-70495219D02*
X97444340Y-70542838D01*
X97444340Y-70542838D02*
X97539578Y-70638076D01*
X97539578Y-70638076D02*
X97587197Y-70828552D01*
X97587197Y-70828552D02*
X97587197Y-71161885D01*
X97587197Y-71161885D02*
X97539578Y-71352361D01*
X97539578Y-71352361D02*
X97444340Y-71447600D01*
X97444340Y-71447600D02*
X97349102Y-71495219D01*
X97349102Y-71495219D02*
X97158626Y-71495219D01*
X97158626Y-71495219D02*
X97063388Y-71447600D01*
X97063388Y-71447600D02*
X96968150Y-71352361D01*
X96968150Y-71352361D02*
X96920531Y-71161885D01*
X96920531Y-71161885D02*
X96920531Y-70828552D01*
X96920531Y-70828552D02*
X96968150Y-70638076D01*
X96968150Y-70638076D02*
X97063388Y-70542838D01*
X97063388Y-70542838D02*
X97158626Y-70495219D01*
X98015769Y-71495219D02*
X98015769Y-70495219D01*
X98015769Y-70495219D02*
X98396721Y-70495219D01*
X98396721Y-70495219D02*
X98491959Y-70542838D01*
X98491959Y-70542838D02*
X98539578Y-70590457D01*
X98539578Y-70590457D02*
X98587197Y-70685695D01*
X98587197Y-70685695D02*
X98587197Y-70828552D01*
X98587197Y-70828552D02*
X98539578Y-70923790D01*
X98539578Y-70923790D02*
X98491959Y-70971409D01*
X98491959Y-70971409D02*
X98396721Y-71019028D01*
X98396721Y-71019028D02*
X98015769Y-71019028D01*
X99634817Y-70495219D02*
X99968150Y-71495219D01*
X99968150Y-71495219D02*
X100301483Y-70495219D01*
X101158626Y-71495219D02*
X100587198Y-71495219D01*
X100872912Y-71495219D02*
X100872912Y-70495219D01*
X100872912Y-70495219D02*
X100777674Y-70638076D01*
X100777674Y-70638076D02*
X100682436Y-70733314D01*
X100682436Y-70733314D02*
X100587198Y-70780933D01*
X101587198Y-71399980D02*
X101634817Y-71447600D01*
X101634817Y-71447600D02*
X101587198Y-71495219D01*
X101587198Y-71495219D02*
X101539579Y-71447600D01*
X101539579Y-71447600D02*
X101587198Y-71399980D01*
X101587198Y-71399980D02*
X101587198Y-71495219D01*
X102253864Y-70495219D02*
X102349102Y-70495219D01*
X102349102Y-70495219D02*
X102444340Y-70542838D01*
X102444340Y-70542838D02*
X102491959Y-70590457D01*
X102491959Y-70590457D02*
X102539578Y-70685695D01*
X102539578Y-70685695D02*
X102587197Y-70876171D01*
X102587197Y-70876171D02*
X102587197Y-71114266D01*
X102587197Y-71114266D02*
X102539578Y-71304742D01*
X102539578Y-71304742D02*
X102491959Y-71399980D01*
X102491959Y-71399980D02*
X102444340Y-71447600D01*
X102444340Y-71447600D02*
X102349102Y-71495219D01*
X102349102Y-71495219D02*
X102253864Y-71495219D01*
X102253864Y-71495219D02*
X102158626Y-71447600D01*
X102158626Y-71447600D02*
X102111007Y-71399980D01*
X102111007Y-71399980D02*
X102063388Y-71304742D01*
X102063388Y-71304742D02*
X102015769Y-71114266D01*
X102015769Y-71114266D02*
X102015769Y-70876171D01*
X102015769Y-70876171D02*
X102063388Y-70685695D01*
X102063388Y-70685695D02*
X102111007Y-70590457D01*
X102111007Y-70590457D02*
X102158626Y-70542838D01*
X102158626Y-70542838D02*
X102253864Y-70495219D01*
D10*
X94516458Y-79194819D02*
X94183125Y-78718628D01*
X93945030Y-79194819D02*
X93945030Y-78194819D01*
X93945030Y-78194819D02*
X94325982Y-78194819D01*
X94325982Y-78194819D02*
X94421220Y-78242438D01*
X94421220Y-78242438D02*
X94468839Y-78290057D01*
X94468839Y-78290057D02*
X94516458Y-78385295D01*
X94516458Y-78385295D02*
X94516458Y-78528152D01*
X94516458Y-78528152D02*
X94468839Y-78623390D01*
X94468839Y-78623390D02*
X94421220Y-78671009D01*
X94421220Y-78671009D02*
X94325982Y-78718628D01*
X94325982Y-78718628D02*
X93945030Y-78718628D01*
X94992649Y-79194819D02*
X95183125Y-79194819D01*
X95183125Y-79194819D02*
X95278363Y-79147200D01*
X95278363Y-79147200D02*
X95325982Y-79099580D01*
X95325982Y-79099580D02*
X95421220Y-78956723D01*
X95421220Y-78956723D02*
X95468839Y-78766247D01*
X95468839Y-78766247D02*
X95468839Y-78385295D01*
X95468839Y-78385295D02*
X95421220Y-78290057D01*
X95421220Y-78290057D02*
X95373601Y-78242438D01*
X95373601Y-78242438D02*
X95278363Y-78194819D01*
X95278363Y-78194819D02*
X95087887Y-78194819D01*
X95087887Y-78194819D02*
X94992649Y-78242438D01*
X94992649Y-78242438D02*
X94945030Y-78290057D01*
X94945030Y-78290057D02*
X94897411Y-78385295D01*
X94897411Y-78385295D02*
X94897411Y-78623390D01*
X94897411Y-78623390D02*
X94945030Y-78718628D01*
X94945030Y-78718628D02*
X94992649Y-78766247D01*
X94992649Y-78766247D02*
X95087887Y-78813866D01*
X95087887Y-78813866D02*
X95278363Y-78813866D01*
X95278363Y-78813866D02*
X95373601Y-78766247D01*
X95373601Y-78766247D02*
X95421220Y-78718628D01*
X95421220Y-78718628D02*
X95468839Y-78623390D01*
X114673142Y-77670819D02*
X114339809Y-77194628D01*
X114101714Y-77670819D02*
X114101714Y-76670819D01*
X114101714Y-76670819D02*
X114482666Y-76670819D01*
X114482666Y-76670819D02*
X114577904Y-76718438D01*
X114577904Y-76718438D02*
X114625523Y-76766057D01*
X114625523Y-76766057D02*
X114673142Y-76861295D01*
X114673142Y-76861295D02*
X114673142Y-77004152D01*
X114673142Y-77004152D02*
X114625523Y-77099390D01*
X114625523Y-77099390D02*
X114577904Y-77147009D01*
X114577904Y-77147009D02*
X114482666Y-77194628D01*
X114482666Y-77194628D02*
X114101714Y-77194628D01*
X115625523Y-77670819D02*
X115054095Y-77670819D01*
X115339809Y-77670819D02*
X115339809Y-76670819D01*
X115339809Y-76670819D02*
X115244571Y-76813676D01*
X115244571Y-76813676D02*
X115149333Y-76908914D01*
X115149333Y-76908914D02*
X115054095Y-76956533D01*
X116006476Y-76766057D02*
X116054095Y-76718438D01*
X116054095Y-76718438D02*
X116149333Y-76670819D01*
X116149333Y-76670819D02*
X116387428Y-76670819D01*
X116387428Y-76670819D02*
X116482666Y-76718438D01*
X116482666Y-76718438D02*
X116530285Y-76766057D01*
X116530285Y-76766057D02*
X116577904Y-76861295D01*
X116577904Y-76861295D02*
X116577904Y-76956533D01*
X116577904Y-76956533D02*
X116530285Y-77099390D01*
X116530285Y-77099390D02*
X115958857Y-77670819D01*
X115958857Y-77670819D02*
X116577904Y-77670819D01*
X114673142Y-80464819D02*
X114339809Y-79988628D01*
X114101714Y-80464819D02*
X114101714Y-79464819D01*
X114101714Y-79464819D02*
X114482666Y-79464819D01*
X114482666Y-79464819D02*
X114577904Y-79512438D01*
X114577904Y-79512438D02*
X114625523Y-79560057D01*
X114625523Y-79560057D02*
X114673142Y-79655295D01*
X114673142Y-79655295D02*
X114673142Y-79798152D01*
X114673142Y-79798152D02*
X114625523Y-79893390D01*
X114625523Y-79893390D02*
X114577904Y-79941009D01*
X114577904Y-79941009D02*
X114482666Y-79988628D01*
X114482666Y-79988628D02*
X114101714Y-79988628D01*
X115625523Y-80464819D02*
X115054095Y-80464819D01*
X115339809Y-80464819D02*
X115339809Y-79464819D01*
X115339809Y-79464819D02*
X115244571Y-79607676D01*
X115244571Y-79607676D02*
X115149333Y-79702914D01*
X115149333Y-79702914D02*
X115054095Y-79750533D01*
X115958857Y-79464819D02*
X116577904Y-79464819D01*
X116577904Y-79464819D02*
X116244571Y-79845771D01*
X116244571Y-79845771D02*
X116387428Y-79845771D01*
X116387428Y-79845771D02*
X116482666Y-79893390D01*
X116482666Y-79893390D02*
X116530285Y-79941009D01*
X116530285Y-79941009D02*
X116577904Y-80036247D01*
X116577904Y-80036247D02*
X116577904Y-80274342D01*
X116577904Y-80274342D02*
X116530285Y-80369580D01*
X116530285Y-80369580D02*
X116482666Y-80417200D01*
X116482666Y-80417200D02*
X116387428Y-80464819D01*
X116387428Y-80464819D02*
X116101714Y-80464819D01*
X116101714Y-80464819D02*
X116006476Y-80417200D01*
X116006476Y-80417200D02*
X115958857Y-80369580D01*
X115149333Y-90783580D02*
X115101714Y-90831200D01*
X115101714Y-90831200D02*
X114958857Y-90878819D01*
X114958857Y-90878819D02*
X114863619Y-90878819D01*
X114863619Y-90878819D02*
X114720762Y-90831200D01*
X114720762Y-90831200D02*
X114625524Y-90735961D01*
X114625524Y-90735961D02*
X114577905Y-90640723D01*
X114577905Y-90640723D02*
X114530286Y-90450247D01*
X114530286Y-90450247D02*
X114530286Y-90307390D01*
X114530286Y-90307390D02*
X114577905Y-90116914D01*
X114577905Y-90116914D02*
X114625524Y-90021676D01*
X114625524Y-90021676D02*
X114720762Y-89926438D01*
X114720762Y-89926438D02*
X114863619Y-89878819D01*
X114863619Y-89878819D02*
X114958857Y-89878819D01*
X114958857Y-89878819D02*
X115101714Y-89926438D01*
X115101714Y-89926438D02*
X115149333Y-89974057D01*
X115530286Y-89974057D02*
X115577905Y-89926438D01*
X115577905Y-89926438D02*
X115673143Y-89878819D01*
X115673143Y-89878819D02*
X115911238Y-89878819D01*
X115911238Y-89878819D02*
X116006476Y-89926438D01*
X116006476Y-89926438D02*
X116054095Y-89974057D01*
X116054095Y-89974057D02*
X116101714Y-90069295D01*
X116101714Y-90069295D02*
X116101714Y-90164533D01*
X116101714Y-90164533D02*
X116054095Y-90307390D01*
X116054095Y-90307390D02*
X115482667Y-90878819D01*
X115482667Y-90878819D02*
X116101714Y-90878819D01*
X105751333Y-89354819D02*
X105418000Y-88878628D01*
X105179905Y-89354819D02*
X105179905Y-88354819D01*
X105179905Y-88354819D02*
X105560857Y-88354819D01*
X105560857Y-88354819D02*
X105656095Y-88402438D01*
X105656095Y-88402438D02*
X105703714Y-88450057D01*
X105703714Y-88450057D02*
X105751333Y-88545295D01*
X105751333Y-88545295D02*
X105751333Y-88688152D01*
X105751333Y-88688152D02*
X105703714Y-88783390D01*
X105703714Y-88783390D02*
X105656095Y-88831009D01*
X105656095Y-88831009D02*
X105560857Y-88878628D01*
X105560857Y-88878628D02*
X105179905Y-88878628D01*
X106322762Y-88783390D02*
X106227524Y-88735771D01*
X106227524Y-88735771D02*
X106179905Y-88688152D01*
X106179905Y-88688152D02*
X106132286Y-88592914D01*
X106132286Y-88592914D02*
X106132286Y-88545295D01*
X106132286Y-88545295D02*
X106179905Y-88450057D01*
X106179905Y-88450057D02*
X106227524Y-88402438D01*
X106227524Y-88402438D02*
X106322762Y-88354819D01*
X106322762Y-88354819D02*
X106513238Y-88354819D01*
X106513238Y-88354819D02*
X106608476Y-88402438D01*
X106608476Y-88402438D02*
X106656095Y-88450057D01*
X106656095Y-88450057D02*
X106703714Y-88545295D01*
X106703714Y-88545295D02*
X106703714Y-88592914D01*
X106703714Y-88592914D02*
X106656095Y-88688152D01*
X106656095Y-88688152D02*
X106608476Y-88735771D01*
X106608476Y-88735771D02*
X106513238Y-88783390D01*
X106513238Y-88783390D02*
X106322762Y-88783390D01*
X106322762Y-88783390D02*
X106227524Y-88831009D01*
X106227524Y-88831009D02*
X106179905Y-88878628D01*
X106179905Y-88878628D02*
X106132286Y-88973866D01*
X106132286Y-88973866D02*
X106132286Y-89164342D01*
X106132286Y-89164342D02*
X106179905Y-89259580D01*
X106179905Y-89259580D02*
X106227524Y-89307200D01*
X106227524Y-89307200D02*
X106322762Y-89354819D01*
X106322762Y-89354819D02*
X106513238Y-89354819D01*
X106513238Y-89354819D02*
X106608476Y-89307200D01*
X106608476Y-89307200D02*
X106656095Y-89259580D01*
X106656095Y-89259580D02*
X106703714Y-89164342D01*
X106703714Y-89164342D02*
X106703714Y-88973866D01*
X106703714Y-88973866D02*
X106656095Y-88878628D01*
X106656095Y-88878628D02*
X106608476Y-88831009D01*
X106608476Y-88831009D02*
X106513238Y-88783390D01*
X105751333Y-84274819D02*
X105418000Y-83798628D01*
X105179905Y-84274819D02*
X105179905Y-83274819D01*
X105179905Y-83274819D02*
X105560857Y-83274819D01*
X105560857Y-83274819D02*
X105656095Y-83322438D01*
X105656095Y-83322438D02*
X105703714Y-83370057D01*
X105703714Y-83370057D02*
X105751333Y-83465295D01*
X105751333Y-83465295D02*
X105751333Y-83608152D01*
X105751333Y-83608152D02*
X105703714Y-83703390D01*
X105703714Y-83703390D02*
X105656095Y-83751009D01*
X105656095Y-83751009D02*
X105560857Y-83798628D01*
X105560857Y-83798628D02*
X105179905Y-83798628D01*
X106608476Y-83608152D02*
X106608476Y-84274819D01*
X106370381Y-83227200D02*
X106132286Y-83941485D01*
X106132286Y-83941485D02*
X106751333Y-83941485D01*
X117117905Y-71066819D02*
X117117905Y-70066819D01*
X117117905Y-70066819D02*
X117498857Y-70066819D01*
X117498857Y-70066819D02*
X117594095Y-70114438D01*
X117594095Y-70114438D02*
X117641714Y-70162057D01*
X117641714Y-70162057D02*
X117689333Y-70257295D01*
X117689333Y-70257295D02*
X117689333Y-70400152D01*
X117689333Y-70400152D02*
X117641714Y-70495390D01*
X117641714Y-70495390D02*
X117594095Y-70543009D01*
X117594095Y-70543009D02*
X117498857Y-70590628D01*
X117498857Y-70590628D02*
X117117905Y-70590628D01*
X118641714Y-71066819D02*
X118070286Y-71066819D01*
X118356000Y-71066819D02*
X118356000Y-70066819D01*
X118356000Y-70066819D02*
X118260762Y-70209676D01*
X118260762Y-70209676D02*
X118165524Y-70304914D01*
X118165524Y-70304914D02*
X118070286Y-70352533D01*
X105671333Y-79194819D02*
X105338000Y-78718628D01*
X105099905Y-79194819D02*
X105099905Y-78194819D01*
X105099905Y-78194819D02*
X105480857Y-78194819D01*
X105480857Y-78194819D02*
X105576095Y-78242438D01*
X105576095Y-78242438D02*
X105623714Y-78290057D01*
X105623714Y-78290057D02*
X105671333Y-78385295D01*
X105671333Y-78385295D02*
X105671333Y-78528152D01*
X105671333Y-78528152D02*
X105623714Y-78623390D01*
X105623714Y-78623390D02*
X105576095Y-78671009D01*
X105576095Y-78671009D02*
X105480857Y-78718628D01*
X105480857Y-78718628D02*
X105099905Y-78718628D01*
X106052286Y-78290057D02*
X106099905Y-78242438D01*
X106099905Y-78242438D02*
X106195143Y-78194819D01*
X106195143Y-78194819D02*
X106433238Y-78194819D01*
X106433238Y-78194819D02*
X106528476Y-78242438D01*
X106528476Y-78242438D02*
X106576095Y-78290057D01*
X106576095Y-78290057D02*
X106623714Y-78385295D01*
X106623714Y-78385295D02*
X106623714Y-78480533D01*
X106623714Y-78480533D02*
X106576095Y-78623390D01*
X106576095Y-78623390D02*
X106004667Y-79194819D01*
X106004667Y-79194819D02*
X106623714Y-79194819D01*
X107783333Y-81639580D02*
X107735714Y-81687200D01*
X107735714Y-81687200D02*
X107592857Y-81734819D01*
X107592857Y-81734819D02*
X107497619Y-81734819D01*
X107497619Y-81734819D02*
X107354762Y-81687200D01*
X107354762Y-81687200D02*
X107259524Y-81591961D01*
X107259524Y-81591961D02*
X107211905Y-81496723D01*
X107211905Y-81496723D02*
X107164286Y-81306247D01*
X107164286Y-81306247D02*
X107164286Y-81163390D01*
X107164286Y-81163390D02*
X107211905Y-80972914D01*
X107211905Y-80972914D02*
X107259524Y-80877676D01*
X107259524Y-80877676D02*
X107354762Y-80782438D01*
X107354762Y-80782438D02*
X107497619Y-80734819D01*
X107497619Y-80734819D02*
X107592857Y-80734819D01*
X107592857Y-80734819D02*
X107735714Y-80782438D01*
X107735714Y-80782438D02*
X107783333Y-80830057D01*
X108735714Y-81734819D02*
X108164286Y-81734819D01*
X108450000Y-81734819D02*
X108450000Y-80734819D01*
X108450000Y-80734819D02*
X108354762Y-80877676D01*
X108354762Y-80877676D02*
X108259524Y-80972914D01*
X108259524Y-80972914D02*
X108164286Y-81020533D01*
X116840095Y-87592819D02*
X116840095Y-88402342D01*
X116840095Y-88402342D02*
X116887714Y-88497580D01*
X116887714Y-88497580D02*
X116935333Y-88545200D01*
X116935333Y-88545200D02*
X117030571Y-88592819D01*
X117030571Y-88592819D02*
X117221047Y-88592819D01*
X117221047Y-88592819D02*
X117316285Y-88545200D01*
X117316285Y-88545200D02*
X117363904Y-88497580D01*
X117363904Y-88497580D02*
X117411523Y-88402342D01*
X117411523Y-88402342D02*
X117411523Y-87592819D01*
X118411523Y-88592819D02*
X117840095Y-88592819D01*
X118125809Y-88592819D02*
X118125809Y-87592819D01*
X118125809Y-87592819D02*
X118030571Y-87735676D01*
X118030571Y-87735676D02*
X117935333Y-87830914D01*
X117935333Y-87830914D02*
X117840095Y-87878533D01*
X94516458Y-89354819D02*
X94183125Y-88878628D01*
X93945030Y-89354819D02*
X93945030Y-88354819D01*
X93945030Y-88354819D02*
X94325982Y-88354819D01*
X94325982Y-88354819D02*
X94421220Y-88402438D01*
X94421220Y-88402438D02*
X94468839Y-88450057D01*
X94468839Y-88450057D02*
X94516458Y-88545295D01*
X94516458Y-88545295D02*
X94516458Y-88688152D01*
X94516458Y-88688152D02*
X94468839Y-88783390D01*
X94468839Y-88783390D02*
X94421220Y-88831009D01*
X94421220Y-88831009D02*
X94325982Y-88878628D01*
X94325982Y-88878628D02*
X93945030Y-88878628D01*
X95373601Y-88354819D02*
X95183125Y-88354819D01*
X95183125Y-88354819D02*
X95087887Y-88402438D01*
X95087887Y-88402438D02*
X95040268Y-88450057D01*
X95040268Y-88450057D02*
X94945030Y-88592914D01*
X94945030Y-88592914D02*
X94897411Y-88783390D01*
X94897411Y-88783390D02*
X94897411Y-89164342D01*
X94897411Y-89164342D02*
X94945030Y-89259580D01*
X94945030Y-89259580D02*
X94992649Y-89307200D01*
X94992649Y-89307200D02*
X95087887Y-89354819D01*
X95087887Y-89354819D02*
X95278363Y-89354819D01*
X95278363Y-89354819D02*
X95373601Y-89307200D01*
X95373601Y-89307200D02*
X95421220Y-89259580D01*
X95421220Y-89259580D02*
X95468839Y-89164342D01*
X95468839Y-89164342D02*
X95468839Y-88926247D01*
X95468839Y-88926247D02*
X95421220Y-88831009D01*
X95421220Y-88831009D02*
X95373601Y-88783390D01*
X95373601Y-88783390D02*
X95278363Y-88735771D01*
X95278363Y-88735771D02*
X95087887Y-88735771D01*
X95087887Y-88735771D02*
X94992649Y-88783390D01*
X94992649Y-88783390D02*
X94945030Y-88831009D01*
X94945030Y-88831009D02*
X94897411Y-88926247D01*
X93564077Y-81734819D02*
X93230744Y-81258628D01*
X92992649Y-81734819D02*
X92992649Y-80734819D01*
X92992649Y-80734819D02*
X93373601Y-80734819D01*
X93373601Y-80734819D02*
X93468839Y-80782438D01*
X93468839Y-80782438D02*
X93516458Y-80830057D01*
X93516458Y-80830057D02*
X93564077Y-80925295D01*
X93564077Y-80925295D02*
X93564077Y-81068152D01*
X93564077Y-81068152D02*
X93516458Y-81163390D01*
X93516458Y-81163390D02*
X93468839Y-81211009D01*
X93468839Y-81211009D02*
X93373601Y-81258628D01*
X93373601Y-81258628D02*
X92992649Y-81258628D01*
X94516458Y-81734819D02*
X93945030Y-81734819D01*
X94230744Y-81734819D02*
X94230744Y-80734819D01*
X94230744Y-80734819D02*
X94135506Y-80877676D01*
X94135506Y-80877676D02*
X94040268Y-80972914D01*
X94040268Y-80972914D02*
X93945030Y-81020533D01*
X95373601Y-81068152D02*
X95373601Y-81734819D01*
X95135506Y-80687200D02*
X94897411Y-81401485D01*
X94897411Y-81401485D02*
X95516458Y-81401485D01*
X94516458Y-84274819D02*
X94183125Y-83798628D01*
X93945030Y-84274819D02*
X93945030Y-83274819D01*
X93945030Y-83274819D02*
X94325982Y-83274819D01*
X94325982Y-83274819D02*
X94421220Y-83322438D01*
X94421220Y-83322438D02*
X94468839Y-83370057D01*
X94468839Y-83370057D02*
X94516458Y-83465295D01*
X94516458Y-83465295D02*
X94516458Y-83608152D01*
X94516458Y-83608152D02*
X94468839Y-83703390D01*
X94468839Y-83703390D02*
X94421220Y-83751009D01*
X94421220Y-83751009D02*
X94325982Y-83798628D01*
X94325982Y-83798628D02*
X93945030Y-83798628D01*
X95421220Y-83274819D02*
X94945030Y-83274819D01*
X94945030Y-83274819D02*
X94897411Y-83751009D01*
X94897411Y-83751009D02*
X94945030Y-83703390D01*
X94945030Y-83703390D02*
X95040268Y-83655771D01*
X95040268Y-83655771D02*
X95278363Y-83655771D01*
X95278363Y-83655771D02*
X95373601Y-83703390D01*
X95373601Y-83703390D02*
X95421220Y-83751009D01*
X95421220Y-83751009D02*
X95468839Y-83846247D01*
X95468839Y-83846247D02*
X95468839Y-84084342D01*
X95468839Y-84084342D02*
X95421220Y-84179580D01*
X95421220Y-84179580D02*
X95373601Y-84227200D01*
X95373601Y-84227200D02*
X95278363Y-84274819D01*
X95278363Y-84274819D02*
X95040268Y-84274819D01*
X95040268Y-84274819D02*
X94945030Y-84227200D01*
X94945030Y-84227200D02*
X94897411Y-84179580D01*
X105751333Y-81785619D02*
X105418000Y-81309428D01*
X105179905Y-81785619D02*
X105179905Y-80785619D01*
X105179905Y-80785619D02*
X105560857Y-80785619D01*
X105560857Y-80785619D02*
X105656095Y-80833238D01*
X105656095Y-80833238D02*
X105703714Y-80880857D01*
X105703714Y-80880857D02*
X105751333Y-80976095D01*
X105751333Y-80976095D02*
X105751333Y-81118952D01*
X105751333Y-81118952D02*
X105703714Y-81214190D01*
X105703714Y-81214190D02*
X105656095Y-81261809D01*
X105656095Y-81261809D02*
X105560857Y-81309428D01*
X105560857Y-81309428D02*
X105179905Y-81309428D01*
X106703714Y-81785619D02*
X106132286Y-81785619D01*
X106418000Y-81785619D02*
X106418000Y-80785619D01*
X106418000Y-80785619D02*
X106322762Y-80928476D01*
X106322762Y-80928476D02*
X106227524Y-81023714D01*
X106227524Y-81023714D02*
X106132286Y-81071333D01*
X94516458Y-86814819D02*
X94183125Y-86338628D01*
X93945030Y-86814819D02*
X93945030Y-85814819D01*
X93945030Y-85814819D02*
X94325982Y-85814819D01*
X94325982Y-85814819D02*
X94421220Y-85862438D01*
X94421220Y-85862438D02*
X94468839Y-85910057D01*
X94468839Y-85910057D02*
X94516458Y-86005295D01*
X94516458Y-86005295D02*
X94516458Y-86148152D01*
X94516458Y-86148152D02*
X94468839Y-86243390D01*
X94468839Y-86243390D02*
X94421220Y-86291009D01*
X94421220Y-86291009D02*
X94325982Y-86338628D01*
X94325982Y-86338628D02*
X93945030Y-86338628D01*
X94849792Y-85814819D02*
X95468839Y-85814819D01*
X95468839Y-85814819D02*
X95135506Y-86195771D01*
X95135506Y-86195771D02*
X95278363Y-86195771D01*
X95278363Y-86195771D02*
X95373601Y-86243390D01*
X95373601Y-86243390D02*
X95421220Y-86291009D01*
X95421220Y-86291009D02*
X95468839Y-86386247D01*
X95468839Y-86386247D02*
X95468839Y-86624342D01*
X95468839Y-86624342D02*
X95421220Y-86719580D01*
X95421220Y-86719580D02*
X95373601Y-86767200D01*
X95373601Y-86767200D02*
X95278363Y-86814819D01*
X95278363Y-86814819D02*
X94992649Y-86814819D01*
X94992649Y-86814819D02*
X94897411Y-86767200D01*
X94897411Y-86767200D02*
X94849792Y-86719580D01*
X105783142Y-86814819D02*
X105449809Y-86338628D01*
X105211714Y-86814819D02*
X105211714Y-85814819D01*
X105211714Y-85814819D02*
X105592666Y-85814819D01*
X105592666Y-85814819D02*
X105687904Y-85862438D01*
X105687904Y-85862438D02*
X105735523Y-85910057D01*
X105735523Y-85910057D02*
X105783142Y-86005295D01*
X105783142Y-86005295D02*
X105783142Y-86148152D01*
X105783142Y-86148152D02*
X105735523Y-86243390D01*
X105735523Y-86243390D02*
X105687904Y-86291009D01*
X105687904Y-86291009D02*
X105592666Y-86338628D01*
X105592666Y-86338628D02*
X105211714Y-86338628D01*
X106735523Y-86814819D02*
X106164095Y-86814819D01*
X106449809Y-86814819D02*
X106449809Y-85814819D01*
X106449809Y-85814819D02*
X106354571Y-85957676D01*
X106354571Y-85957676D02*
X106259333Y-86052914D01*
X106259333Y-86052914D02*
X106164095Y-86100533D01*
X107354571Y-85814819D02*
X107449809Y-85814819D01*
X107449809Y-85814819D02*
X107545047Y-85862438D01*
X107545047Y-85862438D02*
X107592666Y-85910057D01*
X107592666Y-85910057D02*
X107640285Y-86005295D01*
X107640285Y-86005295D02*
X107687904Y-86195771D01*
X107687904Y-86195771D02*
X107687904Y-86433866D01*
X107687904Y-86433866D02*
X107640285Y-86624342D01*
X107640285Y-86624342D02*
X107592666Y-86719580D01*
X107592666Y-86719580D02*
X107545047Y-86767200D01*
X107545047Y-86767200D02*
X107449809Y-86814819D01*
X107449809Y-86814819D02*
X107354571Y-86814819D01*
X107354571Y-86814819D02*
X107259333Y-86767200D01*
X107259333Y-86767200D02*
X107211714Y-86719580D01*
X107211714Y-86719580D02*
X107164095Y-86624342D01*
X107164095Y-86624342D02*
X107116476Y-86433866D01*
X107116476Y-86433866D02*
X107116476Y-86195771D01*
X107116476Y-86195771D02*
X107164095Y-86005295D01*
X107164095Y-86005295D02*
X107211714Y-85910057D01*
X107211714Y-85910057D02*
X107259333Y-85862438D01*
X107259333Y-85862438D02*
X107354571Y-85814819D01*
X110609142Y-77670819D02*
X110275809Y-77194628D01*
X110037714Y-77670819D02*
X110037714Y-76670819D01*
X110037714Y-76670819D02*
X110418666Y-76670819D01*
X110418666Y-76670819D02*
X110513904Y-76718438D01*
X110513904Y-76718438D02*
X110561523Y-76766057D01*
X110561523Y-76766057D02*
X110609142Y-76861295D01*
X110609142Y-76861295D02*
X110609142Y-77004152D01*
X110609142Y-77004152D02*
X110561523Y-77099390D01*
X110561523Y-77099390D02*
X110513904Y-77147009D01*
X110513904Y-77147009D02*
X110418666Y-77194628D01*
X110418666Y-77194628D02*
X110037714Y-77194628D01*
X111561523Y-77670819D02*
X110990095Y-77670819D01*
X111275809Y-77670819D02*
X111275809Y-76670819D01*
X111275809Y-76670819D02*
X111180571Y-76813676D01*
X111180571Y-76813676D02*
X111085333Y-76908914D01*
X111085333Y-76908914D02*
X110990095Y-76956533D01*
X112513904Y-77670819D02*
X111942476Y-77670819D01*
X112228190Y-77670819D02*
X112228190Y-76670819D01*
X112228190Y-76670819D02*
X112132952Y-76813676D01*
X112132952Y-76813676D02*
X112037714Y-76908914D01*
X112037714Y-76908914D02*
X111942476Y-76956533D01*
X105497333Y-76654819D02*
X105164000Y-76178628D01*
X104925905Y-76654819D02*
X104925905Y-75654819D01*
X104925905Y-75654819D02*
X105306857Y-75654819D01*
X105306857Y-75654819D02*
X105402095Y-75702438D01*
X105402095Y-75702438D02*
X105449714Y-75750057D01*
X105449714Y-75750057D02*
X105497333Y-75845295D01*
X105497333Y-75845295D02*
X105497333Y-75988152D01*
X105497333Y-75988152D02*
X105449714Y-76083390D01*
X105449714Y-76083390D02*
X105402095Y-76131009D01*
X105402095Y-76131009D02*
X105306857Y-76178628D01*
X105306857Y-76178628D02*
X104925905Y-76178628D01*
X105830667Y-75654819D02*
X106497333Y-75654819D01*
X106497333Y-75654819D02*
X106068762Y-76654819D01*
%TO.C,C2*%
D12*
X112006748Y-89435000D02*
X112529252Y-89435000D01*
X112006748Y-90905000D02*
X112529252Y-90905000D01*
%TO.C,P1*%
X106824200Y-74920000D02*
X106824200Y-69850000D01*
X116594200Y-69850000D02*
X106824200Y-69850000D01*
X116594200Y-74920000D02*
X106824200Y-74920000D01*
X116594200Y-74920000D02*
X116594200Y-69850000D01*
%TO.C,C1*%
X110482748Y-80545000D02*
X111005252Y-80545000D01*
X110482748Y-82015000D02*
X111005252Y-82015000D01*
%TO.C,U1*%
X112776000Y-83292000D02*
X110826000Y-83292000D01*
X112776000Y-83292000D02*
X114726000Y-83292000D01*
X112776000Y-88412000D02*
X110826000Y-88412000D01*
X112776000Y-88412000D02*
X114726000Y-88412000D01*
X110076000Y-83387000D02*
X109836000Y-83057000D01*
X110316000Y-83057000D01*
X110076000Y-83387000D01*
G36*
X110076000Y-83387000D02*
G01*
X109836000Y-83057000D01*
X110316000Y-83057000D01*
X110076000Y-83387000D01*
G37*
%TO.C,J1*%
X88790000Y-74820000D02*
X90170000Y-74820000D01*
X88790000Y-76200000D02*
X88790000Y-74820000D01*
X88790000Y-77470000D02*
X88790000Y-90280000D01*
X88790000Y-77470000D02*
X91550000Y-77470000D01*
X88790000Y-90280000D02*
X91550000Y-90280000D01*
X91550000Y-77470000D02*
X91550000Y-90280000D01*
%TO.C,J2*%
X119311248Y-82550000D02*
X119311248Y-74820000D01*
X122071248Y-74820000D02*
X119311248Y-74820000D01*
X122071248Y-82550000D02*
X119311248Y-82550000D01*
X122071248Y-82550000D02*
X122071248Y-74820000D01*
X122071248Y-83820000D02*
X122071248Y-85200000D01*
X122071248Y-85200000D02*
X120691248Y-85200000D01*
%TD*%
M02*
