M48
; DRILL file KiCad 10.0.1 date 2026-05-14T21:14:03
; FORMAT={-:-/ absolute / metric / decimal}
; #@! TF.CreationDate,2026-05-14T21:14:03+02:00
; #@! TF.GenerationSoftware,Kicad,Pcbnew,10.0.1
; #@! TF.FileFunction,Plated,1,2,PTH
FMAT,2
METRIC
; #@! TA.AperFunction,Plated,PTH,ViaDrill
T1C0.300
; #@! TA.AperFunction,Plated,PTH,ComponentDrill
T2C1.000
; #@! TA.AperFunction,Plated,PTH,ViaDrill
T3C2.600
%
G90
G05
T1
X109.22Y-57.15
X118.872Y-61.63
X118.872Y-72.136
X130.302Y-57.15
X131.318Y-67.31
X134.112Y-54.102
X134.112Y-72.136
T2
X101.6Y-58.42
X101.6Y-60.96
X101.6Y-63.5
X101.6Y-66.04
X101.6Y-68.58
X101.6Y-71.12
X147.32Y-60.96
X147.32Y-63.5
X147.32Y-66.04
X147.32Y-68.58
T3
X102.87Y-54.61
X102.87Y-74.93
X145.542Y-54.61
X145.542Y-74.93
M30
